<svg xmlns="http://www.w3.org/2000/svg" xmlns:xlink="http://www.w3.org/1999/xlink" width="1024" zoomAndPan="magnify" viewBox="0 0 768 767.999994" height="1024" preserveAspectRatio="xMidYMid meet" version="1.0"><defs><clipPath id="424e5ca04f"><path d="M 160 426 L 608 426 L 608 577.664062 L 160 577.664062 Z M 160 426 " clip-rule="nonzero"/></clipPath></defs><path fill="#8cedff" d="M 525.839844 250.253906 C 521.628906 247.136719 516.453125 246.277344 511.449219 245.4375 C 507.167969 244.722656 503.128906 244.054688 499.605469 242.089844 C 493.527344 238.703125 490.238281 232.296875 486.742188 225.496094 C 483.117188 218.453125 479.382812 211.179688 472.226562 207.625 C 464.101562 203.59375 454.664062 205.863281 445.671875 208.917969 C 433.441406 213.074219 420.328125 218.792969 405.992188 226.183594 C 405.992188 226.175781 405.992188 226.164062 405.992188 226.15625 C 406.0625 224.386719 405.1875 222.726562 403.707031 221.777344 C 381.578125 207.695312 363.183594 199.9375 351.917969 199.9375 C 347.125 199.9375 343.460938 201.304688 341.015625 204.003906 C 326.421875 220.117188 367.234375 274.757812 415.117188 318.273438 C 438.152344 339.21875 461.46875 356.730469 482.53125 368.929688 C 483.296875 369.375 484.152344 369.589844 485 369.589844 C 485.847656 369.589844 486.6875 369.375 487.445312 368.945312 C 488.972656 368.078125 489.925781 366.472656 489.953125 364.710938 C 490.003906 361.191406 490.96875 358.070312 492.761719 355.703125 C 494.082031 353.945312 496.027344 352.476562 498.375 351.460938 C 499.140625 351.128906 499.765625 350.585938 500.265625 349.949219 C 501.023438 350.21875 501.84375 350.351562 502.671875 350.207031 C 504.054688 349.984375 505.429688 349.914062 506.730469 349.976562 C 512.558594 350.269531 518.042969 352.835938 522.164062 355.035156 C 522.96875 355.464844 523.761719 355.925781 524.546875 356.382812 L 525.035156 356.667969 C 525.8125 357.117188 526.660156 357.339844 527.507812 357.339844 C 528.757812 357.339844 529.988281 356.875 530.925781 355.964844 C 532.511719 354.445312 532.90625 352.050781 531.886719 350.09375 C 528.273438 343.160156 523.324219 335.382812 517.167969 326.984375 C 516.304688 325.804688 514.964844 325.136719 513.511719 325.011719 C 522.371094 311.570312 530.039062 296.640625 532.949219 280.582031 C 535.570312 266.117188 533.117188 255.625 525.855469 250.238281 Z M 525.839844 250.253906 " fill-opacity="1" fill-rule="nonzero"/><path fill="#c4a5ff" d="M 600.753906 480.3125 C 593.367188 472.1875 580.460938 475.609375 571.914062 477.878906 C 571.074219 478.105469 570.210938 478.328125 569.371094 478.523438 C 569.84375 477.28125 570.308594 476.046875 570.710938 474.804688 C 577.550781 455.050781 578.246094 433.613281 572.636719 413.957031 C 565.292969 388.257812 546.855469 365.410156 523.304688 352.855469 C 518.953125 350.53125 513.144531 347.804688 506.847656 347.511719 C 506.207031 347.484375 505.5625 347.457031 504.921875 347.511719 C 499.113281 347.679688 493.824219 350.15625 490.765625 354.195312 C 487.917969 357.984375 486.882812 363.351562 487.820312 369.070312 C 466.195312 357.117188 441.015625 338.476562 416.769531 316.414062 C 385.875 288.339844 360.175781 257.941406 348.007812 235.039062 C 347.070312 233.261719 345.144531 232.242188 343.113281 232.464844 C 323.683594 234.566406 304.234375 244.296875 289.777344 259.15625 C 274.226562 275.097656 263.558594 296.757812 258.855469 321.785156 C 254.976562 342.632812 255.144531 365.632812 259.402344 392.046875 L 259.554688 392.964844 C 260.347656 397.84375 261.085938 402.445312 260.347656 407.046875 C 259.480469 412.375 256.441406 416.582031 252.417969 418.011719 C 249.917969 418.90625 247.277344 418.683594 244.53125 417.394531 C 240.875 415.636719 237.582031 411.898438 236.199219 407.914062 C 234.050781 401.820312 234.636719 395.34375 235.261719 388.480469 C 235.332031 387.445312 235.433594 386.425781 235.53125 385.386719 C 236.839844 368.832031 235.308594 352.265625 230.980469 336.199219 C 229.207031 329.566406 226.261719 321.445312 219.339844 317.65625 C 214.324219 314.90625 207.726562 315.03125 201.820312 317.828125 C 200.882812 318.273438 199.9375 318.792969 199.027344 319.390625 C 194.128906 322.578125 189.929688 327.558594 185.851562 335.0625 C 174.851562 355.1875 171.097656 379.667969 175.496094 402.179688 C 177.296875 411.335938 180.492188 420.371094 184.984375 428.984375 C 185.011719 429.039062 185.039062 429.082031 185.058594 429.136719 C 183.621094 429.304688 182.195312 429.628906 180.785156 430.128906 C 177.503906 431.191406 174.378906 433.09375 171.765625 435.578125 C 168.429688 438.699219 165.832031 442.738281 164.550781 447.242188 C 161.855469 456.675781 164.175781 467.863281 170.777344 477.191406 C 175.996094 484.574219 183.503906 490.835938 194.425781 496.921875 C 224.101562 513.460938 260.3125 518.136719 293.449219 510.484375 C 296.492188 509.789062 299.480469 508.976562 302.441406 508.082031 C 297.449219 510.976562 292.53125 513.898438 287.714844 516.769531 C 278.519531 522.238281 269.054688 527.882812 259.515625 533.058594 C 255.019531 535.488281 244.539062 541.179688 244.664062 550.535156 C 244.691406 551.777344 244.886719 552.964844 245.253906 554.128906 C 246.886719 559.328125 252.023438 563.761719 260.382812 567.046875 C 274.121094 572.445312 288.777344 575.171875 303.433594 575.171875 C 319.203125 575.171875 334.96875 572.027344 349.550781 565.789062 C 376.171875 554.421875 397.992188 533.109375 410.121094 506.839844 C 410.59375 505.820312 411.042969 504.8125 411.476562 503.792969 C 412.21875 504.464844 412.933594 505.132812 413.683594 505.777344 C 438.195312 527.464844 468.667969 540.679688 497.9375 542.214844 C 530.265625 543.894531 563.671875 533.648438 589.503906 514.042969 C 594.347656 510.351562 599.683594 505.777344 602.582031 499.585938 C 603.574219 497.484375 604.257812 495 604.464844 492.480469 C 604.519531 491.9375 604.535156 491.363281 604.535156 490.820312 C 604.535156 487.058594 603.449219 483.269531 600.753906 480.300781 Z M 472.484375 438.894531 C 474.164062 433.203125 477.902344 428.378906 481.476562 423.667969 L 500.335938 399.132812 C 503.824219 409.703125 505.054688 420.691406 503.992188 431.78125 C 503.074219 441.484375 500.335938 448.445312 495.617188 453.023438 C 490.503906 457.972656 480.988281 459.855469 475.527344 454.628906 C 471.871094 451.117188 470.65625 444.953125 472.484375 438.886719 Z M 472.484375 438.894531 " fill-opacity="1" fill-rule="nonzero"/><path fill="#e5dfff" d="M 175.496094 402.179688 C 171.097656 379.679688 174.851562 355.195312 185.851562 335.0625 C 189.929688 327.566406 194.128906 322.589844 199.027344 319.390625 C 199.945312 318.800781 200.882812 318.273438 201.820312 317.828125 C 199.445312 324.4375 195.441406 330.871094 193.542969 337.429688 C 190.5 347.902344 189.410156 358.921875 190.277344 369.785156 C 191.265625 382.164062 194.773438 394.367188 200.882812 405.191406 C 216.179688 432.441406 247.046875 450.144531 278.257812 449.554688 C 248.3125 458.660156 232.628906 455.15625 223.789062 449.804688 C 220.777344 447.980469 213.058594 442.613281 200.640625 436.3125 C 194.191406 433.042969 188.734375 430.664062 185.058594 429.136719 C 185.03125 429.082031 185.003906 429.039062 184.988281 428.984375 C 180.492188 420.371094 177.296875 411.335938 175.496094 402.179688 Z M 175.496094 402.179688 " fill-opacity="1" fill-rule="nonzero"/><path fill="#e5dfff" d="M 194.433594 496.921875 C 183.503906 490.828125 175.996094 484.574219 170.785156 477.191406 C 164.183594 467.863281 161.863281 456.667969 164.558594 447.242188 C 165.84375 442.738281 168.4375 438.699219 171.773438 435.578125 C 176.324219 462.386719 200.042969 484.054688 226.199219 493.035156 C 254.773438 502.835938 285.832031 500.78125 315.957031 498.601562 C 308.472656 502.558594 300.953125 506.527344 293.46875 510.488281 C 260.328125 518.136719 224.121094 513.453125 194.441406 496.921875 Z M 194.433594 496.921875 " fill-opacity="1" fill-rule="nonzero"/><path fill="#e5dfff" d="M 382.503906 523.753906 C 391.355469 517.546875 400.050781 510.359375 410.132812 506.847656 C 398 533.109375 376.171875 554.429688 349.5625 565.796875 C 334.976562 572.035156 319.214844 575.179688 303.441406 575.179688 C 288.785156 575.179688 274.128906 572.453125 260.390625 567.058594 C 252.042969 563.769531 246.894531 559.335938 245.261719 554.136719 C 292.585938 562.257812 343.101562 551.367188 382.496094 523.765625 Z M 382.503906 523.753906 " fill-opacity="1" fill-rule="nonzero"/><path fill="#e5dfff" d="M 498.980469 350.78125 C 500.90625 349.59375 502.886719 348.503906 504.910156 347.511719 C 505.554688 347.457031 506.195312 347.484375 506.839844 347.511719 C 513.136719 347.804688 518.953125 350.53125 523.296875 352.855469 C 563.054688 374.128906 572.628906 413.957031 572.628906 413.957031 C 580.960938 444.265625 572.003906 469.792969 568.300781 478.863281 C 563.019531 480.300781 557.410156 481.625 551.476562 482.757812 C 536.730469 485.59375 523.136719 486.699219 511.183594 486.859375 C 536.765625 475.558594 554.222656 451.824219 555.839844 425.519531 C 557.882812 392.359375 534.457031 360.304688 498.972656 350.78125 Z M 498.980469 350.78125 " fill-opacity="1" fill-rule="nonzero"/><path fill="#e5dfff" d="M 604.464844 492.488281 C 604.269531 495.019531 603.574219 497.492188 602.582031 499.59375 C 599.691406 505.785156 594.347656 510.359375 589.503906 514.050781 C 563.679688 533.65625 530.265625 543.90625 497.9375 542.226562 C 468.675781 540.6875 438.203125 527.472656 413.683594 505.785156 C 414.269531 505.617188 414.894531 505.464844 415.511719 505.339844 C 430.515625 502.320312 445.535156 508.734375 460.167969 513.15625 C 504.109375 526.425781 553.242188 521.601562 593.769531 500.015625 C 597.621094 497.957031 601.503906 495.652344 604.445312 492.488281 Z M 604.464844 492.488281 " fill-opacity="1" fill-rule="nonzero"/><path fill="#fdbbff" d="M 461.984375 390.542969 C 461.984375 391.390625 461.902344 392.226562 461.738281 393.054688 C 461.574219 393.886719 461.332031 394.691406 461.007812 395.472656 C 460.683594 396.253906 460.289062 396.996094 459.820312 397.699219 C 459.351562 398.402344 458.816406 399.050781 458.222656 399.648438 C 457.625 400.246094 456.976562 400.78125 456.273438 401.25 C 455.570312 401.71875 454.832031 402.117188 454.050781 402.441406 C 453.269531 402.761719 452.46875 403.007812 451.640625 403.171875 C 450.8125 403.335938 449.976562 403.421875 449.132812 403.421875 C 448.289062 403.421875 447.453125 403.335938 446.625 403.171875 C 445.796875 403.007812 444.992188 402.761719 444.210938 402.441406 C 443.433594 402.117188 442.691406 401.71875 441.988281 401.25 C 441.289062 400.78125 440.640625 400.246094 440.042969 399.648438 C 439.445312 399.050781 438.914062 398.402344 438.445312 397.699219 C 437.976562 396.996094 437.578125 396.253906 437.253906 395.472656 C 436.933594 394.691406 436.6875 393.886719 436.523438 393.054688 C 436.359375 392.226562 436.277344 391.390625 436.277344 390.542969 C 436.277344 389.699219 436.359375 388.859375 436.523438 388.03125 C 436.6875 387.203125 436.933594 386.398438 437.253906 385.617188 C 437.578125 384.835938 437.976562 384.09375 438.445312 383.390625 C 438.914062 382.6875 439.445312 382.035156 440.042969 381.4375 C 440.640625 380.839844 441.289062 380.308594 441.988281 379.839844 C 442.691406 379.367188 443.433594 378.972656 444.210938 378.648438 C 444.992188 378.324219 445.796875 378.082031 446.625 377.914062 C 447.453125 377.75 448.289062 377.667969 449.132812 377.667969 C 449.976562 377.667969 450.8125 377.75 451.640625 377.914062 C 452.46875 378.082031 453.269531 378.324219 454.050781 378.648438 C 454.832031 378.972656 455.570312 379.367188 456.273438 379.839844 C 456.976562 380.308594 457.625 380.839844 458.222656 381.4375 C 458.816406 382.035156 459.351562 382.6875 459.820312 383.390625 C 460.289062 384.09375 460.683594 384.835938 461.007812 385.617188 C 461.332031 386.398438 461.574219 387.203125 461.738281 388.03125 C 461.902344 388.859375 461.984375 389.699219 461.984375 390.542969 Z M 461.984375 390.542969 " fill-opacity="1" fill-rule="nonzero"/><path fill="#fdbbff" d="M 298.480469 390.542969 C 298.480469 391.390625 298.398438 392.226562 298.234375 393.054688 C 298.070312 393.886719 297.828125 394.691406 297.503906 395.472656 C 297.179688 396.253906 296.785156 396.996094 296.316406 397.699219 C 295.847656 398.402344 295.3125 399.050781 294.71875 399.648438 C 294.121094 400.246094 293.472656 400.78125 292.769531 401.25 C 292.066406 401.71875 291.328125 402.117188 290.546875 402.441406 C 289.765625 402.761719 288.964844 403.007812 288.136719 403.171875 C 287.308594 403.335938 286.472656 403.421875 285.628906 403.421875 C 284.785156 403.421875 283.949219 403.335938 283.121094 403.171875 C 282.292969 403.007812 281.488281 402.761719 280.707031 402.441406 C 279.929688 402.117188 279.1875 401.71875 278.484375 401.25 C 277.785156 400.78125 277.136719 400.246094 276.539062 399.648438 C 275.941406 399.050781 275.410156 398.402344 274.941406 397.699219 C 274.46875 396.996094 274.074219 396.253906 273.75 395.472656 C 273.429688 394.691406 273.183594 393.886719 273.019531 393.054688 C 272.855469 392.226562 272.773438 391.390625 272.773438 390.542969 C 272.773438 389.699219 272.855469 388.859375 273.019531 388.03125 C 273.183594 387.203125 273.429688 386.398438 273.75 385.617188 C 274.074219 384.835938 274.46875 384.09375 274.941406 383.390625 C 275.410156 382.6875 275.941406 382.035156 276.539062 381.4375 C 277.136719 380.839844 277.785156 380.308594 278.484375 379.839844 C 279.1875 379.367188 279.929688 378.972656 280.707031 378.648438 C 281.488281 378.324219 282.292969 378.082031 283.121094 377.914062 C 283.949219 377.75 284.785156 377.667969 285.628906 377.667969 C 286.472656 377.667969 287.308594 377.75 288.136719 377.914062 C 288.964844 378.082031 289.765625 378.324219 290.546875 378.648438 C 291.328125 378.972656 292.066406 379.367188 292.769531 379.839844 C 293.472656 380.308594 294.121094 380.839844 294.71875 381.4375 C 295.3125 382.035156 295.847656 382.6875 296.316406 383.390625 C 296.785156 384.09375 297.179688 384.835938 297.503906 385.617188 C 297.828125 386.398438 298.070312 387.203125 298.234375 388.03125 C 298.398438 388.859375 298.480469 389.699219 298.480469 390.542969 Z M 298.480469 390.542969 " fill-opacity="1" fill-rule="nonzero"/><path fill="#220086" d="M 293.300781 262.621094 C 308.5625 246.949219 329.167969 237.574219 349.105469 236.996094 C 347.402344 235.832031 346.179688 233.984375 345.824219 231.75 C 345.714844 231.070312 345.761719 230.402344 345.867188 229.738281 C 324.984375 231.160156 303.816406 241.1875 287.992188 257.441406 C 272.113281 273.746094 261.203125 295.84375 256.429688 321.355469 C 252.480469 342.496094 252.648438 365.746094 256.957031 392.449219 L 257.109375 393.367188 C 257.867188 398.050781 258.589844 402.472656 257.902344 406.671875 C 257.359375 409.996094 255.378906 414.347656 251.585938 415.699219 C 249.257812 416.519531 247.046875 415.867188 245.59375 415.179688 C 242.488281 413.695312 239.714844 410.523438 238.507812 407.109375 C 236.554688 401.535156 237.109375 395.316406 237.699219 388.730469 C 237.796875 387.683594 237.886719 386.640625 237.964844 385.601562 C 239.3125 368.742188 237.761719 351.914062 233.363281 335.582031 C 231.445312 328.449219 228.25 319.730469 220.507812 315.503906 C 213.890625 311.882812 204.933594 312.597656 197.671875 317.324219 C 190.757812 321.828125 186.359375 328.933594 183.65625 333.890625 C 172.398438 354.523438 168.527344 379.597656 173.050781 402.679688 C 175.101562 413.132812 178.910156 423.3125 184.148438 432.703125 C 186.296875 430.726562 189.3125 429.90625 191.863281 431.273438 C 186.359375 421.96875 182.390625 411.757812 180.328125 401.25 C 176.136719 379.847656 179.722656 356.597656 190.167969 337.457031 C 193.851562 330.703125 197.519531 326.289062 201.710938 323.5625 C 206.714844 320.308594 212.703125 319.703125 216.957031 322.035156 C 222.230469 324.921875 224.664062 331.828125 226.199219 337.53125 C 230.375 353.03125 231.847656 369.019531 230.570312 385.023438 C 230.488281 386.03125 230.402344 387.058594 230.3125 388.078125 C 229.679688 395.164062 229.019531 402.480469 231.507812 409.578125 C 233.34375 414.839844 237.519531 419.558594 242.382812 421.890625 C 246.277344 423.757812 250.320312 424.042969 254.058594 422.703125 C 259.765625 420.664062 264.039062 414.992188 265.199219 407.878906 C 266.082031 402.480469 265.234375 397.246094 264.40625 392.179688 L 264.253906 391.269531 C 260.089844 365.433594 259.902344 343.015625 263.699219 322.730469 C 268.195312 298.667969 278.429688 277.882812 293.28125 262.632812 Z M 293.300781 262.621094 " fill-opacity="1" fill-rule="nonzero"/><g clip-path="url(#424e5ca04f)"><path fill="#220086" d="M 303.433594 577.636719 C 288.472656 577.636719 273.503906 574.875 259.492188 569.34375 C 248.4375 564.984375 242.292969 558.320312 242.195312 550.570312 C 242.070312 540.957031 250.757812 534.996094 258.339844 530.886719 C 267.832031 525.738281 277.296875 520.101562 286.449219 514.648438 C 286.636719 514.542969 286.824219 514.425781 287.011719 514.320312 C 255.234375 519.957031 221.363281 514.75 193.21875 499.074219 C 181.960938 492.804688 174.183594 486.308594 168.761719 478.632812 C 161.730469 468.703125 159.269531 456.722656 162.167969 446.570312 C 165.59375 434.578125 176.742188 425.984375 188.242188 426.574219 C 196.65625 427.011719 203.40625 431.726562 209.929688 436.292969 C 211.335938 437.285156 212.746094 438.269531 214.164062 439.199219 C 232.015625 450.929688 254.957031 454.558594 275.554688 448.902344 C 277.527344 448.367188 279.570312 449.519531 280.113281 451.503906 C 280.660156 453.476562 279.492188 455.523438 277.519531 456.070312 C 254.914062 462.277344 229.703125 458.300781 210.097656 445.417969 C 208.625 444.453125 207.152344 443.425781 205.683594 442.398438 C 199.75 438.25 194.15625 434.328125 187.859375 434.007812 C 179.972656 433.621094 171.75 440.019531 169.296875 448.632812 C 167.011719 456.632812 169.070312 466.246094 174.800781 474.351562 C 179.5625 481.089844 186.554688 486.886719 196.816406 492.605469 C 232.445312 512.453125 277.757812 514.578125 315.082031 498.164062 C 316.910156 497.359375 319.035156 498.144531 319.910156 499.933594 C 320.785156 501.71875 320.097656 503.882812 318.347656 504.832031 C 308.855469 509.976562 299.390625 515.617188 290.238281 521.066406 C 281.015625 526.550781 271.488281 532.226562 261.871094 537.445312 C 256.117188 540.5625 249.535156 544.871094 249.605469 550.507812 C 249.6875 556.621094 257.535156 560.625 262.210938 562.464844 C 289.507812 573.242188 320.648438 572.804688 347.632812 561.265625 C 374.628906 549.730469 396.484375 527.515625 407.605469 500.316406 C 408.070312 499.191406 409.050781 498.359375 410.246094 498.09375 C 411.441406 497.832031 412.683594 498.171875 413.574219 499.011719 C 437.828125 521.789062 468.675781 535.746094 498.203125 537.292969 C 529.433594 538.9375 561.621094 529.027344 586.535156 510.121094 C 590.898438 506.8125 595.6875 502.722656 598.121094 497.519531 C 600.011719 493.472656 600.503906 487.40625 597.105469 483.660156 C 592.15625 478.210938 582.574219 480.1875 573.199219 482.679688 C 547.390625 489.53125 519.800781 491.007812 493.421875 486.941406 C 491.398438 486.628906 490.003906 484.734375 490.316406 482.707031 C 490.628906 480.675781 492.53125 479.273438 494.546875 479.597656 C 519.933594 483.5 546.472656 482.089844 571.296875 475.496094 C 579.863281 473.214844 594.1875 469.417969 602.589844 478.65625 C 608.308594 484.949219 607.847656 494.25 604.839844 500.667969 C 601.71875 507.332031 596.105469 512.175781 591.023438 516.035156 C 564.734375 535.988281 530.78125 546.433594 497.828125 544.710938 C 468.132812 543.144531 437.265625 529.824219 412.378906 507.941406 C 399.996094 534.730469 377.714844 556.476562 350.550781 568.085938 C 335.644531 574.457031 319.542969 577.65625 303.441406 577.65625 Z M 303.433594 577.636719 " fill-opacity="1" fill-rule="nonzero"/></g><path fill="#220086" d="M 562.046875 483.082031 C 563.824219 482.605469 565.597656 482.105469 567.328125 481.464844 C 568.683594 480.953125 570.03125 480.5625 571.386719 480.222656 C 579.753906 459.132812 581.199219 435.007812 575 413.292969 C 567.480469 386.960938 548.59375 363.550781 524.464844 350.671875 C 519.890625 348.234375 513.761719 345.382812 506.964844 345.035156 C 499.640625 344.652344 492.644531 347.601562 488.800781 352.710938 C 484.859375 357.945312 483.921875 365.433594 486.242188 373.246094 C 487.5625 377.703125 489.683594 381.734375 491.734375 385.628906 C 492.519531 387.121094 493.304688 388.605469 494.039062 390.113281 C 494.964844 392.019531 495.8125 393.964844 496.578125 395.933594 L 477.578125 420.65625 C 473.886719 425.464844 469.703125 430.90625 467.738281 437.464844 C 465.410156 445.292969 467.125 453.433594 472.109375 458.214844 C 479.710938 465.488281 492.171875 463.242188 499.050781 456.578125 C 504.660156 451.144531 507.890625 443.191406 508.925781 432.246094 C 510.050781 420.378906 508.667969 408.460938 504.929688 397.238281 C 503.878906 394.546875 502.824219 391.859375 501.773438 389.167969 C 501.425781 388.398438 501.066406 387.632812 500.691406 386.863281 C 499.925781 385.28125 499.105469 383.726562 498.285156 382.164062 C 496.3125 378.417969 494.457031 374.878906 493.332031 371.128906 C 491.71875 365.675781 492.226562 360.46875 494.699219 357.179688 C 497.089844 354.007812 501.628906 352.183594 506.570312 352.441406 C 511.914062 352.710938 517.070312 355.140625 520.96875 357.214844 C 543.359375 369.160156 560.886719 390.882812 567.863281 415.324219 C 574.179688 437.445312 571.949219 462.253906 562.039062 483.082031 Z M 499.355469 404.492188 C 501.65625 413.277344 502.414062 422.425781 501.546875 431.550781 C 500.691406 440.65625 498.1875 447.097656 493.902344 451.242188 C 489.59375 455.417969 481.550781 456.988281 477.242188 452.851562 C 473.832031 449.589844 473.582031 443.84375 474.851562 439.601562 C 476.410156 434.355469 479.996094 429.699219 483.457031 425.195312 L 499.363281 404.5 Z M 499.355469 404.492188 " fill-opacity="1" fill-rule="nonzero"/><path fill="#220086" d="M 533.089844 360.90625 C 535.492188 362.933594 538.273438 364.84375 540.59375 367.035156 C 538.308594 354.695312 528.808594 338.15625 515.152344 320.382812 C 514.902344 320.980469 514.617188 321.542969 514.234375 322.027344 C 513.421875 323.042969 512.601562 324.074219 511.921875 325.1875 C 511.601562 325.714844 511.148438 326.136719 510.648438 326.511719 C 520.414062 339.40625 527.257812 350.746094 530.898438 359.636719 C 531.636719 359.921875 532.378906 360.304688 533.09375 360.914062 Z M 533.089844 360.90625 " fill-opacity="1" fill-rule="nonzero"/><path fill="#220086" d="M 490.675781 367.828125 C 468.855469 356.015625 443.289062 337.199219 418.417969 314.601562 C 363.171875 264.390625 335.207031 217.765625 344.664062 207.328125 C 346.152344 205.695312 348.605469 204.890625 351.90625 204.890625 C 362.371094 204.890625 381.328125 212.976562 404.671875 228.28125 C 404.789062 228.175781 404.878906 228.050781 405.003906 227.941406 C 407.070312 226.226562 409.195312 224.832031 411.34375 223.921875 C 378.964844 202.269531 349.765625 190.636719 339.175781 202.332031 C 322.960938 220.242188 365.339844 276.375 413.449219 320.097656 C 439.445312 343.722656 466.285156 363.351562 489.023438 375.371094 C 490.34375 376.070312 491.699219 376.765625 493.074219 377.445312 C 491.226562 374.566406 490.398438 371.214844 490.683594 367.820312 Z M 490.675781 367.828125 " fill-opacity="1" fill-rule="nonzero"/><path fill="#220086" d="M 498.382812 347.464844 C 497.863281 347.464844 497.328125 347.359375 496.828125 347.125 C 448.675781 324.894531 407.8125 287.175781 381.753906 240.917969 C 380.757812 239.148438 381.371094 236.898438 383.128906 235.878906 C 406.421875 222.359375 426.617188 212.769531 444.867188 206.570312 C 454.367188 203.34375 464.386719 200.96875 473.324219 205.398438 C 481.199219 209.3125 485.136719 216.960938 488.933594 224.359375 C 492.246094 230.8125 495.382812 236.898438 500.800781 239.917969 C 503.949219 241.667969 507.792969 242.3125 511.851562 242.992188 C 517.140625 243.875 522.609375 244.785156 527.300781 248.253906 C 535.367188 254.230469 538.160156 265.5625 535.359375 281.03125 C 530.976562 305.226562 516.402344 326.574219 501.308594 346.027344 C 500.585938 346.957031 499.496094 347.464844 498.382812 347.464844 Z M 390.050781 240.460938 C 414.914062 283.058594 452.789062 317.925781 497.265625 339.128906 C 511.121094 321.0625 524.136719 301.394531 528.070312 279.707031 C 529.648438 271.003906 530.023438 259.511719 522.894531 254.230469 C 519.640625 251.820312 515.269531 251.09375 510.640625 250.316406 C 506.132812 249.566406 501.46875 248.789062 497.195312 246.414062 C 489.820312 242.304688 486.019531 234.914062 482.34375 227.765625 C 478.933594 221.144531 475.722656 214.886719 470.03125 212.054688 C 463.519531 208.820312 455.234375 210.886719 447.257812 213.601562 C 430.308594 219.363281 411.566406 228.15625 390.050781 240.460938 Z M 390.050781 240.460938 " fill-opacity="1" fill-rule="nonzero"/><path fill="#220086" d="M 352.515625 387.667969 C 345.367188 387.667969 338.417969 382.609375 336.472656 375.65625 C 335.921875 373.683594 337.074219 371.636719 339.042969 371.082031 C 341.023438 370.527344 343.058594 371.679688 343.609375 373.65625 C 344.753906 377.75 349.265625 380.75 353.476562 380.179688 C 357.679688 379.625 361.273438 375.566406 361.328125 371.324219 C 361.355469 369.375 362.871094 367.785156 364.804688 367.660156 C 366.777344 367.535156 368.445312 368.9375 368.714844 370.859375 C 369.292969 375.078125 373.371094 378.660156 377.617188 378.695312 L 377.667969 378.695312 C 381.898438 378.695312 385.992188 375.183594 386.632812 370.992188 C 386.945312 368.964844 388.828125 367.578125 390.855469 367.882812 C 392.878906 368.195312 394.269531 370.089844 393.957031 372.117188 C 392.78125 379.867188 385.484375 386.128906 377.660156 386.128906 L 377.554688 386.128906 C 373.011719 386.09375 368.667969 383.949219 365.609375 380.632812 C 362.976562 384.289062 358.9375 386.953125 354.441406 387.550781 C 353.796875 387.632812 353.148438 387.675781 352.503906 387.675781 Z M 352.515625 387.667969 " fill-opacity="1" fill-rule="nonzero"/><path fill="#220086" d="M 433.53125 365.132812 C 433.53125 366.121094 433.464844 367.097656 433.332031 368.066406 C 433.199219 369.035156 433.003906 369.976562 432.742188 370.890625 C 432.484375 371.800781 432.164062 372.667969 431.789062 373.492188 C 431.410156 374.3125 430.980469 375.074219 430.5 375.769531 C 430.023438 376.46875 429.5 377.09375 428.933594 377.644531 C 428.371094 378.191406 427.773438 378.65625 427.148438 379.035156 C 426.519531 379.410156 425.875 379.695312 425.207031 379.890625 C 424.542969 380.082031 423.871094 380.179688 423.191406 380.179688 C 422.511719 380.179688 421.839844 380.082031 421.175781 379.890625 C 420.507812 379.695312 419.863281 379.410156 419.234375 379.035156 C 418.605469 378.65625 418.011719 378.191406 417.445312 377.644531 C 416.882812 377.09375 416.359375 376.46875 415.878906 375.769531 C 415.398438 375.074219 414.972656 374.3125 414.59375 373.492188 C 414.21875 372.667969 413.898438 371.800781 413.640625 370.890625 C 413.378906 369.976562 413.183594 369.035156 413.050781 368.066406 C 412.917969 367.097656 412.851562 366.121094 412.851562 365.132812 C 412.851562 364.144531 412.917969 363.164062 413.050781 362.195312 C 413.183594 361.226562 413.378906 360.285156 413.640625 359.371094 C 413.898438 358.460938 414.21875 357.59375 414.59375 356.769531 C 414.972656 355.949219 415.398438 355.191406 415.878906 354.492188 C 416.359375 353.792969 416.882812 353.167969 417.445312 352.621094 C 418.011719 352.070312 418.605469 351.605469 419.234375 351.230469 C 419.863281 350.851562 420.507812 350.566406 421.175781 350.371094 C 421.839844 350.179688 422.511719 350.082031 423.191406 350.082031 C 423.871094 350.082031 424.542969 350.179688 425.207031 350.371094 C 425.875 350.566406 426.519531 350.851562 427.148438 351.230469 C 427.773438 351.605469 428.371094 352.070312 428.933594 352.621094 C 429.5 353.167969 430.023438 353.792969 430.5 354.492188 C 430.980469 355.191406 431.410156 355.949219 431.789062 356.769531 C 432.164062 357.59375 432.484375 358.460938 432.742188 359.371094 C 433.003906 360.285156 433.199219 361.226562 433.332031 362.195312 C 433.464844 363.164062 433.53125 364.144531 433.53125 365.132812 Z M 433.53125 365.132812 " fill-opacity="1" fill-rule="nonzero"/><path fill="#220086" d="M 321.917969 365.132812 C 321.917969 366.121094 321.851562 367.097656 321.71875 368.066406 C 321.585938 369.035156 321.390625 369.976562 321.128906 370.890625 C 320.871094 371.800781 320.550781 372.667969 320.175781 373.492188 C 319.796875 374.3125 319.367188 375.074219 318.886719 375.769531 C 318.40625 376.46875 317.886719 377.09375 317.320312 377.644531 C 316.757812 378.191406 316.160156 378.65625 315.535156 379.035156 C 314.90625 379.410156 314.261719 379.695312 313.59375 379.890625 C 312.929688 380.082031 312.257812 380.179688 311.578125 380.179688 C 310.898438 380.179688 310.226562 380.082031 309.558594 379.890625 C 308.894531 379.695312 308.25 379.410156 307.621094 379.035156 C 306.992188 378.65625 306.398438 378.191406 305.832031 377.644531 C 305.269531 377.09375 304.746094 376.46875 304.265625 375.769531 C 303.785156 375.074219 303.359375 374.3125 302.980469 373.492188 C 302.605469 372.667969 302.285156 371.800781 302.027344 370.890625 C 301.765625 369.976562 301.570312 369.035156 301.4375 368.066406 C 301.304688 367.097656 301.238281 366.121094 301.238281 365.132812 C 301.238281 364.144531 301.304688 363.164062 301.4375 362.195312 C 301.570312 361.226562 301.765625 360.285156 302.027344 359.371094 C 302.285156 358.460938 302.605469 357.59375 302.980469 356.769531 C 303.359375 355.949219 303.785156 355.191406 304.265625 354.492188 C 304.746094 353.792969 305.269531 353.167969 305.832031 352.621094 C 306.398438 352.070312 306.992188 351.605469 307.621094 351.230469 C 308.25 350.851562 308.894531 350.566406 309.558594 350.371094 C 310.226562 350.179688 310.898438 350.082031 311.578125 350.082031 C 312.257812 350.082031 312.929688 350.179688 313.59375 350.371094 C 314.261719 350.566406 314.90625 350.851562 315.535156 351.230469 C 316.160156 351.605469 316.757812 352.070312 317.320312 352.621094 C 317.886719 353.167969 318.40625 353.792969 318.886719 354.492188 C 319.367188 355.191406 319.796875 355.949219 320.175781 356.769531 C 320.550781 357.59375 320.871094 358.460938 321.128906 359.371094 C 321.390625 360.285156 321.585938 361.226562 321.71875 362.195312 C 321.851562 363.164062 321.917969 364.144531 321.917969 365.132812 Z M 321.917969 365.132812 " fill-opacity="1" fill-rule="nonzero"/></svg>