<svg xmlns="http://www.w3.org/2000/svg" xmlns:xlink="http://www.w3.org/1999/xlink" width="1024" zoomAndPan="magnify" viewBox="0 0 768 767.999994" height="1024" preserveAspectRatio="xMidYMid meet" version="1.0"><defs><clipPath id="21c83f9a20"><path d="M 420 448 L 522 448 L 522 597.878906 L 420 597.878906 Z M 420 448 " clip-rule="nonzero"/></clipPath></defs><path fill="#8cedff" d="M 450.53125 395.066406 C 449.492188 393.878906 447.972656 393.195312 446.390625 393.195312 L 365.230469 393.195312 C 363.640625 393.195312 362.132812 393.878906 361.082031 395.078125 C 360.035156 396.277344 359.554688 397.867188 359.773438 399.441406 C 361.617188 413.078125 363.480469 426.726562 365.34375 440.367188 C 365.605469 442.292969 366.871094 443.953125 368.679688 444.703125 C 370.476562 445.453125 372.546875 445.199219 374.109375 444.027344 C 376.984375 441.875 379.410156 440.140625 381.742188 438.578125 C 387.390625 434.800781 393.503906 431.382812 399.957031 431.851562 C 406.878906 432.347656 413.246094 438.089844 414.457031 444.917969 C 415.851562 452.84375 411.074219 460.914062 407.582031 466.828125 L 386.050781 503.207031 C 385.039062 504.910156 385.019531 507.019531 386.003906 508.742188 C 386.988281 510.464844 388.8125 511.523438 390.789062 511.523438 L 432.503906 511.523438 C 435.273438 511.523438 437.605469 509.472656 437.960938 506.71875 L 451.871094 399.40625 C 452.078125 397.832031 451.589844 396.246094 450.539062 395.058594 Z M 450.53125 395.066406 " fill-opacity="1" fill-rule="nonzero"/><path fill="#e5dfff" d="M 463.003906 367.996094 L 418.867188 367.996094 C 419.167969 367.480469 419.390625 366.910156 419.511719 366.292969 L 425.292969 336.496094 C 425.648438 334.652344 425.046875 332.757812 423.691406 331.457031 C 422.855469 330.660156 422.21875 329.929688 421.761719 329.21875 C 420.851562 327.824219 419.363281 326.914062 417.707031 326.746094 C 416.046875 326.578125 414.410156 327.167969 413.238281 328.347656 C 411.347656 330.257812 408.957031 331.5625 406.503906 332.011719 C 406.503906 332.011719 406.503906 332.011719 406.496094 332.011719 C 405.765625 332.140625 404.921875 332.1875 403.863281 332.140625 C 401.074219 332.027344 398.527344 334.117188 398.167969 336.957031 L 394.703125 364.542969 C 394.554688 365.738281 394.808594 366.949219 395.40625 367.980469 L 351.332031 367.980469 C 348.289062 367.980469 345.828125 370.441406 345.828125 373.488281 L 345.828125 390.421875 C 345.828125 393.464844 348.289062 395.929688 351.332031 395.929688 L 463.015625 395.929688 C 466.058594 395.929688 468.523438 393.464844 468.523438 390.421875 L 468.523438 373.488281 C 468.523438 370.441406 466.058594 367.980469 463.015625 367.980469 Z M 463.003906 367.996094 " fill-opacity="1" fill-rule="nonzero"/><path fill="#c4a5ff" d="M 615.285156 515.898438 C 614.152344 509.726562 610.960938 504.660156 606.21875 501.632812 C 603.851562 500.117188 601.210938 499.125 598.617188 498.160156 C 595.75 497.082031 593.082031 496.089844 590.765625 494.410156 C 584.652344 489.953125 582.636719 481.851562 580.71875 474 L 580.027344 471.191406 C 572.890625 443.34375 554.550781 418.382812 529.648438 402.710938 C 529.070312 402.355469 528.46875 402.101562 527.832031 401.972656 C 542.984375 384.425781 561.546875 355.503906 561.847656 318.859375 C 562.429688 246.800781 494.753906 192.445312 431.734375 183.414062 C 371.636719 174.816406 294.269531 204.078125 269.238281 275.285156 C 253.101562 321.097656 267.691406 364.015625 278.875 387.097656 C 278.628906 387.097656 278.378906 387.097656 278.132812 387.125 C 253.289062 389.195312 230.351562 406.738281 222.390625 429.816406 C 221.238281 433.097656 220.378906 436.402344 219.46875 439.980469 C 217.457031 447.773438 215.554688 455.15625 210.769531 461.027344 C 204.511719 468.691406 195.015625 471.988281 184.929688 475.492188 C 183.167969 476.097656 181.382812 476.699219 179.640625 477.335938 C 164.101562 483.011719 154.988281 491.46875 153.230469 501.800781 C 153.03125 502.964844 152.957031 504.144531 152.957031 505.324219 C 153.042969 514.054688 158.546875 523.09375 167.304688 528.160156 C 174.882812 532.570312 184.6875 534.445312 197.246094 533.863281 C 219.058594 532.871094 240.269531 525.789062 258.664062 513.480469 C 259.046875 513.238281 259.402344 512.984375 259.769531 512.742188 C 260.179688 512.472656 260.507812 512.160156 260.816406 511.804688 C 262.71875 517.453125 264.152344 522.933594 263.597656 528.636719 C 262.960938 534.78125 260.105469 540.375 257.070312 546.292969 C 253.410156 553.433594 249.636719 560.8125 250.429688 568.988281 C 250.515625 569.898438 250.675781 570.777344 250.871094 571.632812 C 253.570312 583.667969 266.15625 591.21875 277.617188 591.714844 C 288.304688 592.210938 299.957031 587.769531 312.128906 578.628906 C 324.828125 569.046875 335.730469 556.558594 343.664062 542.539062 C 344.375 541.328125 344.570312 539.867188 344.214844 538.519531 C 347.410156 539.183594 350.632812 539.371094 353.722656 539.101562 C 357.328125 538.800781 360.746094 537.863281 363.800781 536.289062 C 371.648438 532.214844 376.359375 525.023438 381.675781 516.011719 L 409.960938 468.242188 C 414.585938 460.417969 418.605469 452.703125 417.171875 444.46875 C 417.144531 444.300781 417.117188 444.113281 417.058594 443.945312 C 415.410156 436.007812 408.246094 429.707031 400.117188 429.097656 C 392.792969 428.628906 386.210938 432.261719 380.207031 436.289062 C 376.246094 438.933594 372.414062 441.742188 368.695312 444.691406 C 368.5 443.316406 368.3125 441.9375 368.144531 440.5625 C 366.1875 426.34375 364.257812 412.160156 362.355469 397.972656 C 361.972656 395.246094 359.660156 393.203125 356.90625 393.203125 L 348.5625 393.203125 L 348.5625 370.75 L 391.828125 370.75 C 394.609375 370.75 396.953125 368.679688 397.308594 365.925781 L 401.027344 336.179688 C 401.082031 335.652344 401.082031 335.101562 400.996094 334.605469 C 402.957031 335.015625 404.988281 335.074219 407 334.71875 C 411.414062 333.921875 415.316406 331.027344 417.628906 327.140625 C 418.765625 330.53125 421.050781 333.445312 424.046875 335.289062 C 423.023438 336.113281 422.339844 337.273438 422.089844 338.539062 L 417.105469 364.183594 C 416.808594 365.785156 417.21875 367.464844 418.269531 368.726562 C 419.316406 369.992188 420.878906 370.742188 422.511719 370.742188 L 465.75 370.742188 L 465.75 393.195312 L 454.734375 393.195312 C 451.953125 393.195312 449.613281 395.234375 449.257812 397.988281 L 436.003906 500.21875 L 434.902344 508.761719 L 429.113281 508.761719 C 427.539062 508.761719 426.03125 509.453125 424.984375 510.636719 C 423.933594 511.816406 423.464844 513.390625 423.660156 514.960938 C 425.703125 531.214844 429.167969 543.617188 434.621094 554.023438 C 445.191406 574.214844 465.65625 589.53125 488.019531 594.019531 C 491.496094 594.710938 494.605469 595.039062 497.46875 595.039062 C 500.054688 595.039062 502.425781 594.765625 504.664062 594.1875 C 510.777344 592.613281 515.703125 588.679688 517.800781 583.667969 C 517.941406 583.339844 518.074219 582.972656 518.1875 582.617188 C 520.003906 577.25 518.953125 570.582031 515.132812 563.277344 C 514.253906 561.542969 513.261719 559.828125 512.265625 558.152344 C 509.839844 553.992188 507.558594 550.050781 506.460938 545.621094 C 504.832031 539.148438 505.9375 532.648438 507.667969 525.835938 C 507.835938 526.003906 507.996094 526.164062 508.195312 526.304688 C 508.886719 526.828125 509.542969 527.355469 510.234375 527.90625 C 511.5 528.898438 512.746094 529.894531 514.039062 530.941406 C 517.585938 533.835938 521.277344 536.832031 525.078125 539.429688 C 539.921875 549.5625 557.960938 554.5 575.839844 553.339844 C 584.707031 552.785156 600.984375 549.949219 610.378906 537.359375 C 611.53125 535.8125 612.523438 534.109375 613.300781 532.261719 C 614.875 528.683594 615.699219 524.65625 615.699219 520.667969 C 615.699219 519.066406 615.558594 517.472656 615.285156 515.898438 Z M 615.285156 515.898438 " fill-opacity="1" fill-rule="nonzero"/><path fill="#e5dfff" d="M 258.664062 513.472656 C 240.261719 525.789062 219.058594 532.863281 197.246094 533.855469 C 184.6875 534.4375 174.882812 532.5625 167.304688 528.152344 C 158.546875 523.082031 153.042969 514.042969 152.957031 505.316406 C 168.054688 514.738281 186.558594 518.617188 204.15625 515.890625 C 224.179688 512.808594 242.742188 501.183594 254.261719 484.484375 C 253.296875 494.234375 257.597656 503.796875 258.671875 513.464844 Z M 258.664062 513.472656 " fill-opacity="1" fill-rule="nonzero"/><path fill="#e5dfff" d="M 334.683594 533.9375 C 337.632812 533.96875 345.480469 534.351562 353.710938 539.089844 C 350.632812 539.363281 347.410156 539.175781 344.207031 538.511719 C 344.5625 539.859375 344.375 541.320312 343.652344 542.527344 C 335.722656 556.550781 324.8125 569.027344 312.121094 578.617188 C 299.945312 587.761719 288.296875 592.199219 277.609375 591.703125 C 266.15625 591.207031 253.570312 583.660156 250.863281 571.621094 C 258.824219 574.957031 267.578125 576.417969 276.203125 575.695312 C 291.816406 574.402344 302.289062 565.449219 314.105469 555.558594 C 319.640625 550.929688 327.132812 543.878906 334.683594 533.929688 Z M 334.683594 533.9375 " fill-opacity="1" fill-rule="nonzero"/><path fill="#e5dfff" d="M 417.058594 443.945312 C 415.824219 441.742188 414.222656 440.113281 412.265625 439.230469 C 406.871094 436.835938 401.136719 441.40625 381.226562 453.308594 C 364.042969 463.558594 349.769531 471.21875 340.542969 476.035156 C 349.496094 460.777344 359.105469 449.253906 368.144531 440.550781 C 368.3125 441.929688 368.5 443.304688 368.695312 444.683594 C 372.414062 441.734375 376.246094 438.921875 380.207031 436.28125 C 386.210938 432.261719 392.792969 428.621094 400.117188 429.085938 C 408.246094 429.695312 415.402344 436 417.058594 443.933594 Z M 417.058594 443.945312 " fill-opacity="1" fill-rule="nonzero"/><path fill="#e5dfff" d="M 474.046875 568.894531 C 486.691406 578.179688 502.667969 583.332031 518.195312 582.617188 C 518.082031 582.972656 517.953125 583.332031 517.8125 583.667969 C 515.714844 588.679688 510.789062 592.621094 504.671875 594.1875 C 502.441406 594.765625 500.074219 595.039062 497.480469 595.039062 C 494.613281 595.039062 491.503906 594.710938 488.03125 594.019531 C 465.664062 589.53125 445.203125 574.214844 434.628906 554.023438 C 429.179688 543.605469 425.703125 531.214844 423.671875 514.960938 C 423.476562 513.390625 423.941406 511.824219 424.992188 510.636719 C 426.039062 509.453125 427.546875 508.761719 429.121094 508.761719 L 434.910156 508.761719 L 436.015625 500.21875 C 436.625 504.050781 437.363281 507.851562 438.300781 511.628906 C 443.808594 533.910156 455.570312 555.285156 474.046875 568.894531 Z M 474.046875 568.894531 " fill-opacity="1" fill-rule="nonzero"/><path fill="#e5dfff" d="M 613.300781 532.261719 C 612.53125 534.109375 611.539062 535.8125 610.378906 537.359375 C 600.984375 549.945312 584.707031 552.785156 575.839844 553.339844 C 557.960938 554.5 539.921875 549.5625 525.078125 539.429688 C 521.277344 536.84375 517.585938 533.835938 514.039062 530.941406 C 512.746094 529.894531 511.5 528.898438 510.234375 527.90625 C 508.035156 517.332031 507.695312 506.363281 509.496094 495.675781 C 514.589844 504.246094 523.898438 516.835938 539.566406 525.976562 C 566.257812 541.546875 595.121094 537.574219 613.300781 532.261719 Z M 613.300781 532.261719 " fill-opacity="1" fill-rule="nonzero"/><path fill="#fdbbff" d="M 514.617188 332.121094 C 514.617188 333.015625 514.53125 333.902344 514.355469 334.777344 C 514.183594 335.65625 513.925781 336.503906 513.582031 337.332031 C 513.238281 338.15625 512.820312 338.941406 512.324219 339.683594 C 511.828125 340.425781 511.265625 341.113281 510.632812 341.746094 C 510 342.378906 509.3125 342.941406 508.570312 343.4375 C 507.828125 343.933594 507.042969 344.355469 506.21875 344.695312 C 505.390625 345.039062 504.542969 345.296875 503.664062 345.472656 C 502.789062 345.644531 501.902344 345.734375 501.011719 345.734375 C 500.117188 345.734375 499.230469 345.644531 498.355469 345.472656 C 497.480469 345.296875 496.628906 345.039062 495.800781 344.695312 C 494.976562 344.355469 494.191406 343.933594 493.449219 343.4375 C 492.707031 342.941406 492.019531 342.378906 491.386719 341.746094 C 490.757812 341.113281 490.191406 340.425781 489.695312 339.683594 C 489.199219 338.941406 488.78125 338.15625 488.4375 337.332031 C 488.097656 336.503906 487.839844 335.65625 487.664062 334.777344 C 487.488281 333.902344 487.402344 333.015625 487.402344 332.121094 C 487.402344 331.230469 487.488281 330.34375 487.664062 329.46875 C 487.839844 328.589844 488.097656 327.738281 488.4375 326.914062 C 488.78125 326.089844 489.199219 325.304688 489.695312 324.5625 C 490.191406 323.820312 490.757812 323.132812 491.386719 322.5 C 492.019531 321.867188 492.707031 321.304688 493.449219 320.804688 C 494.191406 320.308594 494.976562 319.890625 495.800781 319.546875 C 496.628906 319.207031 497.480469 318.949219 498.355469 318.773438 C 499.230469 318.601562 500.117188 318.511719 501.011719 318.511719 C 501.902344 318.511719 502.789062 318.601562 503.664062 318.773438 C 504.542969 318.949219 505.390625 319.207031 506.21875 319.546875 C 507.042969 319.890625 507.828125 320.308594 508.570312 320.804688 C 509.3125 321.304688 510 321.867188 510.632812 322.5 C 511.265625 323.132812 511.828125 323.820312 512.324219 324.5625 C 512.820312 325.304688 513.238281 326.089844 513.582031 326.914062 C 513.925781 327.738281 514.183594 328.589844 514.355469 329.46875 C 514.53125 330.34375 514.617188 331.230469 514.617188 332.121094 Z M 514.617188 332.121094 " fill-opacity="1" fill-rule="nonzero"/><path fill="#fdbbff" d="M 344.589844 332.121094 C 344.589844 333.015625 344.503906 333.902344 344.328125 334.777344 C 344.15625 335.65625 343.898438 336.503906 343.554688 337.332031 C 343.210938 338.15625 342.792969 338.941406 342.296875 339.683594 C 341.800781 340.425781 341.238281 341.113281 340.605469 341.746094 C 339.972656 342.378906 339.285156 342.941406 338.542969 343.4375 C 337.800781 343.933594 337.015625 344.355469 336.191406 344.695312 C 335.363281 345.039062 334.515625 345.296875 333.636719 345.472656 C 332.761719 345.644531 331.875 345.734375 330.984375 345.734375 C 330.089844 345.734375 329.203125 345.644531 328.328125 345.472656 C 327.453125 345.296875 326.601562 345.039062 325.773438 344.695312 C 324.949219 344.355469 324.164062 343.933594 323.421875 343.4375 C 322.679688 342.941406 321.992188 342.378906 321.359375 341.746094 C 320.730469 341.113281 320.164062 340.425781 319.667969 339.683594 C 319.171875 338.941406 318.753906 338.15625 318.410156 337.332031 C 318.070312 336.503906 317.8125 335.65625 317.636719 334.777344 C 317.460938 333.902344 317.375 333.015625 317.375 332.121094 C 317.375 331.230469 317.460938 330.34375 317.636719 329.46875 C 317.8125 328.589844 318.070312 327.738281 318.410156 326.914062 C 318.753906 326.089844 319.171875 325.304688 319.667969 324.5625 C 320.164062 323.820312 320.730469 323.132812 321.359375 322.5 C 321.992188 321.867188 322.679688 321.304688 323.421875 320.804688 C 324.164062 320.308594 324.949219 319.890625 325.773438 319.546875 C 326.601562 319.207031 327.453125 318.949219 328.328125 318.773438 C 329.203125 318.601562 330.089844 318.511719 330.984375 318.511719 C 331.875 318.511719 332.761719 318.601562 333.636719 318.773438 C 334.515625 318.949219 335.363281 319.207031 336.191406 319.546875 C 337.015625 319.890625 337.800781 320.308594 338.542969 320.804688 C 339.285156 321.304688 339.972656 321.867188 340.605469 322.5 C 341.238281 323.132812 341.800781 323.820312 342.296875 324.5625 C 342.792969 325.304688 343.210938 326.089844 343.554688 326.914062 C 343.898438 327.738281 344.15625 328.589844 344.328125 329.46875 C 344.503906 330.34375 344.589844 331.230469 344.589844 332.121094 Z M 344.589844 332.121094 " fill-opacity="1" fill-rule="nonzero"/><path fill="#220086" d="M 513.820312 418.578125 C 512.707031 418.578125 511.582031 418.128906 510.769531 417.230469 C 509.234375 415.542969 509.34375 412.929688 511.03125 411.394531 C 524.527344 399.058594 555.957031 365.328125 556.332031 318.804688 C 556.882812 249.722656 491.671875 197.558594 430.949219 188.859375 C 373.042969 180.566406 298.484375 208.660156 274.417969 277.09375 C 253.765625 335.804688 285.71875 389.746094 292.332031 399.964844 C 293.566406 401.878906 293.023438 404.445312 291.113281 405.679688 C 289.203125 406.917969 286.636719 406.375 285.402344 404.460938 C 278.414062 393.671875 244.699219 336.703125 266.625 274.347656 C 289.035156 210.636719 360.183594 170.339844 432.117188 180.679688 C 496.289062 189.878906 565.179688 245.332031 564.589844 318.867188 C 564.1875 368.652344 530.90625 404.425781 516.601562 417.5 C 515.816406 418.222656 514.816406 418.578125 513.8125 418.578125 Z M 513.820312 418.578125 " fill-opacity="1" fill-rule="nonzero"/><path fill="#220086" d="M 260.734375 508.753906 L 260.734375 506.878906 C 260.734375 506.289062 260.828125 505.726562 260.910156 505.15625 C 242.535156 519.007812 220.105469 527.28125 196.992188 528.355469 C 185.519531 528.882812 176.71875 527.269531 170.066406 523.402344 C 162.078125 518.765625 157.394531 510.261719 158.671875 502.71875 C 160.441406 492.285156 172.082031 485.972656 181.539062 482.515625 C 183.253906 481.886719 184.988281 481.289062 186.738281 480.679688 C 197.085938 477.09375 207.792969 473.382812 215.03125 464.511719 C 220.585938 457.695312 222.730469 449.386719 224.808594 441.339844 C 225.6875 437.929688 226.523438 434.707031 227.597656 431.597656 C 235.558594 408.554688 259.535156 391.996094 283.875 392.398438 C 282.078125 390.074219 280.523438 387.660156 279.097656 385.0625 C 278.96875 384.820312 278.910156 384.539062 278.828125 384.277344 C 252.867188 386.074219 228.3125 404.246094 219.789062 428.898438 C 218.609375 432.328125 217.691406 435.859375 216.808594 439.277344 C 214.871094 446.789062 213.046875 453.882812 208.625 459.296875 C 202.875 466.347656 193.722656 469.523438 184.03125 472.878906 C 182.242188 473.496094 180.453125 474.113281 178.703125 474.761719 C 162.183594 480.800781 152.441406 489.992188 150.511719 501.351562 C 148.675781 512.207031 155.007812 524.214844 165.910156 530.558594 C 173.027344 534.699219 181.886719 536.730469 192.882812 536.730469 C 194.34375 536.730469 195.832031 536.691406 197.367188 536.628906 C 221.003906 535.53125 243.960938 527.410156 263.132812 513.78125 C 261.6875 512.546875 260.722656 510.839844 260.722656 508.769531 Z M 260.734375 508.753906 " fill-opacity="1" fill-rule="nonzero"/><path fill="#220086" d="M 341.59375 534.765625 C 333.875 550.179688 322.65625 563.773438 308.804688 574.207031 C 297.71875 582.554688 287.273438 586.609375 277.871094 586.1875 C 268.121094 585.773438 256.96875 578.871094 255.929688 568.429688 C 255.273438 561.871094 258.542969 555.5 261.988281 548.765625 C 265.125 542.652344 268.367188 536.328125 269.078125 529.164062 C 269.902344 520.882812 267.214844 513.25 264.621094 505.867188 C 263.65625 503.132812 262.746094 500.554688 262.015625 497.953125 C 256.144531 477.242188 262.445312 453.113281 277.695312 437.921875 C 279.3125 436.308594 279.3125 433.695312 277.703125 432.074219 C 276.09375 430.457031 273.480469 430.457031 271.859375 432.066406 C 254.28125 449.589844 247.292969 476.332031 254.066406 500.210938 C 254.871094 503.066406 255.871094 505.886719 256.828125 508.613281 C 259.234375 515.441406 261.5 521.894531 260.863281 528.339844 C 260.300781 533.949219 257.550781 539.304688 254.636719 544.992188 C 250.796875 552.496094 246.816406 560.25 247.714844 569.234375 C 249.203125 584.285156 264.046875 593.867188 277.535156 594.441406 C 278.070312 594.457031 278.613281 594.46875 279.15625 594.46875 C 290.09375 594.46875 301.734375 589.867188 313.796875 580.792969 C 328.894531 569.421875 341.078125 554.546875 349.367188 537.6875 C 346.042969 538.621094 343.28125 537.160156 341.613281 534.746094 Z M 341.59375 534.765625 " fill-opacity="1" fill-rule="nonzero"/><path fill="#220086" d="M 351.070312 542.023438 C 346.59375 542.023438 341.976562 541.132812 337.472656 539.351562 C 329.941406 536.367188 322.984375 531.128906 316.195312 523.34375 C 293.335938 497.101562 287.660156 456.746094 302.390625 425.21875 C 303.355469 423.148438 305.816406 422.257812 307.878906 423.222656 C 309.949219 424.1875 310.835938 426.652344 309.875 428.714844 C 296.480469 457.375 301.640625 494.054688 322.421875 517.914062 C 328.324219 524.683594 334.242188 529.179688 340.515625 531.671875 C 347.679688 534.519531 355.4375 534.417969 361.25 531.402344 C 367.808594 528 372.050781 521.445312 376.929688 513.210938 L 405.203125 465.449219 C 409.285156 458.535156 412.863281 451.8125 411.730469 445.421875 C 410.738281 439.773438 405.472656 435.027344 399.753906 434.625 C 394.078125 434.25 388.496094 437.40625 383.269531 440.898438 C 368.117188 451.015625 354.769531 463.453125 343.605469 477.859375 C 342.203125 479.667969 339.609375 479.988281 337.808594 478.589844 C 336.003906 477.195312 335.675781 474.601562 337.078125 472.792969 C 348.785156 457.683594 362.789062 444.636719 378.679688 434.023438 C 384.816406 429.921875 392.15625 425.78125 400.34375 426.378906 C 409.828125 427.054688 418.222656 434.625 419.867188 443.988281 C 421.621094 453.917969 416.019531 463.390625 412.3125 469.65625 L 384.039062 517.425781 C 379.671875 524.808594 374.230469 533.996094 365.054688 538.746094 C 360.828125 540.925781 356.035156 542.03125 351.070312 542.03125 Z M 351.070312 542.023438 " fill-opacity="1" fill-rule="nonzero"/><g clip-path="url(#21c83f9a20)"><path fill="#220086" d="M 517.585938 561.992188 C 516.667969 560.230469 515.667969 558.5 514.664062 556.777344 C 512.34375 552.777344 510.152344 549 509.140625 544.953125 C 507.285156 537.515625 509.449219 529.667969 511.734375 521.359375 C 512.539062 518.4375 513.371094 515.402344 514.019531 512.386719 C 518.617188 490.984375 513.632812 467.667969 500.671875 450.023438 C 499.324219 448.175781 496.738281 447.792969 494.894531 449.140625 C 493.058594 450.492188 492.65625 453.074219 494.015625 454.921875 C 505.597656 470.695312 510.058594 491.527344 505.9375 510.652344 C 505.335938 513.445312 504.570312 516.226562 503.761719 519.175781 C 501.292969 528.152344 498.742188 537.425781 501.121094 546.96875 C 502.414062 552.15625 505.007812 556.617188 507.519531 560.933594 C 508.464844 562.554688 509.402344 564.175781 510.261719 565.824219 C 512.558594 570.226562 514.851562 576.519531 512.746094 581.542969 C 511.320312 584.921875 507.707031 587.734375 503.324219 588.867188 C 499.445312 589.867188 494.941406 589.785156 489.125 588.621094 C 468.363281 584.472656 449.359375 570.246094 439.535156 551.484375 C 432.660156 538.351562 429.972656 523.207031 428.496094 508.488281 C 427.792969 509.015625 427.042969 509.519531 426.171875 509.980469 C 424.335938 510.945312 422.238281 510.820312 420.347656 510.074219 C 421.921875 525.351562 424.804688 541.171875 432.210938 555.324219 C 443.339844 576.558594 464.007812 592.03125 487.503906 596.734375 C 491.167969 597.464844 494.453125 597.832031 497.488281 597.832031 C 500.316406 597.832031 502.910156 597.511719 505.382812 596.875 C 512.332031 595.085938 517.933594 590.550781 520.367188 584.746094 C 523.054688 578.339844 522.128906 570.695312 517.597656 562.011719 Z M 517.585938 561.992188 " fill-opacity="1" fill-rule="nonzero"/></g><path fill="#220086" d="M 617.992188 515.410156 C 616.738281 508.488281 613.09375 502.777344 607.726562 499.320312 C 605.085938 497.613281 602.285156 496.574219 599.582031 495.5625 C 596.910156 494.570312 594.390625 493.632812 592.398438 492.171875 C 587.085938 488.304688 585.214844 480.699219 583.40625 473.34375 L 582.695312 470.515625 C 575.109375 440.851562 555.199219 414.773438 529.011719 399.046875 C 527.890625 401.691406 525.929688 403.890625 523.523438 405.398438 C 548.484375 419.925781 567.523438 444.515625 574.6875 472.558594 L 575.371094 475.320312 C 577.429688 483.707031 579.773438 493.210938 587.527344 498.851562 C 590.441406 500.96875 593.613281 502.15625 596.6875 503.300781 C 599.09375 504.199219 601.359375 505.042969 603.25 506.261719 C 606.667969 508.460938 609.011719 512.226562 609.855469 516.875 C 610.929688 522.800781 609.433594 529.386719 605.957031 534.050781 C 597.894531 544.859375 583.414062 547.324219 575.492188 547.839844 C 558.777344 548.917969 542.003906 544.300781 528.1875 534.875 C 524.527344 532.382812 520.921875 529.445312 517.425781 526.605469 C 513.839844 523.683594 510.1875 520.742188 506.328125 518.101562 C 506.273438 519.054688 506.199219 520.011719 506.125 520.949219 C 506.09375 521.3125 506.03125 521.726562 505.957031 522.15625 C 505.832031 523.953125 505.617188 525.742188 505.300781 527.53125 C 507.601562 529.273438 509.886719 531.121094 512.210938 533.011719 C 515.835938 535.960938 519.582031 539.007812 523.535156 541.703125 C 537.402344 551.175781 554 556.25 570.753906 556.25 C 572.515625 556.25 574.265625 556.195312 576.027344 556.082031 C 585.363281 555.484375 602.53125 552.46875 612.578125 538.988281 C 617.457031 532.449219 619.472656 523.625 617.984375 515.394531 Z M 617.992188 515.410156 " fill-opacity="1" fill-rule="nonzero"/><path fill="#220086" d="M 467.136719 398.710938 L 347.183594 398.710938 C 344.898438 398.710938 343.054688 396.855469 343.054688 394.582031 L 343.054688 369.375 C 343.054688 367.089844 344.910156 365.242188 347.183594 365.242188 L 467.136719 365.242188 C 469.421875 365.242188 471.265625 367.097656 471.265625 369.375 L 471.265625 394.582031 C 471.265625 396.867188 469.410156 398.710938 467.136719 398.710938 Z M 351.324219 390.449219 L 463.003906 390.449219 L 463.003906 373.515625 L 351.324219 373.515625 Z M 351.324219 390.449219 " fill-opacity="1" fill-rule="nonzero"/><path fill="#220086" d="M 364.296875 453.121094 C 365.261719 451.304688 366.382812 449.582031 367.769531 448.121094 C 368.914062 446.914062 370.222656 446.042969 371.601562 445.515625 C 369.304688 428.769531 367.03125 412.019531 364.761719 395.273438 L 358.019531 395.273438 C 357.449219 395.273438 356.925781 395.207031 356.398438 395.113281 C 358.789062 412.808594 361.203125 430.503906 363.621094 448.195312 C 363.84375 449.835938 364.070312 451.484375 364.296875 453.121094 Z M 364.296875 453.121094 " fill-opacity="1" fill-rule="nonzero"/><path fill="#220086" d="M 446.839844 395.28125 L 432.492188 506.027344 L 386.566406 506.027344 C 386.285156 507.179688 385.667969 508.347656 384.597656 509.464844 C 383.015625 511.121094 381.582031 512.910156 379.972656 514.289062 L 436.128906 514.289062 C 438.207031 514.289062 439.957031 512.742188 440.21875 510.683594 L 455.175781 395.273438 L 446.851562 395.273438 Z M 446.839844 395.28125 " fill-opacity="1" fill-rule="nonzero"/><path fill="#220086" d="M 431.230469 340.09375 C 429.429688 340.09375 427.640625 339.8125 425.929688 339.230469 C 422.292969 337.984375 419.230469 335.429688 417.144531 332.234375 C 414.53125 334.867188 411.179688 336.757812 407.496094 337.441406 C 399.433594 338.941406 390.769531 334.4375 387.34375 326.988281 C 386.386719 324.917969 387.296875 322.464844 389.367188 321.511719 C 391.4375 320.546875 393.890625 321.464844 394.84375 323.535156 C 396.707031 327.578125 401.617188 330.117188 406 329.3125 C 409.988281 328.582031 413.378906 325.105469 414.183594 321.136719 C 414.230469 320.5625 414.304688 320.003906 414.410156 319.441406 C 414.8125 317.285156 416.835938 315.84375 418.988281 316.105469 C 421.152344 316.378906 422.734375 318.296875 422.59375 320.480469 C 422.558594 321.042969 422.492188 321.59375 422.398438 322.148438 C 422.246094 326.070312 424.890625 330.136719 428.605469 331.410156 C 432.707031 332.816406 437.832031 330.746094 439.808594 326.886719 C 440.847656 324.855469 443.339844 324.058594 445.371094 325.097656 C 447.402344 326.136719 448.199219 328.628906 447.160156 330.660156 C 444.171875 336.476562 437.691406 340.09375 431.230469 340.09375 Z M 431.230469 340.09375 " fill-opacity="1" fill-rule="nonzero"/><path fill="#220086" d="M 399.507812 370.414062 L 404.089844 333.957031 C 403.132812 334.25 402.160156 334.324219 401.148438 334.136719 C 400.933594 334.082031 400.707031 334.0625 400.484375 334.050781 C 399.6875 333.96875 398.910156 333.789062 398.140625 333.472656 C 397.53125 333.117188 396.925781 332.757812 396.316406 332.402344 C 396.195312 332.308594 396.109375 332.179688 395.988281 332.074219 L 391.171875 370.40625 L 399.5 370.40625 Z M 399.507812 370.414062 " fill-opacity="1" fill-rule="nonzero"/><path fill="#220086" d="M 421.515625 370.414062 L 428.277344 335.578125 L 428.25 335.578125 C 426.808594 335.738281 425.414062 335.542969 424.074219 334.96875 C 423.464844 334.613281 422.855469 334.257812 422.246094 333.902344 C 421.5625 333.367188 421.011719 332.730469 420.542969 332.046875 L 413.097656 370.40625 L 421.515625 370.40625 Z M 421.515625 370.414062 " fill-opacity="1" fill-rule="nonzero"/><path fill="#220086" d="M 484.5 305.277344 C 484.5 306.320312 484.429688 307.355469 484.289062 308.378906 C 484.148438 309.402344 483.941406 310.394531 483.667969 311.359375 C 483.390625 312.324219 483.054688 313.242188 482.65625 314.109375 C 482.257812 314.976562 481.804688 315.777344 481.296875 316.515625 C 480.789062 317.253906 480.234375 317.914062 479.636719 318.492188 C 479.039062 319.074219 478.410156 319.5625 477.746094 319.964844 C 477.082031 320.363281 476.398438 320.664062 475.695312 320.867188 C 474.988281 321.070312 474.277344 321.171875 473.558594 321.171875 C 472.84375 321.171875 472.128906 321.070312 471.425781 320.867188 C 470.722656 320.664062 470.039062 320.363281 469.375 319.964844 C 468.710938 319.5625 468.082031 319.074219 467.484375 318.492188 C 466.886719 317.914062 466.332031 317.253906 465.824219 316.515625 C 465.316406 315.777344 464.863281 314.976562 464.464844 314.109375 C 464.066406 313.242188 463.730469 312.324219 463.453125 311.359375 C 463.179688 310.394531 462.972656 309.402344 462.832031 308.378906 C 462.691406 307.355469 462.621094 306.320312 462.621094 305.277344 C 462.621094 304.234375 462.691406 303.199219 462.832031 302.175781 C 462.972656 301.152344 463.179688 300.160156 463.453125 299.195312 C 463.730469 298.230469 464.066406 297.3125 464.464844 296.445312 C 464.863281 295.578125 465.316406 294.777344 465.824219 294.039062 C 466.332031 293.300781 466.886719 292.640625 467.484375 292.0625 C 468.082031 291.480469 468.710938 290.992188 469.375 290.59375 C 470.039062 290.191406 470.722656 289.890625 471.425781 289.6875 C 472.128906 289.484375 472.84375 289.382812 473.558594 289.382812 C 474.277344 289.382812 474.988281 289.484375 475.695312 289.6875 C 476.398438 289.890625 477.082031 290.191406 477.746094 290.59375 C 478.410156 290.992188 479.039062 291.480469 479.636719 292.0625 C 480.234375 292.640625 480.789062 293.300781 481.296875 294.039062 C 481.804688 294.777344 482.257812 295.578125 482.65625 296.445312 C 483.054688 297.3125 483.390625 298.230469 483.667969 299.195312 C 483.941406 300.160156 484.148438 301.152344 484.289062 302.175781 C 484.429688 303.199219 484.5 304.234375 484.5 305.277344 Z M 484.5 305.277344 " fill-opacity="1" fill-rule="nonzero"/><path fill="#220086" d="M 369.371094 305.277344 C 369.371094 306.320312 369.300781 307.355469 369.160156 308.378906 C 369.019531 309.402344 368.8125 310.394531 368.539062 311.359375 C 368.261719 312.324219 367.925781 313.242188 367.527344 314.109375 C 367.128906 314.976562 366.675781 315.777344 366.167969 316.515625 C 365.660156 317.253906 365.105469 317.914062 364.507812 318.492188 C 363.914062 319.074219 363.28125 319.5625 362.617188 319.964844 C 361.953125 320.363281 361.269531 320.664062 360.566406 320.867188 C 359.863281 321.070312 359.152344 321.171875 358.433594 321.171875 C 357.714844 321.171875 357.003906 321.070312 356.296875 320.867188 C 355.59375 320.664062 354.910156 320.363281 354.246094 319.964844 C 353.582031 319.5625 352.953125 319.074219 352.355469 318.492188 C 351.757812 317.914062 351.207031 317.253906 350.699219 316.515625 C 350.191406 315.777344 349.734375 314.976562 349.335938 314.109375 C 348.9375 313.242188 348.601562 312.324219 348.328125 311.359375 C 348.050781 310.394531 347.84375 309.402344 347.703125 308.378906 C 347.5625 307.355469 347.492188 306.320312 347.492188 305.277344 C 347.492188 304.234375 347.5625 303.199219 347.703125 302.175781 C 347.84375 301.152344 348.050781 300.160156 348.328125 299.195312 C 348.601562 298.230469 348.9375 297.3125 349.335938 296.445312 C 349.734375 295.578125 350.191406 294.777344 350.699219 294.039062 C 351.207031 293.300781 351.757812 292.640625 352.355469 292.0625 C 352.953125 291.480469 353.582031 290.992188 354.246094 290.59375 C 354.910156 290.191406 355.59375 289.890625 356.296875 289.6875 C 357.003906 289.484375 357.714844 289.382812 358.433594 289.382812 C 359.152344 289.382812 359.863281 289.484375 360.566406 289.6875 C 361.269531 289.890625 361.953125 290.191406 362.617188 290.59375 C 363.28125 290.992188 363.914062 291.480469 364.507812 292.0625 C 365.105469 292.640625 365.660156 293.300781 366.167969 294.039062 C 366.675781 294.777344 367.128906 295.578125 367.527344 296.445312 C 367.925781 297.3125 368.261719 298.230469 368.539062 299.195312 C 368.8125 300.160156 369.019531 301.152344 369.160156 302.175781 C 369.300781 303.199219 369.371094 304.234375 369.371094 305.277344 Z M 369.371094 305.277344 " fill-opacity="1" fill-rule="nonzero"/></svg>