<svg xmlns="http://www.w3.org/2000/svg" xmlns:xlink="http://www.w3.org/1999/xlink" width="1024" zoomAndPan="magnify" viewBox="0 0 768 767.999994" height="1024" preserveAspectRatio="xMidYMid meet" version="1.0"><defs><clipPath id="6a2bb5a3dc"><path d="M 306 437 L 420 437 L 420 596.605469 L 306 596.605469 Z M 306 437 " clip-rule="nonzero"/></clipPath></defs><path fill="#c4a5ff" d="M 609.890625 470.460938 C 609.890625 501.765625 595.917969 530.050781 573.589844 543.234375 C 560.589844 550.917969 544.121094 554.363281 524.664062 553.390625 C 507.113281 552.511719 489.050781 548.015625 472.40625 540.355469 C 471.21875 539.816406 470.246094 538.84375 469.679688 537.710938 C 469.53125 537.398438 469.394531 537.085938 469.3125 536.765625 C 467.921875 538.019531 466.4375 539.183594 464.871094 540.238281 C 462.308594 541.976562 459.636719 543.371094 456.824219 544.816406 C 452.046875 547.289062 447.550781 549.597656 444.191406 553.328125 C 440.921875 556.945312 439.074219 561.441406 437.078125 566.222656 L 436.335938 568.046875 C 434 573.625 431.15625 579.230469 426.238281 582.757812 C 424.242188 584.175781 421.796875 585.175781 419.296875 585.515625 C 417.421875 585.796875 415.488281 585.082031 414.234375 583.664062 C 414.179688 583.609375 414.152344 583.582031 414.089844 583.515625 C 413.832031 584.058594 413.523438 584.570312 413.210938 585.082031 C 410.132812 590.039062 404.046875 593.738281 397.96875 593.738281 C 395.578125 593.738281 393.160156 593.171875 390.972656 591.863281 C 387.53125 589.835938 385.34375 586.566406 383.210938 583.378906 C 382.183594 581.867188 381.160156 580.339844 379.996094 579 C 375.472656 573.625 369.046875 570.628906 362.242188 567.507812 C 360.191406 566.5625 358.261719 565.65625 356.382812 564.683594 C 345.546875 559.1875 335.960938 551.285156 328.359375 541.804688 C 324.550781 537.078125 321.246094 531.984375 318.492188 526.609375 C 318.125 527.148438 317.640625 527.660156 317.074219 528.054688 C 295.257812 543.113281 268.972656 552.109375 243.054688 553.382812 C 223.625 554.351562 207.128906 550.9375 194.128906 543.222656 C 170.800781 529.449219 156.609375 499.21875 157.917969 466.265625 C 158.121094 460.996094 158.769531 454.933594 161.847656 449.988281 C 163.101562 447.992188 164.886719 446.148438 166.992188 444.804688 C 169.976562 442.898438 173.566406 441.953125 177.144531 442.925781 C 182.832031 444.519531 185.878906 449.988281 188.582031 454.824219 C 189.292969 456.078125 189.972656 457.359375 190.714844 458.523438 C 198.449219 470.933594 214.808594 477.449219 230.429688 474.40625 C 244.5625 471.648438 257.738281 461.484375 265.675781 447.203125 C 268.835938 441.515625 271.25 434.9375 272.871094 427.683594 C 273.328125 425.660156 274.832031 424.039062 276.828125 423.46875 C 276.910156 423.441406 276.972656 423.441406 277.027344 423.414062 C 252.335938 397.0625 238.054688 362.484375 237.203125 325.855469 C 236.261719 286.375 250.742188 248.921875 278 220.355469 C 305.253906 191.8125 341.972656 175.554688 381.433594 174.648438 C 420.890625 173.703125 458.234375 188.195312 486.828125 215.488281 C 515.417969 242.785156 531.660156 279.523438 532.566406 318.941406 C 533.507812 358.984375 518.621094 396.75 491.203125 425.035156 L 491.257812 425.035156 C 493.21875 425.605469 494.726562 427.199219 495.214844 429.167969 C 496.832031 435.855469 499.140625 441.917969 502.070312 447.210938 C 509.980469 461.5 523.144531 471.660156 537.316406 474.417969 C 552.964844 477.492188 569.285156 470.945312 577.03125 458.535156 C 577.773438 457.371094 578.453125 456.085938 579.164062 454.832031 C 581.867188 449.996094 584.914062 444.527344 590.601562 442.933594 C 597 441.167969 603.003906 445.378906 605.878906 449.996094 C 607.390625 452.441406 608.351562 455.144531 608.917969 457.910156 C 609.515625 460.730469 609.714844 463.597656 609.824219 466.28125 C 609.878906 467.675781 609.910156 469.066406 609.910156 470.46875 Z M 609.890625 470.460938 " fill-opacity="1" fill-rule="nonzero"/><path fill="#e5dfff" d="M 328.351562 541.804688 C 324.542969 537.078125 321.238281 531.984375 318.480469 526.609375 C 318.117188 527.148438 317.632812 527.660156 317.0625 528.054688 C 295.246094 543.113281 268.960938 552.109375 243.042969 553.382812 C 223.617188 554.351562 207.121094 550.9375 194.121094 543.222656 C 170.792969 529.449219 156.601562 499.21875 157.910156 466.265625 C 158.113281 460.996094 158.761719 454.933594 161.839844 449.988281 C 163.09375 447.992188 164.878906 446.148438 166.984375 444.804688 C 174.921875 476.164062 187.464844 504.257812 220.945312 515.296875 C 251.4375 525.316406 287.738281 513.875 306.964844 488.175781 C 305.289062 499.074219 312.625 509.039062 318.96875 518.0625 C 323.949219 525.058594 328.636719 533.605469 328.351562 541.792969 Z M 328.351562 541.804688 " fill-opacity="1" fill-rule="nonzero"/><path fill="#e5dfff" d="M 609.890625 470.460938 C 609.890625 501.765625 595.917969 530.050781 573.589844 543.234375 C 560.589844 550.917969 544.121094 554.363281 524.664062 553.390625 C 507.113281 552.511719 489.050781 548.015625 472.40625 540.355469 C 471.21875 539.816406 470.246094 538.84375 469.679688 537.710938 C 469.734375 537.601562 469.824219 537.480469 469.90625 537.371094 C 473.945312 531.535156 477.160156 525.269531 479.238281 518.472656 C 480.007812 515.9375 484.582031 499.660156 482.019531 497.929688 C 494.765625 506.546875 509.019531 513.242188 524.152344 515.972656 C 539.3125 518.703125 555.417969 517.285156 569.242188 510.449219 C 583.039062 503.644531 594.269531 491.152344 598.144531 476.265625 C 599.085938 472.675781 599.628906 468.949219 601.046875 465.539062 C 602.492188 462.125 605.109375 458.9375 608.671875 457.964844 C 608.753906 457.9375 608.820312 457.9375 608.902344 457.910156 C 609.496094 460.730469 609.699219 463.597656 609.808594 466.28125 C 609.863281 467.675781 609.890625 469.066406 609.890625 470.46875 Z M 609.890625 470.460938 " fill-opacity="1" fill-rule="nonzero"/><path fill="#fdbbff" d="M 300.117188 370.296875 C 300.117188 370.832031 300.089844 371.367188 300.039062 371.898438 C 299.984375 372.433594 299.90625 372.960938 299.804688 373.484375 C 299.699219 374.011719 299.570312 374.527344 299.414062 375.042969 C 299.257812 375.554688 299.078125 376.058594 298.875 376.550781 C 298.667969 377.046875 298.441406 377.527344 298.1875 378 C 297.9375 378.472656 297.660156 378.929688 297.363281 379.375 C 297.066406 379.820312 296.75 380.25 296.410156 380.664062 C 296.070312 381.078125 295.710938 381.472656 295.332031 381.851562 C 294.957031 382.230469 294.558594 382.589844 294.144531 382.929688 C 293.730469 383.269531 293.304688 383.585938 292.859375 383.886719 C 292.414062 384.183594 291.957031 384.457031 291.484375 384.710938 C 291.011719 384.960938 290.527344 385.191406 290.035156 385.394531 C 289.539062 385.601562 289.039062 385.78125 288.527344 385.933594 C 288.015625 386.089844 287.496094 386.21875 286.972656 386.324219 C 286.445312 386.429688 285.917969 386.507812 285.386719 386.558594 C 284.851562 386.613281 284.320312 386.640625 283.785156 386.640625 C 283.25 386.640625 282.714844 386.613281 282.183594 386.558594 C 281.652344 386.507812 281.121094 386.429688 280.597656 386.324219 C 280.074219 386.21875 279.554688 386.089844 279.042969 385.933594 C 278.53125 385.78125 278.027344 385.601562 277.535156 385.394531 C 277.039062 385.191406 276.558594 384.960938 276.085938 384.710938 C 275.613281 384.457031 275.15625 384.183594 274.710938 383.886719 C 274.265625 383.585938 273.835938 383.269531 273.421875 382.929688 C 273.007812 382.589844 272.613281 382.230469 272.234375 381.851562 C 271.855469 381.472656 271.5 381.078125 271.160156 380.664062 C 270.820312 380.25 270.5 379.820312 270.203125 379.375 C 269.90625 378.929688 269.632812 378.472656 269.378906 378 C 269.128906 377.527344 268.898438 377.046875 268.695312 376.550781 C 268.492188 376.058594 268.308594 375.554688 268.15625 375.042969 C 268 374.527344 267.871094 374.011719 267.765625 373.484375 C 267.660156 372.960938 267.582031 372.433594 267.53125 371.898438 C 267.476562 371.367188 267.453125 370.832031 267.453125 370.296875 C 267.453125 369.761719 267.476562 369.230469 267.53125 368.695312 C 267.582031 368.164062 267.660156 367.636719 267.765625 367.109375 C 267.871094 366.585938 268 366.066406 268.15625 365.554688 C 268.308594 365.042969 268.492188 364.539062 268.695312 364.042969 C 268.898438 363.550781 269.128906 363.066406 269.378906 362.59375 C 269.632812 362.121094 269.90625 361.664062 270.203125 361.21875 C 270.5 360.773438 270.820312 360.34375 271.160156 359.929688 C 271.5 359.519531 271.855469 359.121094 272.234375 358.742188 C 272.613281 358.363281 273.007812 358.003906 273.421875 357.667969 C 273.835938 357.328125 274.265625 357.007812 274.710938 356.710938 C 275.15625 356.414062 275.613281 356.140625 276.085938 355.886719 C 276.558594 355.632812 277.039062 355.40625 277.535156 355.199219 C 278.027344 354.996094 278.53125 354.816406 279.042969 354.660156 C 279.554688 354.503906 280.074219 354.375 280.597656 354.269531 C 281.121094 354.167969 281.652344 354.089844 282.183594 354.035156 C 282.714844 353.984375 283.25 353.957031 283.785156 353.957031 C 284.320312 353.957031 284.851562 353.984375 285.386719 354.035156 C 285.917969 354.089844 286.445312 354.167969 286.972656 354.269531 C 287.496094 354.375 288.015625 354.503906 288.527344 354.660156 C 289.039062 354.816406 289.539062 354.996094 290.035156 355.199219 C 290.527344 355.40625 291.011719 355.632812 291.484375 355.886719 C 291.957031 356.140625 292.414062 356.414062 292.859375 356.710938 C 293.304688 357.007812 293.730469 357.328125 294.144531 357.667969 C 294.558594 358.003906 294.957031 358.363281 295.332031 358.742188 C 295.710938 359.121094 296.070312 359.519531 296.410156 359.929688 C 296.75 360.34375 297.066406 360.773438 297.363281 361.21875 C 297.660156 361.664062 297.9375 362.121094 298.1875 362.59375 C 298.441406 363.066406 298.667969 363.550781 298.875 364.042969 C 299.078125 364.539062 299.257812 365.042969 299.414062 365.554688 C 299.570312 366.066406 299.699219 366.585938 299.804688 367.109375 C 299.90625 367.636719 299.984375 368.164062 300.039062 368.695312 C 300.089844 369.230469 300.117188 369.761719 300.117188 370.296875 Z M 300.117188 370.296875 " fill-opacity="1" fill-rule="nonzero"/><path fill="#fdbbff" d="M 502.480469 370.296875 C 502.480469 370.832031 502.457031 371.367188 502.402344 371.898438 C 502.351562 372.433594 502.273438 372.960938 502.167969 373.484375 C 502.0625 374.011719 501.933594 374.527344 501.777344 375.042969 C 501.625 375.554688 501.445312 376.058594 501.238281 376.550781 C 501.035156 377.046875 500.804688 377.527344 500.554688 378 C 500.300781 378.472656 500.027344 378.929688 499.730469 379.375 C 499.433594 379.820312 499.113281 380.25 498.773438 380.664062 C 498.433594 381.078125 498.078125 381.472656 497.699219 381.851562 C 497.320312 382.230469 496.925781 382.589844 496.511719 382.929688 C 496.097656 383.269531 495.667969 383.585938 495.222656 383.886719 C 494.777344 384.183594 494.320312 384.457031 493.847656 384.710938 C 493.375 384.960938 492.894531 385.191406 492.398438 385.394531 C 491.90625 385.601562 491.402344 385.78125 490.890625 385.933594 C 490.378906 386.089844 489.859375 386.21875 489.335938 386.324219 C 488.8125 386.429688 488.28125 386.507812 487.75 386.558594 C 487.21875 386.613281 486.683594 386.640625 486.148438 386.640625 C 485.613281 386.640625 485.082031 386.613281 484.546875 386.558594 C 484.015625 386.507812 483.488281 386.429688 482.964844 386.324219 C 482.4375 386.21875 481.921875 386.089844 481.40625 385.933594 C 480.894531 385.78125 480.394531 385.601562 479.898438 385.394531 C 479.40625 385.191406 478.921875 384.960938 478.449219 384.710938 C 477.976562 384.457031 477.519531 384.183594 477.074219 383.886719 C 476.628906 383.585938 476.203125 383.269531 475.789062 382.929688 C 475.375 382.589844 474.980469 382.230469 474.601562 381.851562 C 474.222656 381.472656 473.863281 381.078125 473.523438 380.664062 C 473.183594 380.25 472.867188 379.820312 472.570312 379.375 C 472.273438 378.929688 471.996094 378.472656 471.746094 378 C 471.492188 377.527344 471.265625 377.046875 471.058594 376.550781 C 470.855469 376.058594 470.675781 375.554688 470.519531 375.042969 C 470.363281 374.527344 470.234375 374.011719 470.128906 373.484375 C 470.027344 372.960938 469.949219 372.433594 469.894531 371.898438 C 469.84375 371.367188 469.816406 370.832031 469.816406 370.296875 C 469.816406 369.761719 469.84375 369.230469 469.894531 368.695312 C 469.949219 368.164062 470.027344 367.636719 470.128906 367.109375 C 470.234375 366.585938 470.363281 366.066406 470.519531 365.554688 C 470.675781 365.042969 470.855469 364.539062 471.058594 364.042969 C 471.265625 363.550781 471.492188 363.066406 471.746094 362.59375 C 471.996094 362.121094 472.273438 361.664062 472.570312 361.21875 C 472.867188 360.773438 473.183594 360.34375 473.523438 359.929688 C 473.863281 359.519531 474.222656 359.121094 474.601562 358.742188 C 474.980469 358.363281 475.375 358.003906 475.789062 357.667969 C 476.203125 357.328125 476.628906 357.007812 477.074219 356.710938 C 477.519531 356.414062 477.976562 356.140625 478.449219 355.886719 C 478.921875 355.632812 479.40625 355.40625 479.898438 355.199219 C 480.394531 354.996094 480.894531 354.816406 481.40625 354.660156 C 481.921875 354.503906 482.4375 354.375 482.964844 354.269531 C 483.488281 354.167969 484.015625 354.089844 484.546875 354.035156 C 485.082031 353.984375 485.613281 353.957031 486.148438 353.957031 C 486.683594 353.957031 487.21875 353.984375 487.75 354.035156 C 488.28125 354.089844 488.8125 354.167969 489.335938 354.269531 C 489.859375 354.375 490.378906 354.503906 490.890625 354.660156 C 491.402344 354.816406 491.90625 354.996094 492.398438 355.199219 C 492.894531 355.40625 493.375 355.632812 493.847656 355.886719 C 494.320312 356.140625 494.777344 356.414062 495.222656 356.710938 C 495.667969 357.007812 496.097656 357.328125 496.511719 357.667969 C 496.925781 358.003906 497.320312 358.363281 497.699219 358.742188 C 498.078125 359.121094 498.433594 359.519531 498.773438 359.929688 C 499.113281 360.34375 499.433594 360.773438 499.730469 361.21875 C 500.027344 361.664062 500.300781 362.121094 500.554688 362.59375 C 500.804688 363.066406 501.035156 363.550781 501.238281 364.042969 C 501.445312 364.539062 501.625 365.042969 501.777344 365.554688 C 501.933594 366.066406 502.0625 366.585938 502.167969 367.109375 C 502.273438 367.636719 502.351562 368.164062 502.402344 368.695312 C 502.457031 369.230469 502.480469 369.761719 502.480469 370.296875 Z M 502.480469 370.296875 " fill-opacity="1" fill-rule="nonzero"/><path fill="#220086" d="M 476.519531 440.761719 C 475.273438 440.761719 474.039062 440.222656 473.1875 439.167969 C 471.710938 437.335938 471.996094 434.644531 473.835938 433.171875 C 508.570312 405.195312 527.898438 363.601562 526.851562 319.058594 C 525.011719 240.714844 459.820312 178.449219 381.523438 180.316406 C 343.59375 181.207031 308.285156 196.824219 282.089844 224.285156 C 255.898438 251.742188 241.964844 287.769531 242.851562 325.71875 C 243.832031 367.585938 263.09375 406.707031 295.703125 433.03125 C 297.535156 434.515625 297.828125 437.199219 296.34375 439.03125 C 294.863281 440.863281 292.179688 441.148438 290.347656 439.671875 C 255.777344 411.765625 235.363281 370.308594 234.320312 325.917969 C 233.375 285.691406 248.144531 247.503906 275.910156 218.382812 C 303.679688 189.273438 341.113281 172.714844 381.324219 171.78125 C 464.414062 169.882812 533.445312 235.816406 535.386719 318.855469 C 536.492188 366.074219 516.003906 410.171875 479.183594 439.820312 C 478.394531 440.453125 477.453125 440.761719 476.507812 440.761719 Z M 476.519531 440.761719 " fill-opacity="1" fill-rule="nonzero"/><path fill="#220086" d="M 320.101562 527.753906 C 318.785156 526.023438 318.078125 523.492188 318.4375 521.332031 C 318.519531 520.847656 318.601562 520.351562 318.691406 519.855469 C 296.957031 536.335938 269.886719 546.355469 242.761719 547.703125 C 224.441406 548.609375 209.050781 545.457031 197.003906 538.332031 C 175.46875 525.601562 162.351562 497.40625 163.597656 466.511719 C 163.777344 461.988281 164.28125 456.839844 166.679688 453 C 168.492188 450.097656 172.238281 447.503906 175.617188 448.4375 C 179.023438 449.375 181.246094 453.375 183.601562 457.609375 C 184.351562 458.953125 185.101562 460.292969 185.878906 461.554688 C 194.84375 475.917969 213.609375 483.503906 231.507812 480.011719 C 247.28125 476.933594 261.902344 465.695312 270.621094 449.96875 C 274.921875 442.203125 277.84375 433.453125 279.445312 423.863281 C 278.511719 423.003906 277.695312 421.996094 277.074219 420.886719 C 275.792969 418.585938 273.933594 415.675781 272.121094 412.808594 C 271.332031 425.339844 268.359375 436.421875 263.148438 445.820312 C 255.640625 459.375 243.191406 469.019531 229.859375 471.621094 C 215.570312 474.40625 200.117188 468.269531 193.101562 457.023438 C 192.390625 455.875 191.71875 454.667969 191.035156 453.441406 C 188.078125 448.117188 184.71875 442.082031 177.859375 440.195312 C 171.175781 438.363281 163.585938 441.761719 159.414062 448.476562 C 155.96875 454.007812 155.273438 460.519531 155.046875 466.164062 C 153.679688 500.15625 168.4375 531.371094 192.644531 545.679688 C 204.683594 552.796875 219.480469 556.386719 236.707031 556.386719 C 238.824219 556.386719 240.976562 556.332031 243.164062 556.222656 C 271.269531 554.828125 298.378906 545.164062 321.019531 528.742188 C 320.679688 528.421875 320.351562 528.101562 320.085938 527.753906 Z M 320.101562 527.753906 " fill-opacity="1" fill-rule="nonzero"/><path fill="#220086" d="M 612.644531 466.164062 C 612.417969 460.519531 611.722656 454.007812 608.277344 448.476562 C 604.09375 441.761719 596.515625 438.363281 589.832031 440.195312 C 582.972656 442.082031 579.613281 448.117188 576.65625 453.441406 C 575.980469 454.660156 575.300781 455.875 574.585938 457.023438 C 567.574219 468.269531 552.121094 474.40625 537.828125 471.621094 C 524.5 469.019531 512.058594 459.375 504.542969 445.820312 C 500.101562 437.796875 497.292969 428.535156 496.0625 418.222656 C 493.820312 420.878906 492.285156 423.46875 488.65625 425.117188 C 488.601562 425.144531 488.546875 425.144531 488.492188 425.171875 C 490.140625 434.242188 492.980469 442.558594 497.089844 449.96875 C 505.804688 465.695312 520.425781 476.933594 536.199219 480.011719 C 554.109375 483.511719 572.867188 475.917969 581.828125 461.554688 C 582.617188 460.292969 583.359375 458.953125 584.109375 457.609375 C 586.460938 453.375 588.6875 449.382812 592.09375 448.4375 C 595.480469 447.515625 599.222656 450.097656 601.027344 453 C 603.425781 456.839844 603.929688 461.988281 604.113281 466.511719 C 605.347656 497.40625 592.238281 525.601562 570.707031 538.332031 C 558.648438 545.457031 543.242188 548.601562 524.949219 547.703125 C 506.191406 546.777344 487.46875 541.675781 470.503906 533.175781 C 468.945312 536.445312 466.464844 538.425781 463.535156 539.304688 C 482.269531 549.296875 503.105469 555.167969 524.519531 556.230469 C 526.707031 556.339844 528.859375 556.394531 530.972656 556.394531 C 548.203125 556.394531 563.007812 552.804688 575.035156 545.6875 C 599.242188 531.378906 614 500.164062 612.636719 466.171875 Z M 612.644531 466.164062 " fill-opacity="1" fill-rule="nonzero"/><g clip-path="url(#6a2bb5a3dc)"><path fill="#220086" d="M 398.03125 596.644531 C 395.136719 596.644531 392.226562 595.929688 389.527344 594.324219 C 385.523438 591.953125 383.027344 588.242188 380.820312 584.972656 C 379.8125 583.472656 378.859375 582.0625 377.816406 580.824219 C 373.695312 575.933594 367.542969 573.09375 361.035156 570.078125 C 359.03125 569.15625 357.027344 568.21875 355.074219 567.230469 C 332.828125 555.957031 315.734375 534.804688 309.371094 510.679688 C 303.011719 486.542969 307.441406 459.722656 321.238281 438.921875 C 322.546875 436.960938 325.191406 436.429688 327.152344 437.722656 C 329.121094 439.023438 329.652344 441.679688 328.351562 443.640625 C 315.882812 462.433594 311.871094 486.679688 317.621094 508.488281 C 323.371094 530.300781 338.816406 549.414062 358.929688 559.609375 C 360.789062 560.554688 362.703125 561.433594 364.613281 562.320312 C 371.691406 565.589844 378.996094 568.980469 384.34375 575.320312 C 385.679688 576.902344 386.808594 578.582031 387.898438 580.203125 C 389.765625 582.976562 391.53125 585.597656 393.875 586.980469 C 398.691406 589.835938 405.5 586.75 408.386719 582.089844 C 411.386719 577.25 411.828125 570.207031 409.585938 562.761719 C 408.082031 557.789062 405.722656 553.105469 403.214844 548.160156 C 402.160156 546.082031 401.109375 544.003906 400.117188 541.894531 C 389.65625 519.636719 386.238281 494.027344 390.503906 469.800781 C 390.917969 467.472656 393.140625 465.925781 395.449219 466.335938 C 397.765625 466.75 399.320312 468.957031 398.910156 471.285156 C 394.9375 493.796875 398.113281 517.585938 407.835938 538.257812 C 408.789062 540.292969 409.804688 542.296875 410.820312 544.304688 C 413.382812 549.371094 416.039062 554.609375 417.75 560.304688 C 420.734375 570.246094 419.984375 579.578125 415.628906 586.59375 C 412.019531 592.402344 405.082031 596.644531 398.023438 596.644531 Z M 398.03125 596.644531 " fill-opacity="1" fill-rule="nonzero"/></g><path fill="#220086" d="M 487.3125 495.914062 C 486.242188 480.46875 479.265625 464.3125 467.132812 449.199219 C 465.660156 447.367188 462.976562 447.066406 461.136719 448.539062 C 459.296875 450.015625 459.003906 452.699219 460.476562 454.539062 C 471.519531 468.296875 477.855469 482.804688 478.796875 496.5 C 479.894531 512.457031 473.1875 527.78125 461.6875 535.53125 C 459.378906 537.085938 456.84375 538.398438 454.160156 539.789062 C 449.171875 542.371094 444.015625 545.039062 439.960938 549.527344 C 436.042969 553.859375 433.902344 559.042969 431.832031 564.0625 L 431.082031 565.867188 C 429.085938 570.628906 426.714844 575.410156 422.933594 578.132812 C 420.414062 579.945312 416.632812 580.632812 414.070312 579.3125 C 413.558594 582.1875 412.304688 584.964844 410.382812 587.007812 C 410.382812 587.007812 410.363281 587.023438 410.355469 587.023438 C 412.449219 588.050781 414.757812 588.535156 417.082031 588.535156 C 420.964844 588.535156 424.882812 587.234375 427.90625 585.066406 C 433.40625 581.117188 436.464844 575.089844 438.945312 569.171875 L 439.714844 567.324219 C 441.589844 562.78125 443.367188 558.484375 446.289062 555.25 C 449.308594 551.90625 453.574219 549.699219 458.078125 547.363281 C 460.863281 545.925781 463.738281 544.433594 466.457031 542.609375 C 480.4375 533.195312 488.621094 514.867188 487.3125 495.914062 Z M 487.3125 495.914062 " fill-opacity="1" fill-rule="nonzero"/><path fill="#220086" d="M 394.386719 374.566406 C 393.765625 374.566406 393.132812 374.53125 392.511719 374.445312 C 388.8125 373.972656 385.40625 372.09375 382.898438 369.398438 C 380.378906 371.9375 376.984375 373.59375 373.332031 373.75 C 366.207031 374.097656 359.460938 368.566406 358.363281 361.484375 C 358.003906 359.160156 359.597656 356.96875 361.921875 356.613281 C 364.238281 356.265625 366.429688 357.851562 366.792969 360.175781 C 367.214844 362.941406 370.082031 365.332031 372.957031 365.222656 C 375.746094 365.09375 378.457031 362.4375 378.640625 359.644531 C 378.789062 357.4375 380.589844 355.707031 382.796875 355.652344 C 385.03125 355.625 386.890625 357.234375 387.144531 359.433594 C 387.511719 362.632812 390.40625 365.5625 393.601562 365.972656 C 396.785156 366.367188 400.328125 364.269531 401.492188 361.265625 C 402.34375 359.066406 404.824219 357.976562 407.011719 358.820312 C 409.210938 359.671875 410.308594 362.144531 409.457031 364.34375 C 407.113281 370.417969 400.851562 374.558594 394.40625 374.558594 Z M 394.386719 374.566406 " fill-opacity="1" fill-rule="nonzero"/><path fill="#220086" d="M 329.441406 338.066406 C 329.441406 338.691406 329.421875 339.3125 329.378906 339.9375 C 329.335938 340.558594 329.273438 341.175781 329.1875 341.789062 C 329.105469 342.402344 329 343.011719 328.875 343.609375 C 328.75 344.207031 328.605469 344.796875 328.441406 345.375 C 328.277344 345.953125 328.09375 346.515625 327.890625 347.066406 C 327.6875 347.621094 327.464844 348.15625 327.226562 348.675781 C 326.988281 349.195312 326.730469 349.695312 326.457031 350.179688 C 326.1875 350.664062 325.898438 351.125 325.59375 351.570312 C 325.289062 352.011719 324.96875 352.429688 324.636719 352.828125 C 324.304688 353.226562 323.960938 353.597656 323.601562 353.945312 C 323.246094 354.292969 322.875 354.613281 322.496094 354.90625 C 322.117188 355.203125 321.730469 355.46875 321.332031 355.710938 C 320.933594 355.949219 320.527344 356.160156 320.117188 356.339844 C 319.707031 356.523438 319.289062 356.675781 318.867188 356.796875 C 318.445312 356.917969 318.019531 357.007812 317.589844 357.070312 C 317.164062 357.132812 316.734375 357.164062 316.304688 357.164062 C 315.875 357.164062 315.445312 357.132812 315.015625 357.070312 C 314.585938 357.007812 314.164062 356.917969 313.742188 356.796875 C 313.320312 356.675781 312.902344 356.523438 312.488281 356.339844 C 312.078125 356.160156 311.671875 355.949219 311.277344 355.710938 C 310.878906 355.46875 310.488281 355.203125 310.109375 354.90625 C 309.730469 354.613281 309.363281 354.292969 309.003906 353.945312 C 308.648438 353.597656 308.300781 353.226562 307.96875 352.828125 C 307.636719 352.429688 307.316406 352.011719 307.015625 351.570312 C 306.710938 351.125 306.421875 350.664062 306.148438 350.179688 C 305.875 349.695312 305.617188 349.195312 305.378906 348.675781 C 305.140625 348.15625 304.921875 347.621094 304.71875 347.066406 C 304.515625 346.515625 304.332031 345.953125 304.164062 345.375 C 304 344.796875 303.855469 344.207031 303.730469 343.609375 C 303.605469 343.011719 303.503906 342.402344 303.417969 341.789062 C 303.335938 341.175781 303.269531 340.558594 303.230469 339.9375 C 303.1875 339.3125 303.164062 338.691406 303.164062 338.066406 C 303.164062 337.441406 303.1875 336.816406 303.230469 336.191406 C 303.269531 335.570312 303.335938 334.953125 303.417969 334.339844 C 303.503906 333.726562 303.605469 333.121094 303.730469 332.519531 C 303.855469 331.921875 304 331.335938 304.164062 330.757812 C 304.332031 330.179688 304.515625 329.613281 304.71875 329.0625 C 304.921875 328.511719 305.140625 327.976562 305.378906 327.453125 C 305.617188 326.933594 305.875 326.433594 306.148438 325.949219 C 306.421875 325.464844 306.710938 325.003906 307.015625 324.5625 C 307.316406 324.117188 307.636719 323.699219 307.96875 323.300781 C 308.300781 322.90625 308.648438 322.53125 309.003906 322.183594 C 309.363281 321.839844 309.730469 321.515625 310.109375 321.222656 C 310.488281 320.925781 310.878906 320.660156 311.277344 320.421875 C 311.671875 320.179688 312.078125 319.972656 312.488281 319.789062 C 312.902344 319.609375 313.320312 319.457031 313.742188 319.332031 C 314.164062 319.210938 314.585938 319.121094 315.015625 319.058594 C 315.445312 318.996094 315.875 318.96875 316.304688 318.96875 C 316.734375 318.96875 317.164062 318.996094 317.589844 319.058594 C 318.019531 319.121094 318.445312 319.210938 318.867188 319.332031 C 319.289062 319.457031 319.707031 319.609375 320.117188 319.789062 C 320.527344 319.972656 320.933594 320.179688 321.332031 320.421875 C 321.730469 320.660156 322.117188 320.925781 322.496094 321.222656 C 322.875 321.515625 323.246094 321.839844 323.601562 322.183594 C 323.960938 322.53125 324.304688 322.90625 324.636719 323.300781 C 324.96875 323.699219 325.289062 324.117188 325.59375 324.5625 C 325.898438 325.003906 326.1875 325.464844 326.457031 325.949219 C 326.730469 326.433594 326.988281 326.933594 327.226562 327.453125 C 327.464844 327.976562 327.6875 328.511719 327.890625 329.0625 C 328.09375 329.613281 328.277344 330.179688 328.441406 330.757812 C 328.605469 331.335938 328.75 331.921875 328.875 332.519531 C 329 333.121094 329.105469 333.726562 329.1875 334.339844 C 329.273438 334.953125 329.335938 335.570312 329.378906 336.191406 C 329.421875 336.816406 329.441406 337.441406 329.441406 338.066406 Z M 329.441406 338.066406 " fill-opacity="1" fill-rule="nonzero"/><path fill="#220086" d="M 466.328125 338.066406 C 466.328125 338.691406 466.308594 339.3125 466.265625 339.9375 C 466.222656 340.558594 466.160156 341.175781 466.074219 341.789062 C 465.992188 342.402344 465.886719 343.011719 465.761719 343.609375 C 465.636719 344.207031 465.492188 344.796875 465.328125 345.375 C 465.164062 345.953125 464.980469 346.515625 464.777344 347.066406 C 464.574219 347.621094 464.351562 348.15625 464.113281 348.675781 C 463.875 349.195312 463.621094 349.695312 463.347656 350.179688 C 463.074219 350.664062 462.785156 351.125 462.480469 351.570312 C 462.175781 352.011719 461.859375 352.429688 461.523438 352.828125 C 461.191406 353.226562 460.847656 353.597656 460.488281 353.945312 C 460.132812 354.292969 459.761719 354.613281 459.382812 354.90625 C 459.003906 355.203125 458.617188 355.46875 458.21875 355.710938 C 457.820312 355.949219 457.417969 356.160156 457.003906 356.339844 C 456.59375 356.523438 456.175781 356.675781 455.753906 356.796875 C 455.332031 356.917969 454.90625 357.007812 454.480469 357.070312 C 454.050781 357.132812 453.621094 357.164062 453.191406 357.164062 C 452.761719 357.164062 452.332031 357.132812 451.902344 357.070312 C 451.476562 357.007812 451.050781 356.917969 450.628906 356.796875 C 450.207031 356.675781 449.789062 356.523438 449.378906 356.339844 C 448.964844 356.160156 448.5625 355.949219 448.164062 355.710938 C 447.765625 355.46875 447.378906 355.203125 446.996094 354.90625 C 446.617188 354.613281 446.25 354.292969 445.890625 353.945312 C 445.535156 353.597656 445.1875 353.226562 444.855469 352.828125 C 444.523438 352.429688 444.207031 352.011719 443.902344 351.570312 C 443.597656 351.125 443.308594 350.664062 443.035156 350.179688 C 442.761719 349.695312 442.507812 349.195312 442.265625 348.675781 C 442.027344 348.15625 441.808594 347.621094 441.605469 347.066406 C 441.402344 346.515625 441.21875 345.953125 441.054688 345.375 C 440.886719 344.796875 440.742188 344.207031 440.617188 343.609375 C 440.492188 343.011719 440.390625 342.402344 440.304688 341.789062 C 440.222656 341.175781 440.160156 340.558594 440.117188 339.9375 C 440.074219 339.3125 440.054688 338.691406 440.054688 338.066406 C 440.054688 337.441406 440.074219 336.816406 440.117188 336.191406 C 440.160156 335.570312 440.222656 334.953125 440.304688 334.339844 C 440.390625 333.726562 440.492188 333.121094 440.617188 332.519531 C 440.742188 331.921875 440.886719 331.335938 441.054688 330.757812 C 441.21875 330.179688 441.402344 329.613281 441.605469 329.0625 C 441.808594 328.511719 442.027344 327.976562 442.265625 327.453125 C 442.507812 326.933594 442.761719 326.433594 443.035156 325.949219 C 443.308594 325.464844 443.597656 325.003906 443.902344 324.5625 C 444.207031 324.117188 444.523438 323.699219 444.855469 323.300781 C 445.1875 322.90625 445.535156 322.53125 445.890625 322.183594 C 446.25 321.839844 446.617188 321.515625 446.996094 321.222656 C 447.378906 320.925781 447.765625 320.660156 448.164062 320.421875 C 448.5625 320.179688 448.964844 319.972656 449.378906 319.789062 C 449.789062 319.609375 450.207031 319.457031 450.628906 319.332031 C 451.050781 319.210938 451.476562 319.121094 451.902344 319.058594 C 452.332031 318.996094 452.761719 318.96875 453.191406 318.96875 C 453.621094 318.96875 454.050781 318.996094 454.480469 319.058594 C 454.90625 319.121094 455.332031 319.210938 455.753906 319.332031 C 456.175781 319.457031 456.59375 319.609375 457.003906 319.789062 C 457.417969 319.972656 457.820312 320.179688 458.21875 320.421875 C 458.617188 320.660156 459.003906 320.925781 459.382812 321.222656 C 459.761719 321.515625 460.132812 321.839844 460.488281 322.183594 C 460.847656 322.53125 461.191406 322.90625 461.523438 323.300781 C 461.859375 323.699219 462.175781 324.117188 462.480469 324.5625 C 462.785156 325.003906 463.074219 325.464844 463.347656 325.949219 C 463.621094 326.433594 463.875 326.933594 464.113281 327.453125 C 464.351562 327.976562 464.574219 328.511719 464.777344 329.0625 C 464.980469 329.613281 465.164062 330.179688 465.328125 330.757812 C 465.492188 331.335938 465.636719 331.921875 465.761719 332.519531 C 465.886719 333.121094 465.992188 333.726562 466.074219 334.339844 C 466.160156 334.953125 466.222656 335.570312 466.265625 336.191406 C 466.308594 336.816406 466.328125 337.441406 466.328125 338.066406 Z M 466.328125 338.066406 " fill-opacity="1" fill-rule="nonzero"/></svg>