<svg xmlns="http://www.w3.org/2000/svg" xmlns:xlink="http://www.w3.org/1999/xlink" width="1024" zoomAndPan="magnify" viewBox="0 0 768 767.999994" height="1024" preserveAspectRatio="xMidYMid meet" version="1.0"><defs><clipPath id="8e280cedcd"><path d="M 134.480469 209 L 633 209 L 633 590.335938 L 134.480469 590.335938 Z M 134.480469 209 " clip-rule="nonzero"/></clipPath></defs><path fill="#c4a5ff" d="M 615.121094 428.203125 C 596.042969 436.433594 574.722656 432.867188 554.117188 429.429688 L 551.441406 428.960938 C 531.207031 425.621094 510.273438 423.847656 493.621094 432.816406 C 492.914062 433.1875 492.230469 433.574219 491.53125 433.992188 C 520.085938 460.957031 533.035156 504.382812 523.789062 542.585938 C 522.664062 547.199219 520.238281 552.242188 516.574219 554.59375 C 515 555.628906 513.191406 556.136719 511.148438 555.917969 C 505.605469 555.28125 503.058594 549.828125 500.796875 545.039062 C 500.410156 544.230469 500.042969 543.414062 499.644531 542.675781 C 492.207031 527.917969 474.132812 522.238281 457.421875 518.660156 C 440.671875 515.054688 421.660156 510.980469 411.449219 496.578125 C 409.40625 493.710938 407.914062 490.679688 406.324219 487.492188 C 405 484.863281 403.644531 482.140625 402.003906 479.628906 C 397.953125 473.5625 392.457031 470.203125 387.332031 470.664062 C 381.617188 471.179688 377.148438 476.191406 373.914062 480.507812 C 356.617188 503.515625 347.6875 532.054688 348.742188 560.8125 L 348.742188 561.328125 C 349.042969 569.289062 349.410156 579.15625 342.761719 584.515625 C 340.699219 586.160156 338.390625 587.046875 336.042969 587.414062 C 335.136719 587.566406 334.199219 587.636719 333.265625 587.636719 C 328.039062 587.636719 322.84375 585.542969 319.429688 583.847656 C 298.261719 573.1875 282.613281 552.070312 278.5625 528.695312 C 274.710938 506.515625 281.578125 481.914062 296.082031 464.773438 C 296.082031 464.773438 296.101562 464.773438 296.101562 464.753906 C 296.46875 464.285156 296.855469 463.816406 297.273438 463.378906 C 285.230469 460.996094 271.765625 461.984375 254.59375 466.546875 C 248.703125 468.089844 242.769531 469.933594 237.027344 471.726562 C 228.347656 474.457031 219.410156 477.230469 210.414062 479.121094 C 192.527344 482.828125 177.097656 482.089844 164.539062 476.910156 C 148.8125 470.421875 137.851562 456.152344 137.238281 441.375 C 137.167969 439.613281 137.214844 434.671875 139.882812 431.261719 C 140.621094 430.277344 141.605469 429.449219 142.851562 428.832031 C 145.847656 427.355469 149.199219 427.945312 152.144531 428.460938 C 152.933594 428.582031 153.71875 428.730469 154.476562 428.832031 C 169.515625 430.746094 181.507812 417.929688 185.976562 412.300781 C 189.339844 408.074219 192.328125 403.410156 195.253906 398.886719 C 199.40625 392.429688 203.277344 386.394531 208.332031 380.960938 C 216.554688 372.144531 230.609375 364.679688 243.019531 368 C 239.417969 353.429688 229.890625 301.664062 263.402344 258.347656 C 298.527344 212.960938 353.96875 212.003906 372.203125 211.714844 C 388.515625 211.398438 438.164062 210.539062 477.558594 249.808594 C 516.535156 288.640625 517.171875 339.820312 516.246094 356.300781 C 525.375 348.097656 539.40625 350.210938 543.796875 351.117188 C 554.535156 353.378906 563.742188 359.367188 572.621094 365.136719 L 618.328125 394.902344 C 623.351562 398.171875 627.992188 401.558594 629.515625 406.9375 C 629.613281 407.289062 629.683594 407.605469 629.734375 407.925781 C 631.40625 416.394531 623.820312 424.457031 615.113281 428.214844 Z M 615.121094 428.203125 " fill-opacity="1" fill-rule="nonzero"/><path fill="#fdbbff" d="M 389.828125 358.632812 C 389.035156 358.492188 388.238281 358.261719 387.472656 357.964844 C 385.996094 357.386719 384.632812 356.527344 383.53125 355.484375 C 382.5625 354.574219 381.28125 354.109375 379.964844 354.148438 C 378.640625 354.199219 377.398438 354.785156 376.523438 355.773438 C 375.585938 356.816406 374.453125 357.675781 373.167969 358.332031 C 372.28125 358.78125 371.308594 359.128906 370.261719 359.347656 C 368.0625 359.816406 366.460938 361.71875 366.378906 363.972656 C 366.269531 367.089844 366.378906 369.472656 366.769531 371.683594 C 367.613281 376.617188 369.875 380.703125 373.117188 383.195312 C 375.308594 384.878906 378.003906 385.746094 380.601562 385.746094 C 382.644531 385.746094 384.625 385.207031 386.246094 384.121094 C 389.5 381.9375 390.953125 378.121094 391.761719 375.433594 C 392.765625 372.074219 393.433594 368.417969 393.851562 363.914062 C 394.089844 361.371094 392.339844 359.082031 389.839844 358.632812 Z M 389.828125 358.632812 " fill-opacity="1" fill-rule="nonzero"/><path fill="#e5dfff" d="M 296.121094 464.773438 C 296.488281 464.304688 296.875 463.835938 297.292969 463.398438 C 285.25 461.015625 271.785156 462.003906 254.613281 466.566406 C 248.722656 468.113281 242.789062 469.953125 237.046875 471.75 C 228.367188 474.480469 219.429688 477.25 210.433594 479.140625 C 192.546875 482.847656 177.117188 482.113281 164.558594 476.929688 C 148.832031 470.441406 137.875 456.175781 137.257812 441.398438 C 137.1875 439.632812 137.238281 434.691406 139.902344 431.28125 C 142.53125 433.644531 144.929688 436.292969 147.167969 438.257812 C 164.46875 453.554688 188.625 460.996094 210.53125 450.632812 C 222.207031 445.101562 231.773438 435.507812 243.945312 431.203125 C 255.101562 427.277344 267.933594 428.332031 278.3125 434.054688 C 288.664062 439.773438 296.417969 450.035156 299.066406 461.585938 C 298.109375 462.660156 297.125 463.746094 296.121094 464.773438 Z M 296.121094 464.773438 " fill-opacity="1" fill-rule="nonzero"/><path fill="#e5dfff" d="M 516.574219 554.601562 C 515 555.640625 513.191406 556.148438 511.148438 555.929688 C 505.605469 555.289062 503.058594 549.839844 500.796875 545.046875 C 500.410156 544.238281 500.042969 543.421875 499.644531 542.683594 C 492.207031 527.929688 474.132812 522.25 457.421875 518.671875 C 440.671875 515.0625 421.660156 510.988281 411.449219 496.589844 C 409.40625 493.71875 407.914062 490.691406 406.324219 487.503906 C 405 484.871094 403.644531 482.152344 402.003906 479.640625 C 397.953125 473.570312 392.457031 470.214844 387.332031 470.671875 C 381.617188 471.191406 377.148438 476.203125 373.914062 480.515625 C 356.617188 503.523438 347.6875 532.0625 348.742188 560.820312 L 348.742188 561.339844 C 349.042969 569.300781 349.410156 579.164062 342.761719 584.527344 C 340.699219 586.171875 338.390625 587.058594 336.042969 587.425781 C 331.753906 575.9375 332.121094 561.757812 332.21875 548.007812 C 332.390625 524.359375 336.441406 500.925781 345 478.851562 C 349.789062 466.546875 356.109375 454.421875 366.289062 446.039062 C 376.472656 437.667969 391.214844 433.785156 403.1875 439.3125 C 421.511719 447.734375 425.75 472.683594 441.695312 485.089844 C 452.195312 493.242188 466.25 494.796875 478.445312 500.066406 C 497.304688 508.21875 511.65625 526.074219 515.578125 546.261719 C 516.117188 548.992188 516.464844 551.792969 516.5625 554.59375 Z M 516.574219 554.601562 " fill-opacity="1" fill-rule="nonzero"/><path fill="#e5dfff" d="M 615.121094 428.203125 C 596.042969 436.433594 574.722656 432.867188 554.117188 429.429688 L 551.441406 428.960938 C 531.207031 425.621094 510.273438 423.847656 493.621094 432.816406 C 492.296875 431.492188 491.394531 429.996094 491.023438 428.304688 C 489.035156 419.363281 502.261719 408.882812 508.691406 404.875 C 517.699219 399.257812 528.636719 396.507812 539.207031 398.171875 C 561.164062 401.609375 580.425781 420.960938 602.273438 416.863281 C 611.71875 415.101562 620.476562 408.953125 629.742188 407.925781 C 631.414062 416.394531 623.832031 424.457031 615.121094 428.214844 Z M 615.121094 428.203125 " fill-opacity="1" fill-rule="nonzero"/><path fill="#fdbbff" d="M 309.996094 377.097656 C 309.996094 377.941406 309.914062 378.777344 309.746094 379.609375 C 309.582031 380.4375 309.339844 381.242188 309.015625 382.023438 C 308.691406 382.804688 308.296875 383.546875 307.828125 384.25 C 307.359375 384.949219 306.824219 385.601562 306.226562 386.199219 C 305.632812 386.796875 304.980469 387.332031 304.28125 387.800781 C 303.578125 388.269531 302.835938 388.667969 302.054688 388.988281 C 301.277344 389.3125 300.472656 389.558594 299.644531 389.722656 C 298.816406 389.886719 297.980469 389.96875 297.136719 389.96875 C 296.289062 389.96875 295.453125 389.886719 294.625 389.722656 C 293.796875 389.558594 292.996094 389.3125 292.214844 388.988281 C 291.433594 388.667969 290.691406 388.269531 289.992188 387.800781 C 289.289062 387.332031 288.640625 386.796875 288.042969 386.199219 C 287.445312 385.601562 286.910156 384.949219 286.441406 384.25 C 285.972656 383.546875 285.578125 382.804688 285.253906 382.023438 C 284.929688 381.242188 284.6875 380.4375 284.523438 379.609375 C 284.359375 378.777344 284.277344 377.941406 284.277344 377.097656 C 284.277344 376.25 284.359375 375.414062 284.523438 374.585938 C 284.6875 373.753906 284.929688 372.949219 285.253906 372.167969 C 285.578125 371.386719 285.972656 370.644531 286.441406 369.941406 C 286.910156 369.242188 287.445312 368.589844 288.042969 367.992188 C 288.640625 367.394531 289.289062 366.859375 289.992188 366.390625 C 290.691406 365.921875 291.433594 365.523438 292.214844 365.203125 C 292.996094 364.878906 293.796875 364.632812 294.625 364.46875 C 295.453125 364.304688 296.289062 364.222656 297.136719 364.222656 C 297.980469 364.222656 298.816406 364.304688 299.644531 364.46875 C 300.472656 364.632812 301.277344 364.878906 302.054688 365.203125 C 302.835938 365.523438 303.578125 365.921875 304.28125 366.390625 C 304.980469 366.859375 305.632812 367.394531 306.226562 367.992188 C 306.824219 368.589844 307.359375 369.242188 307.828125 369.941406 C 308.296875 370.644531 308.691406 371.386719 309.015625 372.167969 C 309.339844 372.949219 309.582031 373.753906 309.746094 374.585938 C 309.914062 375.414062 309.996094 376.25 309.996094 377.097656 Z M 309.996094 377.097656 " fill-opacity="1" fill-rule="nonzero"/><path fill="#fdbbff" d="M 476.878906 377.097656 C 476.878906 377.941406 476.796875 378.777344 476.632812 379.609375 C 476.46875 380.4375 476.226562 381.242188 475.902344 382.023438 C 475.578125 382.804688 475.183594 383.546875 474.714844 384.25 C 474.246094 384.949219 473.710938 385.601562 473.113281 386.199219 C 472.515625 386.796875 471.867188 387.332031 471.164062 387.800781 C 470.464844 388.269531 469.722656 388.667969 468.941406 388.988281 C 468.164062 389.3125 467.359375 389.558594 466.53125 389.722656 C 465.703125 389.886719 464.867188 389.96875 464.019531 389.96875 C 463.175781 389.96875 462.339844 389.886719 461.511719 389.722656 C 460.683594 389.558594 459.878906 389.3125 459.101562 388.988281 C 458.320312 388.667969 457.578125 388.269531 456.875 387.800781 C 456.175781 387.332031 455.523438 386.796875 454.929688 386.199219 C 454.332031 385.601562 453.796875 384.949219 453.328125 384.25 C 452.859375 383.546875 452.464844 382.804688 452.140625 382.023438 C 451.816406 381.242188 451.574219 380.4375 451.410156 379.609375 C 451.242188 378.777344 451.160156 377.941406 451.160156 377.097656 C 451.160156 376.25 451.242188 375.414062 451.410156 374.585938 C 451.574219 373.753906 451.816406 372.949219 452.140625 372.167969 C 452.464844 371.386719 452.859375 370.644531 453.328125 369.941406 C 453.796875 369.242188 454.332031 368.589844 454.929688 367.992188 C 455.523438 367.394531 456.175781 366.859375 456.875 366.390625 C 457.578125 365.921875 458.320312 365.523438 459.101562 365.203125 C 459.878906 364.878906 460.683594 364.632812 461.511719 364.46875 C 462.339844 364.304688 463.175781 364.222656 464.019531 364.222656 C 464.867188 364.222656 465.703125 364.304688 466.53125 364.46875 C 467.359375 364.632812 468.164062 364.878906 468.941406 365.203125 C 469.722656 365.523438 470.464844 365.921875 471.164062 366.390625 C 471.867188 366.859375 472.515625 367.394531 473.113281 367.992188 C 473.710938 368.589844 474.246094 369.242188 474.714844 369.941406 C 475.183594 370.644531 475.578125 371.386719 475.902344 372.167969 C 476.226562 372.949219 476.46875 373.753906 476.632812 374.585938 C 476.796875 375.414062 476.878906 376.25 476.878906 377.097656 Z M 476.878906 377.097656 " fill-opacity="1" fill-rule="nonzero"/><g clip-path="url(#8e280cedcd)"><path fill="#220086" d="M 333.234375 590.066406 C 328.726562 590.066406 323.660156 588.730469 318.355469 586.070312 C 296.507812 575.078125 280.335938 553.269531 276.164062 529.152344 C 272.339844 507.113281 278.761719 482.699219 292.636719 465.152344 C 282.027344 463.808594 269.953125 465.050781 255.253906 468.9375 C 249.398438 470.492188 243.46875 472.335938 237.734375 474.128906 C 229.046875 476.839844 220.066406 479.640625 210.929688 481.542969 C 192.578125 485.371094 176.660156 484.574219 163.621094 479.191406 C 147.039062 472.355469 135.464844 457.210938 134.808594 441.496094 C 134.519531 434.472656 137.136719 428.910156 141.804688 426.628906 C 145.488281 424.824219 149.261719 425.472656 152.605469 426.050781 C 153.351562 426.179688 154.097656 426.308594 154.832031 426.398438 C 164.4375 427.625 175.347656 421.785156 184.085938 410.796875 C 187.402344 406.640625 190.375 401.996094 193.261719 397.503906 C 197.246094 391.304688 201.363281 384.886719 206.582031 379.296875 C 214.464844 370.839844 227.511719 363.585938 239.824219 364.917969 C 235.84375 346.367188 229.722656 297.929688 261.511719 256.84375 C 297.335938 210.539062 353.691406 209.574219 372.203125 209.253906 C 388.765625 208.976562 439.199219 208.097656 479.308594 248.066406 C 515.648438 284.265625 519.273438 330.949219 518.894531 351.46875 C 525.613281 347.710938 534.558594 346.664062 544.335938 348.71875 C 555.519531 351.070312 565.335938 357.457031 573.984375 363.097656 L 619.671875 392.839844 C 623.78125 395.511719 629.992188 399.554688 631.882812 406.273438 C 634.757812 416.445312 626.121094 426.132812 616.097656 430.457031 C 596.351562 438.964844 574.660156 435.347656 553.691406 431.851562 L 551.042969 431.414062 C 531.5625 428.183594 511.5 426.429688 495.601562 434.550781 C 523.105469 462.242188 535.355469 505.230469 526.167969 543.171875 C 524.238281 551.15625 519.164062 559.355469 510.839844 558.371094 C 503.972656 557.574219 500.976562 551.214844 498.570312 546.101562 C 498.199219 545.316406 497.832031 544.527344 497.453125 543.792969 C 490.476562 529.960938 473.050781 524.550781 456.914062 521.082031 C 439.714844 517.386719 420.21875 513.191406 409.457031 498.035156 C 407.316406 495.015625 405.695312 491.765625 404.121094 488.628906 C 402.777344 485.929688 401.503906 483.375 399.953125 481.035156 C 397.234375 476.929688 392.566406 472.683594 387.570312 473.152344 C 382.804688 473.582031 378.820312 478.117188 375.894531 482.011719 C 358.933594 504.582031 350.167969 532.550781 351.203125 560.769531 L 351.222656 561.277344 C 351.53125 569.769531 351.917969 580.339844 344.304688 586.460938 C 341.296875 588.871094 337.515625 590.078125 333.234375 590.078125 Z M 284.078125 457.25 C 289.890625 457.25 295.3125 457.859375 300.488281 459.074219 C 301.773438 459.371094 302.796875 460.339844 303.175781 461.605469 C 303.554688 462.871094 303.226562 464.246094 302.3125 465.203125 C 287.011719 481.265625 279.585938 505.867188 283.398438 527.886719 C 287.191406 549.75 301.84375 569.519531 321.648438 579.484375 C 325.261719 581.308594 334.261719 585.054688 339.695312 580.710938 C 344.433594 576.914062 344.132812 568.753906 343.867188 561.546875 L 343.847656 561.039062 C 342.75 531.136719 352.046875 501.492188 370.011719 477.578125 C 373.863281 472.464844 379.257812 466.496094 386.914062 465.808594 C 393.902344 465.183594 401.058594 469.347656 406.09375 476.960938 C 407.894531 479.679688 409.328125 482.550781 410.710938 485.328125 C 412.214844 488.347656 413.636719 491.199219 415.460938 493.761719 C 424.566406 506.585938 442.582031 510.460938 458.46875 513.878906 C 476.304688 517.714844 495.652344 523.871094 504.023438 540.472656 C 504.429688 541.269531 504.820312 542.117188 505.226562 542.964844 C 507.367188 547.507812 509.089844 550.757812 511.6875 551.054688 C 514.960938 551.414062 517.820312 546.34375 519.011719 541.441406 C 527.980469 504.410156 515.132812 462.253906 487.042969 436.542969 C 486.207031 435.777344 485.769531 434.660156 485.859375 433.523438 C 485.949219 432.390625 486.566406 431.363281 487.511719 430.734375 C 506.074219 418.585938 529.582031 420.382812 552.238281 424.136719 L 554.894531 424.578125 C 574.820312 427.90625 595.414062 431.34375 613.179688 423.691406 C 620.078125 420.71875 626.488281 414.304688 624.796875 408.273438 C 623.742188 404.527344 619.867188 401.757812 615.648438 399.007812 L 569.964844 369.265625 C 561.453125 363.722656 552.644531 357.992188 542.8125 355.921875 C 538.699219 355.0625 524.746094 352.941406 517.660156 361.949219 C 516.644531 363.234375 514.914062 363.695312 513.410156 363.085938 C 511.894531 362.476562 510.960938 360.953125 511.109375 359.320312 C 512.09375 348.746094 514.933594 293.941406 474.113281 253.277344 C 436.203125 215.511719 388.117188 216.328125 372.3125 216.609375 C 354.664062 216.90625 300.976562 217.832031 267.316406 261.347656 C 233.246094 305.382812 245.527344 358.640625 248.34375 368.875 C 248.710938 370.210938 248.292969 371.644531 247.269531 372.570312 C 246.246094 373.507812 244.78125 373.777344 243.488281 373.289062 C 233.1875 369.382812 219.820312 375.871094 211.945312 384.308594 C 207.179688 389.421875 203.414062 395.28125 199.433594 401.480469 C 196.449219 406.121094 193.371094 410.925781 189.828125 415.371094 C 184.851562 421.617188 171.375 435.925781 153.886719 433.695312 C 153.050781 433.585938 152.195312 433.445312 151.339844 433.296875 C 148.890625 432.878906 146.574219 432.476562 145.019531 433.234375 C 142.699219 434.371094 142.023438 438.21875 142.144531 441.175781 C 142.679688 454.070312 152.433594 466.597656 166.410156 472.367188 C 178.054688 477.167969 192.535156 477.828125 209.417969 474.308594 C 218.207031 472.476562 227.015625 469.726562 235.535156 467.074219 C 241.335938 465.261719 247.347656 463.386719 253.359375 461.792969 C 264.875 458.746094 274.949219 457.238281 284.078125 457.238281 Z M 284.078125 457.25 " fill-opacity="1" fill-rule="nonzero"/></g><path fill="#220086" d="M 367.984375 364.519531 C 366.308594 364.519531 364.65625 364.242188 363.09375 363.683594 C 359.222656 362.296875 355.988281 359.167969 354.226562 355.105469 C 352.464844 351.039062 352.386719 346.542969 354.019531 342.757812 C 354.824219 340.886719 356.984375 340.027344 358.855469 340.835938 C 360.714844 341.640625 361.582031 343.804688 360.777344 345.679688 C 359.949219 347.601562 360.019531 349.960938 360.976562 352.164062 C 361.929688 354.367188 363.613281 356.039062 365.574219 356.75 C 367.542969 357.457031 369.894531 357.226562 372.035156 356.140625 C 374.171875 355.042969 375.734375 353.261719 376.3125 351.257812 C 376.75 349.753906 378.09375 348.6875 379.65625 348.605469 C 381.25 348.519531 382.671875 349.453125 383.261719 350.910156 C 384.105469 353 385.957031 354.734375 388.367188 355.683594 C 390.765625 356.628906 393.3125 356.617188 395.34375 355.652344 C 397.382812 354.695312 399.007812 352.734375 399.8125 350.28125 C 400.617188 347.832031 400.460938 345.289062 399.386719 343.304688 C 398.417969 341.523438 399.078125 339.28125 400.867188 338.3125 C 402.648438 337.347656 404.890625 338.003906 405.855469 339.789062 C 407.894531 343.546875 408.242188 348.199219 406.808594 352.574219 C 405.386719 356.949219 402.351562 360.496094 398.488281 362.320312 C 394.628906 364.140625 389.960938 364.222656 385.6875 362.546875 C 383.597656 361.730469 381.71875 360.535156 380.164062 359.070312 C 378.851562 360.535156 377.230469 361.78125 375.398438 362.726562 C 373.039062 363.933594 370.492188 364.550781 367.992188 364.550781 Z M 367.984375 364.519531 " fill-opacity="1" fill-rule="nonzero"/><path fill="#220086" d="M 392.585938 360.605469 C 391.324219 360.605469 390.207031 360.324219 389.234375 359.867188 C 388.945312 364.691406 388.417969 369.503906 387.0625 374.027344 C 386.128906 377.144531 385.003906 379.050781 383.53125 380.046875 C 381.558594 381.359375 378.375 381.042969 376.105469 379.308594 C 373.84375 377.574219 372.242188 374.574219 371.605469 370.859375 C 370.976562 367.230469 371.265625 363.265625 371.566406 359.429688 C 370.648438 359.957031 369.535156 360.296875 368.160156 360.296875 C 366.789062 360.296875 365.671875 359.976562 364.65625 359.46875 C 364.5 359.4375 364.339844 359.410156 364.191406 359.367188 C 363.871094 363.496094 363.59375 367.75 364.347656 372.105469 C 365.304688 377.644531 367.894531 382.277344 371.636719 385.148438 C 374.292969 387.179688 377.488281 388.226562 380.59375 388.226562 C 383.113281 388.226562 385.558594 387.546875 387.621094 386.164062 C 391.53125 383.542969 393.203125 379.1875 394.109375 376.140625 C 395.78125 370.570312 396.339844 364.910156 396.636719 359.328125 C 395.640625 360.117188 394.296875 360.613281 392.585938 360.613281 Z M 392.585938 360.605469 " fill-opacity="1" fill-rule="nonzero"/><path fill="#220086" d="M 331.207031 351.777344 C 331.144531 351.777344 331.074219 351.777344 331.015625 351.777344 C 328.984375 351.675781 327.421875 349.941406 327.53125 347.910156 C 327.703125 344.550781 325.949219 341.042969 323.164062 339.171875 C 320.386719 337.296875 316.464844 337 313.429688 338.414062 C 310.394531 339.839844 308.113281 343.039062 307.765625 346.375 C 307.554688 348.398438 305.734375 349.882812 303.722656 349.652344 C 301.703125 349.445312 300.230469 347.632812 300.449219 345.609375 C 301.066406 339.699219 304.9375 334.257812 310.3125 331.738281 C 315.699219 329.226562 322.347656 329.734375 327.273438 333.054688 C 332.199219 336.371094 335.1875 342.351562 334.886719 348.277344 C 334.789062 350.242188 333.164062 351.777344 331.214844 351.777344 Z M 331.207031 351.777344 " fill-opacity="1" fill-rule="nonzero"/><path fill="#220086" d="M 427.742188 351.777344 C 425.789062 351.777344 424.167969 350.25 424.070312 348.277344 C 423.769531 342.339844 426.757812 336.359375 431.683594 333.054688 C 436.609375 329.734375 443.257812 329.226562 448.644531 331.738281 C 454.019531 334.257812 457.898438 339.699219 458.507812 345.609375 C 458.714844 347.632812 457.253906 349.445312 455.234375 349.652344 C 453.203125 349.882812 451.402344 348.398438 451.191406 346.375 C 450.84375 343.039062 448.5625 339.839844 445.527344 338.414062 C 442.492188 336.988281 438.582031 337.289062 435.792969 339.171875 C 433.007812 341.042969 431.253906 344.5625 431.425781 347.910156 C 431.523438 349.941406 429.960938 351.675781 427.929688 351.777344 C 427.871094 351.777344 427.800781 351.777344 427.742188 351.777344 Z M 427.742188 351.777344 " fill-opacity="1" fill-rule="nonzero"/></svg>