<svg xmlns="http://www.w3.org/2000/svg" xmlns:xlink="http://www.w3.org/1999/xlink" width="1024" zoomAndPan="magnify" viewBox="0 0 768 767.999994" height="1024" preserveAspectRatio="xMidYMid meet" version="1.0"><defs><clipPath id="3455f04967"><path d="M 419 485 L 551 485 L 551 575.902344 L 419 575.902344 Z M 419 485 " clip-rule="nonzero"/></clipPath></defs><path fill="#f6f6f6" d="M 569.167969 268.257812 C 565.332031 257.902344 554.367188 250.757812 543.464844 251.199219 C 550.3125 242.058594 552.320312 229.328125 548.386719 218.585938 C 544.105469 206.898438 532.945312 197.957031 520.601562 196.332031 C 508.867188 194.769531 496.40625 199.921875 489.074219 209.210938 C 482.691406 200.09375 471.550781 194.34375 461.007812 194.769531 C 449.191406 195.246094 438.105469 203.457031 434.664062 214.296875 C 431.175781 225.28125 435.816406 237.902344 445.253906 243.71875 L 416.210938 282.511719 C 415.289062 283.746094 414.996094 285.34375 415.425781 286.820312 C 417.863281 295.25 424.355469 311.1875 440.515625 323.222656 C 455.664062 334.5 471.597656 336.808594 482.105469 336.808594 C 484.089844 336.808594 485.886719 336.726562 487.4375 336.609375 C 488.679688 336.507812 489.839844 335.953125 490.691406 335.03125 L 526.289062 296.089844 C 534.609375 304.144531 548.394531 305.769531 558.3125 299.6875 C 568.59375 293.378906 573.359375 279.570312 569.175781 268.246094 Z M 569.167969 268.257812 " fill-opacity="1" fill-rule="nonzero"/><path fill="#f6f6f6" d="M 242.070312 416.460938 C 231.652344 406.039062 217.210938 399.566406 202.453125 398.699219 C 200.300781 398.535156 198.316406 399.859375 197.570312 401.875 L 192.417969 415.65625 C 191.597656 417.855469 192.445312 420.339844 194.457031 421.5625 L 250.855469 456.046875 C 251.421875 456.394531 252.050781 456.621094 252.699219 456.714844 L 255.558594 457.132812 C 255.796875 457.167969 256.03125 457.1875 256.269531 457.1875 C 257.585938 457.1875 258.855469 456.660156 259.785156 455.707031 C 260.882812 454.585938 261.375 452.996094 261.109375 451.445312 C 259.007812 439.207031 252.070312 426.449219 242.070312 416.449219 Z M 242.070312 416.460938 " fill-opacity="1" fill-rule="nonzero"/><path fill="#f6f6f6" d="M 347.039062 427.035156 C 346.847656 424.578125 344.855469 422.640625 342.390625 422.515625 C 314.945312 421.117188 286.621094 431.671875 266.585938 450.730469 C 265.226562 452.027344 264.726562 453.984375 265.289062 455.773438 C 265.855469 457.5625 267.398438 458.867188 269.253906 459.140625 L 277.789062 460.394531 C 277.902344 460.429688 278 460.464844 278.074219 460.484375 C 278.511719 460.613281 278.960938 460.667969 279.417969 460.667969 C 279.71875 460.667969 280.019531 460.640625 280.3125 460.585938 L 344.316406 448.730469 C 346.78125 448.273438 348.507812 446.027344 348.316406 443.515625 L 347.027344 427.015625 Z M 347.039062 427.035156 " fill-opacity="1" fill-rule="nonzero"/><path fill="#fdbbff" d="M 358.140625 481.085938 L 358.121094 480.574219 C 357.8125 470.464844 357.484375 460 357.027344 449.582031 C 356.960938 448.164062 356.285156 446.839844 355.183594 445.957031 C 354.066406 445.070312 352.632812 444.714844 351.230469 444.96875 L 280.996094 457.972656 C 279.972656 458.164062 279.078125 458.667969 278.394531 459.378906 C 277.644531 458.421875 276.539062 457.734375 275.253906 457.554688 L 256.359375 454.785156 C 255.121094 454.59375 253.878906 454.921875 252.855469 455.636719 C 252.472656 454.640625 251.804688 453.765625 250.863281 453.1875 L 188.191406 414.871094 C 186.539062 413.855469 184.449219 413.910156 182.851562 415.007812 C 181.253906 416.101562 180.449219 418.039062 180.796875 419.9375 C 184.300781 439.117188 187.679688 458.191406 190.957031 476.710938 L 194.402344 496.089844 C 194.773438 498.21875 196.511719 499.851562 198.65625 500.109375 C 201.074219 500.402344 203.476562 501.351562 205.59375 502.867188 C 208.992188 505.304688 211.183594 508.839844 211.601562 512.566406 C 212.25 518.398438 208.945312 524.847656 203.167969 528.984375 C 201.625 530.089844 200.855469 531.988281 201.195312 533.859375 L 202.261719 539.6875 C 202.554688 541.265625 203.59375 542.601562 205.046875 543.257812 L 245.183594 561.621094 C 245.832031 561.921875 246.535156 562.070312 247.230469 562.070312 C 248.152344 562.070312 249.066406 561.8125 249.859375 561.3125 C 249.925781 561.273438 249.96875 561.210938 250.023438 561.175781 C 250.738281 562.910156 252.40625 564.152344 254.398438 564.214844 L 268.121094 564.691406 C 268.175781 564.691406 268.230469 564.691406 268.296875 564.691406 C 269.957031 564.691406 271.425781 563.851562 272.320312 562.570312 C 272.402344 562.652344 272.46875 562.753906 272.558594 562.828125 C 273.453125 563.574219 274.578125 563.976562 275.71875 563.976562 C 276.101562 563.976562 276.496094 563.933594 276.878906 563.839844 L 341.347656 548.214844 C 343.148438 547.777344 344.554688 546.371094 344.972656 544.5625 C 345.394531 542.765625 344.773438 540.875 343.359375 539.6875 C 341.3125 537.960938 339.722656 536.179688 338.519531 534.234375 C 335.414062 529.25 334.582031 521.320312 339.148438 516.472656 C 342.929688 512.453125 348.582031 511.898438 354.132812 511.898438 C 355.464844 511.898438 356.742188 511.351562 357.675781 510.390625 C 358.605469 509.433594 359.089844 508.125 359.042969 506.792969 C 358.707031 498.136719 358.414062 489.507812 358.160156 481.097656 Z M 358.140625 481.085938 " fill-opacity="1" fill-rule="nonzero"/><path fill="#c4a5ff" d="M 207.027344 500.867188 C 203.878906 498.609375 200.199219 497.449219 196.65625 497.5625 C 196.855469 496.859375 196.902344 496.097656 196.765625 495.359375 L 190.902344 462.285156 C 190.640625 460.804688 189.714844 459.527344 188.394531 458.8125 C 187.070312 458.101562 185.5 458.039062 184.109375 458.640625 C 171.566406 464.101562 161.757812 473.789062 157.210938 485.207031 C 151.652344 499.160156 154.289062 515.449219 163.785156 525.742188 C 169.996094 532.464844 179.144531 536.070312 188.035156 536.070312 C 193.5625 536.070312 198.984375 534.671875 203.523438 531.777344 C 208.992188 528.28125 215.035156 521.074219 214.050781 512.289062 C 213.558594 507.871094 211 503.707031 207.039062 500.867188 Z M 207.027344 500.867188 " fill-opacity="1" fill-rule="nonzero"/><path fill="#c4a5ff" d="M 605.664062 521.066406 C 604.996094 524.089844 603.160156 527.03125 600.457031 529.292969 L 600.457031 529.320312 C 597.042969 532.199219 592.769531 533.742188 588.699219 534.964844 C 574.015625 539.429688 558.109375 541.101562 542.425781 539.851562 L 542.398438 539.851562 C 541.585938 539.777344 540.753906 539.703125 539.941406 539.632812 C 540.1875 539.925781 540.40625 540.199219 540.652344 540.488281 C 544.085938 544.636719 547.628906 548.9375 547.894531 554.507812 C 547.964844 556.179688 547.746094 557.777344 547.28125 559.273438 C 545.683594 564.332031 541.320312 568.332031 536.84375 570.351562 C 531.027344 573 524.71875 573.300781 517.644531 573.394531 C 515.070312 573.421875 512.464844 573.4375 509.808594 573.4375 C 493.628906 573.4375 475.835938 572.507812 459.261719 567.171875 C 444.800781 562.535156 432.5 554.699219 423.714844 544.5625 C 423.570312 544.417969 423.441406 544.242188 423.351562 544.070312 C 422.886719 543.386719 422.613281 542.601562 422.539062 541.757812 C 417.453125 545.074219 412.011719 547.777344 406.3125 549.769531 C 389.277344 555.660156 369.929688 555.09375 353.292969 548.242188 C 345.191406 544.929688 339.6875 540.753906 336.429688 535.523438 C 332.75 529.605469 331.890625 520.574219 337.339844 514.773438 C 342.398438 509.421875 350.105469 509.277344 357.171875 509.46875 C 356.824219 508.828125 356.632812 508.089844 356.578125 507.304688 C 356.230469 498.511719 355.941406 489.699219 355.675781 481.132812 C 355.328125 469.890625 354.964844 458.347656 354.453125 446.859375 L 351.601562 447.371094 C 350.222656 447.644531 348.828125 447.296875 347.722656 446.441406 C 346.617188 445.609375 345.933594 444.332031 345.804688 442.933594 L 344.40625 425.082031 C 316.148438 422.96875 287.257812 433.644531 266.878906 453.808594 C 265.601562 455.085938 263.683594 455.554688 261.96875 455.015625 C 260.222656 454.449219 258.925781 453.003906 258.605469 451.207031 C 256.671875 440.578125 250.917969 429.644531 242.402344 420.414062 C 241.441406 419.382812 240.976562 417.957031 241.121094 416.558594 C 241.296875 415.164062 242.054688 413.882812 243.214844 413.070312 C 249.421875 408.726562 256.125 405.144531 263.128906 402.441406 C 263.738281 402.222656 264.421875 402.121094 265.015625 402.121094 C 259.21875 390.113281 258.460938 376.882812 258.507812 370.152344 C 258.828125 330.71875 282.367188 291.679688 317.050781 272.96875 C 348.207031 256.175781 387.679688 255.710938 420.082031 271.71875 C 421.386719 272.382812 422.335938 273.5625 422.65625 274.988281 C 423.003906 276.410156 422.703125 277.910156 421.828125 279.058594 L 417.433594 284.929688 C 419.761719 293.625 426 309.339844 441.988281 321.25 C 456.523438 332.078125 471.90625 334.335938 482.269531 334.335938 C 484.308594 334.335938 486.324219 334.234375 488.214844 334.0625 L 497.492188 323.925781 C 498.476562 322.867188 499.875 322.28125 501.316406 322.328125 C 502.769531 322.398438 504.09375 323.085938 504.996094 324.246094 C 514.695312 336.765625 520.292969 353.949219 520.730469 372.664062 C 521.222656 392.742188 516.210938 412.925781 506.640625 430.632812 C 514.246094 430.210938 521.890625 431.445312 528.710938 434.222656 C 540.515625 438.960938 550.429688 448.292969 555.9375 459.78125 C 558 464.128906 559.398438 468.519531 560.851562 473.160156 C 561.808594 476.15625 562.765625 479.222656 563.917969 482.171875 C 567.277344 490.886719 571.871094 496.828125 577.539062 499.851562 C 580.535156 501.421875 583.804688 502.234375 587.265625 503.09375 C 589.445312 503.632812 591.484375 504.125 593.546875 504.839844 C 600.539062 507.242188 605.160156 511.832031 605.84375 517.140625 C 606.019531 518.417969 605.945312 519.742188 605.652344 521.066406 Z M 605.664062 521.066406 " fill-opacity="1" fill-rule="nonzero"/><path fill="#fdbbff" d="M 382.328125 391.171875 C 380.648438 389.640625 379.359375 387.585938 378.703125 385.390625 C 378.300781 384.039062 377.332031 382.925781 376.054688 382.34375 C 374.777344 381.75 373.296875 381.75 372.011719 382.316406 C 369.160156 383.585938 365.890625 383.765625 363.050781 382.84375 L 362.257812 382.496094 C 360.09375 381.613281 357.59375 382.371094 356.296875 384.324219 C 354.550781 386.964844 353.347656 389.417969 352.605469 391.847656 C 350.753906 397.96875 351.96875 406.167969 357.867188 410.019531 C 359.949219 411.382812 362.3125 411.976562 364.714844 411.976562 C 369.507812 411.976562 374.457031 409.601562 377.671875 406.222656 C 379.972656 403.8125 381.835938 400.78125 383.558594 396.699219 C 384.363281 394.78125 383.878906 392.570312 382.347656 391.164062 Z M 382.328125 391.171875 " fill-opacity="1" fill-rule="nonzero"/><path fill="#e5dfff" d="M 199.394531 509.75 C 196.289062 512.65625 191.550781 513.667969 187.535156 512.289062 C 183.515625 510.910156 180.402344 507.195312 179.738281 503.003906 C 179.023438 498.5 180.960938 494.015625 183.234375 490.0625 C 184.203125 488.382812 185.269531 486.703125 186.839844 485.570312 C 188.410156 484.4375 190.585938 483.953125 192.300781 484.847656 C 194.070312 485.769531 194.910156 487.851562 195.269531 489.824219 C 195.625 491.796875 195.660156 493.863281 196.492188 495.679688 C 197.1875 497.203125 198.355469 498.042969 199.898438 498.554688 C 201.441406 499.066406 201.96875 499.40625 202.34375 501.351562 C 202.929688 504.375 201.605469 507.695312 199.386719 509.761719 Z M 199.394531 509.75 " fill-opacity="1" fill-rule="nonzero"/><path fill="#e5dfff" d="M 388.390625 516.316406 C 400.195312 509.304688 408.074219 494.941406 404.945312 481.570312 C 399.046875 492.390625 389.578125 501.230469 378.375 506.371094 C 370.796875 509.851562 362.816406 511.332031 354.535156 511.625 C 351.457031 511.734375 340.792969 513.367188 344.144531 519.003906 C 346.5625 523.074219 361.535156 522.644531 365.574219 522.527344 C 373.535156 522.289062 381.503906 520.398438 388.390625 516.316406 Z M 388.390625 516.316406 " fill-opacity="1" fill-rule="nonzero"/><path fill="#e5dfff" d="M 547.28125 559.273438 C 545.683594 564.332031 541.320312 568.332031 536.84375 570.351562 C 531.027344 573 524.71875 573.300781 517.644531 573.394531 C 515.070312 573.421875 512.464844 573.4375 509.808594 573.4375 C 493.628906 573.4375 475.835938 572.507812 459.261719 567.171875 C 444.800781 562.535156 432.5 554.699219 423.714844 544.5625 C 423.570312 544.417969 423.441406 544.242188 423.351562 544.070312 C 428.757812 537.613281 435.476562 531.742188 440.972656 526.097656 C 450.488281 541.851562 460.90625 548.652344 468.613281 551.960938 C 481.230469 557.375 490.535156 555.074219 528.253906 557.695312 C 536.296875 558.25 542.898438 558.84375 547.28125 559.265625 Z M 547.28125 559.273438 " fill-opacity="1" fill-rule="nonzero"/><path fill="#e5dfff" d="M 605.664062 521.066406 C 604.996094 524.089844 603.160156 527.03125 600.457031 529.292969 L 600.457031 529.320312 C 597.042969 532.199219 592.769531 533.742188 588.699219 534.964844 C 574.015625 539.429688 558.109375 541.101562 542.425781 539.851562 L 542.398438 539.851562 C 538.515625 536.65625 535.128906 533 533.164062 527.988281 C 530.171875 520.453125 529.429688 512.152344 526.316406 504.664062 C 523.222656 497.148438 516.59375 490.109375 508.496094 490.375 C 505.355469 490.472656 501.082031 490.984375 500.195312 487.992188 C 499.703125 486.273438 500.980469 484.429688 502.625 483.742188 C 504.265625 483.03125 506.128906 483.207031 507.875 483.496094 C 518.574219 485.269531 528.546875 491.230469 535.191406 499.824219 C 540.425781 506.601562 543.738281 515.003906 550.292969 520.527344 C 557.117188 526.300781 566.621094 528.0625 575.53125 527.449219 C 584.46875 526.855469 593.109375 524.164062 601.773438 521.925781 C 603.023438 521.605469 604.328125 521.285156 605.652344 521.066406 Z M 605.664062 521.066406 " fill-opacity="1" fill-rule="nonzero"/><path fill="#fdbbff" d="M 463.289062 431.738281 C 463.289062 432.625 463.203125 433.503906 463.027344 434.371094 C 462.855469 435.242188 462.601562 436.085938 462.261719 436.90625 C 461.921875 437.726562 461.503906 438.503906 461.011719 439.242188 C 460.519531 439.976562 459.960938 440.660156 459.332031 441.289062 C 458.707031 441.914062 458.023438 442.472656 457.285156 442.96875 C 456.550781 443.460938 455.773438 443.875 454.953125 444.214844 C 454.132812 444.554688 453.289062 444.8125 452.417969 444.984375 C 451.550781 445.15625 450.671875 445.242188 449.785156 445.242188 C 448.898438 445.242188 448.019531 445.15625 447.148438 444.984375 C 446.28125 444.8125 445.4375 444.554688 444.617188 444.214844 C 443.796875 443.875 443.019531 443.460938 442.28125 442.96875 C 441.542969 442.472656 440.863281 441.914062 440.234375 441.289062 C 439.609375 440.660156 439.050781 439.976562 438.554688 439.242188 C 438.0625 438.503906 437.648438 437.726562 437.308594 436.90625 C 436.96875 436.085938 436.710938 435.242188 436.539062 434.371094 C 436.367188 433.503906 436.28125 432.625 436.28125 431.738281 C 436.28125 430.851562 436.367188 429.972656 436.539062 429.101562 C 436.710938 428.234375 436.96875 427.386719 437.308594 426.570312 C 437.648438 425.75 438.0625 424.972656 438.554688 424.234375 C 439.050781 423.496094 439.609375 422.8125 440.234375 422.1875 C 440.863281 421.558594 441.542969 421 442.28125 420.507812 C 443.019531 420.015625 443.796875 419.597656 444.617188 419.257812 C 445.4375 418.917969 446.28125 418.664062 447.148438 418.492188 C 448.019531 418.316406 448.898438 418.230469 449.785156 418.230469 C 450.671875 418.230469 451.550781 418.316406 452.417969 418.492188 C 453.289062 418.664062 454.132812 418.917969 454.953125 419.257812 C 455.773438 419.597656 456.550781 420.015625 457.285156 420.507812 C 458.023438 421 458.707031 421.558594 459.332031 422.1875 C 459.960938 422.8125 460.519531 423.496094 461.011719 424.234375 C 461.503906 424.972656 461.921875 425.75 462.261719 426.570312 C 462.601562 427.386719 462.855469 428.234375 463.027344 429.101562 C 463.203125 429.972656 463.289062 430.851562 463.289062 431.738281 Z M 463.289062 431.738281 " fill-opacity="1" fill-rule="nonzero"/><path fill="#fdbbff" d="M 305.875 352.992188 C 305.875 353.878906 305.789062 354.757812 305.617188 355.628906 C 305.445312 356.496094 305.1875 357.339844 304.847656 358.160156 C 304.507812 358.980469 304.09375 359.757812 303.601562 360.496094 C 303.109375 361.234375 302.546875 361.914062 301.921875 362.542969 C 301.292969 363.167969 300.613281 363.730469 299.875 364.222656 C 299.136719 364.714844 298.359375 365.132812 297.539062 365.46875 C 296.722656 365.808594 295.875 366.066406 295.007812 366.238281 C 294.136719 366.410156 293.257812 366.5 292.371094 366.5 C 291.484375 366.5 290.609375 366.410156 289.738281 366.238281 C 288.867188 366.066406 288.023438 365.808594 287.203125 365.46875 C 286.386719 365.132812 285.605469 364.714844 284.871094 364.222656 C 284.132812 363.730469 283.449219 363.167969 282.824219 362.542969 C 282.195312 361.914062 281.636719 361.234375 281.144531 360.496094 C 280.652344 359.757812 280.234375 358.980469 279.894531 358.160156 C 279.558594 357.339844 279.300781 356.496094 279.128906 355.628906 C 278.953125 354.757812 278.867188 353.878906 278.867188 352.992188 C 278.867188 352.105469 278.953125 351.226562 279.128906 350.355469 C 279.300781 349.488281 279.558594 348.644531 279.894531 347.824219 C 280.234375 347.003906 280.652344 346.226562 281.144531 345.488281 C 281.636719 344.75 282.195312 344.070312 282.824219 343.441406 C 283.449219 342.816406 284.132812 342.253906 284.871094 341.761719 C 285.605469 341.269531 286.386719 340.851562 287.203125 340.515625 C 288.023438 340.175781 288.867188 339.917969 289.738281 339.746094 C 290.609375 339.574219 291.484375 339.484375 292.371094 339.484375 C 293.257812 339.484375 294.136719 339.574219 295.007812 339.746094 C 295.875 339.917969 296.722656 340.175781 297.539062 340.515625 C 298.359375 340.851562 299.136719 341.269531 299.875 341.761719 C 300.613281 342.253906 301.292969 342.816406 301.921875 343.441406 C 302.546875 344.070312 303.109375 344.75 303.601562 345.488281 C 304.09375 346.226562 304.507812 347.003906 304.847656 347.824219 C 305.1875 348.644531 305.445312 349.488281 305.617188 350.355469 C 305.789062 351.226562 305.875 352.105469 305.875 352.992188 Z M 305.875 352.992188 " fill-opacity="1" fill-rule="nonzero"/><path fill="#220086" d="M 482.28125 339.257812 C 471.769531 339.257812 454.925781 337.011719 439.046875 325.195312 C 421.507812 312.125 414.90625 294.785156 412.539062 285.617188 C 412.257812 284.539062 412.484375 283.386719 413.152344 282.484375 L 441.75 244.285156 C 432.882812 237.390625 428.765625 224.695312 432.308594 213.554688 C 436.0625 201.757812 448.078125 192.828125 460.898438 192.316406 C 471.488281 191.875 482.152344 196.890625 489.183594 205.320312 C 497.183594 196.882812 509.351562 192.371094 520.914062 193.894531 C 534.132812 195.628906 546.09375 205.21875 550.679688 217.738281 C 554.386719 227.855469 553.171875 239.617188 547.839844 248.96875 C 558.203125 250.347656 567.78125 257.488281 571.449219 267.398438 C 576.035156 279.773438 570.8125 294.875 559.5625 301.78125 C 549.453125 307.980469 535.648438 306.847656 526.453125 299.523438 L 491.511719 337.742188 C 490.898438 338.410156 490.070312 338.828125 489.164062 338.917969 C 487.402344 339.101562 485.054688 339.257812 482.253906 339.257812 Z M 420.136719 285.460938 C 422.601562 294.007812 428.738281 308.328125 443.449219 319.285156 C 460.457031 331.941406 478.730469 332.355469 487.066406 331.714844 L 523.53125 291.824219 C 524.226562 291.066406 525.324219 290.601562 526.253906 290.628906 C 527.277344 290.628906 528.261719 291.058594 528.957031 291.808594 C 535.503906 298.894531 547.511719 300.546875 555.726562 295.507812 C 563.945312 290.464844 567.90625 279.003906 564.558594 269.953125 C 561.207031 260.914062 550.75 254.804688 541.210938 256.332031 C 539.65625 256.578125 538.132812 255.820312 537.382812 254.449219 C 536.644531 253.070312 536.84375 251.378906 537.894531 250.222656 C 545.070312 242.332031 547.425781 230.292969 543.757812 220.277344 C 540.085938 210.257812 530.519531 202.597656 519.945312 201.199219 C 509.390625 199.804688 498.140625 204.734375 492.003906 213.464844 C 491.292969 214.476562 490.132812 215.125 488.882812 215.027344 C 487.648438 214.988281 486.507812 214.339844 485.859375 213.292969 C 480.574219 204.769531 470.695312 199.308594 461.179688 199.683594 C 451.355469 200.078125 442.160156 206.851562 439.320312 215.792969 C 436.425781 224.898438 440.664062 235.800781 448.769531 240.101562 C 449.722656 240.605469 450.40625 241.5 450.644531 242.550781 C 450.878906 243.601562 450.644531 244.707031 449.996094 245.5625 L 420.121094 285.46875 Z M 420.136719 285.460938 " fill-opacity="1" fill-rule="nonzero"/><path fill="#220086" d="M 421.535156 276.339844 C 422.667969 274.75 424.21875 273.214844 425.925781 271.980469 C 392.71875 253.453125 349.367188 252.796875 315.894531 270.839844 C 280.4375 289.953125 256.398438 329.859375 256.058594 370.140625 C 255.878906 392.542969 263.574219 410.972656 277.179688 420.707031 C 277.828125 421.171875 278.574219 421.390625 279.316406 421.390625 C 280.464844 421.390625 281.589844 420.851562 282.308594 419.847656 C 283.496094 418.195312 283.113281 415.894531 281.460938 414.707031 C 264.945312 402.890625 263.347656 379.640625 263.417969 370.1875 C 263.730469 332.507812 286.21875 295.1875 319.382812 277.304688 C 350.1875 260.695312 389.933594 261.042969 420.785156 277.5625 C 420.996094 277.132812 421.242188 276.710938 421.523438 276.328125 Z M 421.535156 276.339844 " fill-opacity="1" fill-rule="nonzero"/><path fill="#220086" d="M 523.214844 372.609375 C 522.683594 350.773438 515.542969 331.570312 503.371094 318.4375 C 503.023438 319.039062 502.640625 319.605469 502.265625 320.125 C 501.261719 321.496094 499.882812 322.839844 498.351562 323.84375 C 509.078125 335.640625 515.371094 352.972656 515.855469 372.78125 C 516.511719 399.894531 506.703125 427.207031 488.953125 447.71875 C 487.621094 449.253906 487.785156 451.582031 489.328125 452.914062 C 490.023438 453.515625 490.882812 453.808594 491.738281 453.808594 C 492.773438 453.808594 493.804688 453.378906 494.523438 452.539062 C 513.460938 430.667969 523.917969 401.527344 523.222656 372.609375 Z M 523.214844 372.609375 " fill-opacity="1" fill-rule="nonzero"/><path fill="#220086" d="M 390.125 399.054688 C 387.484375 399.054688 384.847656 398.46875 382.492188 397.246094 C 378.375 395.128906 375.324219 391.21875 374 386.808594 C 370.121094 388.535156 365.636719 388.855469 361.519531 387.511719 C 355.074219 385.410156 350.296875 379.464844 349.628906 372.726562 C 349.429688 370.699219 350.910156 368.898438 352.9375 368.699219 C 354.9375 368.515625 356.761719 369.976562 356.960938 372.003906 C 357.335938 375.832031 360.148438 379.328125 363.800781 380.515625 C 367.445312 381.695312 371.789062 380.535156 374.347656 377.667969 C 375.433594 376.453125 377.1875 376.097656 378.65625 376.789062 C 380.136719 377.484375 380.976562 379.0625 380.730469 380.671875 C 380.136719 384.578125 382.335938 388.898438 385.859375 390.707031 C 389.375 392.515625 394.171875 391.8125 397 389.054688 C 398.460938 387.640625 400.789062 387.675781 402.203125 389.128906 C 403.621094 390.589844 403.582031 392.917969 402.132812 394.332031 C 398.953125 397.417969 394.527344 399.0625 390.125 399.0625 Z M 390.125 399.054688 " fill-opacity="1" fill-rule="nonzero"/><path fill="#220086" d="M 380.746094 390.214844 C 379.230469 394.808594 377.316406 399.464844 374.101562 402.84375 C 370.742188 406.378906 364.597656 408.558594 360.542969 405.910156 C 356.707031 403.410156 356.011719 397.539062 357.300781 393.28125 C 358.25 390.148438 360.085938 387.238281 362.183594 384.515625 C 360.011719 384.46875 357.875 383.484375 356.378906 381.695312 C 356.140625 381.410156 355.957031 381.089844 355.777344 380.773438 C 353.476562 383.847656 351.429688 387.246094 350.25 391.144531 C 348.195312 397.921875 349.285156 407.363281 356.515625 412.085938 C 359.082031 413.765625 361.910156 414.488281 364.742188 414.488281 C 370.285156 414.488281 375.835938 411.710938 379.441406 407.929688 C 383.09375 404.09375 385.339844 399.28125 387.011719 394.652344 C 384.007812 394.351562 381.863281 392.523438 380.757812 390.222656 Z M 380.746094 390.214844 " fill-opacity="1" fill-rule="nonzero"/><path fill="#220086" d="M 253.933594 452.183594 L 182.441406 408.46875 C 181.199219 407.710938 179.628906 407.746094 178.429688 408.578125 C 177.234375 409.402344 176.632812 410.851562 176.898438 412.285156 C 180.933594 434.167969 184.804688 456.011719 188.546875 477.140625 C 189.871094 484.621094 191.214844 492.210938 192.574219 499.84375 C 194.546875 498.226562 197.339844 497.660156 199.777344 498.308594 C 198.4375 490.765625 197.101562 483.261719 195.796875 475.863281 C 192.519531 457.324219 189.132812 438.25 185.625 419.0625 L 248.300781 457.378906 C 248.097656 474.328125 247.914062 491.699219 247.742188 509.058594 C 247.578125 525.203125 247.414062 541.347656 247.230469 557.15625 L 207.09375 538.792969 C 206.453125 535.332031 205.832031 531.886719 205.203125 528.4375 C 203.742188 530.753906 201.578125 532.609375 198.683594 533.761719 C 199.183594 536.507812 199.6875 539.257812 200.191406 542.015625 C 200.410156 543.191406 201.183594 544.199219 202.28125 544.699219 L 249.3125 566.214844 C 249.804688 566.433594 250.324219 566.542969 250.847656 566.542969 C 251.53125 566.542969 252.214844 566.351562 252.820312 565.96875 C 253.867188 565.300781 254.515625 564.152344 254.527344 562.898438 C 254.734375 545.285156 254.925781 527.203125 255.109375 509.121094 C 255.292969 491.050781 255.476562 472.976562 255.695312 455.363281 C 255.714844 454.066406 255.039062 452.851562 253.933594 452.175781 Z M 253.933594 452.183594 " fill-opacity="1" fill-rule="nonzero"/><path fill="#220086" d="M 271.738281 567.257812 C 271.738281 567.257812 271.65625 567.257812 271.609375 567.257812 L 250.726562 566.535156 C 248.691406 566.460938 247.101562 564.761719 247.175781 562.726562 C 247.25 560.691406 248.992188 559.128906 250.984375 559.175781 L 268.304688 559.769531 C 269.234375 545.394531 270.386719 527.597656 271.273438 513.859375 C 272.320312 497.496094 273.5 479.03125 274.550781 462.402344 L 251.640625 459.042969 C 249.632812 458.75 248.234375 456.878906 248.527344 454.859375 C 248.820312 452.839844 250.683594 451.445312 252.707031 451.746094 L 278.96875 455.597656 C 280.867188 455.875 282.226562 457.5625 282.109375 459.480469 C 281.003906 476.96875 279.734375 496.847656 278.613281 514.335938 C 277.652344 529.230469 276.382812 548.910156 275.417969 563.804688 C 275.289062 565.75 273.671875 567.246094 271.746094 567.246094 Z M 271.738281 567.257812 " fill-opacity="1" fill-rule="nonzero"/><path fill="#220086" d="M 353.226562 481.234375 C 353.53125 491.039062 353.847656 501.121094 354.277344 511.222656 C 356.761719 511.269531 359.21875 511.46875 361.675781 511.695312 C 361.226562 501.378906 360.898438 491.050781 360.585938 481.003906 C 360.222656 469.324219 359.847656 457.253906 359.28125 445.234375 C 359.226562 444.175781 358.726562 443.1875 357.894531 442.523438 C 357.0625 441.855469 355.984375 441.582031 354.9375 441.792969 L 278.191406 456 C 276.191406 456.367188 274.867188 458.292969 275.242188 460.292969 C 275.609375 462.292969 277.527344 463.625 279.535156 463.242188 L 352.113281 449.800781 C 352.578125 460.367188 352.898438 470.960938 353.21875 481.242188 Z M 353.226562 481.234375 " fill-opacity="1" fill-rule="nonzero"/><path fill="#220086" d="M 348.789062 544.214844 C 347.90625 543.59375 347.246094 542.765625 346.78125 541.839844 L 271.28125 560.132812 C 269.308594 560.617188 268.09375 562.597656 268.570312 564.582031 C 268.980469 566.269531 270.484375 567.394531 272.148438 567.394531 C 272.429688 567.394531 272.722656 567.355469 273.015625 567.292969 L 354.316406 547.59375 C 352.359375 546.625 350.515625 545.421875 348.789062 544.214844 Z M 348.789062 544.214844 " fill-opacity="1" fill-rule="nonzero"/><path fill="#220086" d="M 349.238281 423.671875 C 349.101562 421.875 347.675781 420.449219 345.886719 420.296875 C 315.730469 417.691406 284.894531 429.097656 263.445312 450.328125 C 261.164062 437.800781 254.269531 425.179688 243.816406 414.722656 C 232.203125 403.109375 216.121094 396.339844 199.6875 396.140625 C 198.152344 396.121094 196.738281 397.082031 196.191406 398.535156 L 189.46875 416.515625 C 189.808594 416.714844 190.144531 416.925781 190.445312 417.199219 C 192.082031 418.6875 193.835938 419.894531 195.707031 420.871094 L 202.160156 403.59375 C 215.777344 404.394531 228.941406 410.269531 238.601562 419.929688 C 249.429688 430.761719 256.152344 444.566406 256.835938 457.207031 C 260.113281 456.492188 263.683594 456.558594 267.246094 456.960938 C 286.5 437.0625 314.488281 426.003906 342.144531 427.410156 L 343.871094 449.453125 C 346.015625 448.074219 348.527344 447.316406 351.0625 447.015625 L 349.238281 423.664062 Z M 349.238281 423.671875 " fill-opacity="1" fill-rule="nonzero"/><path fill="#220086" d="M 216.480469 512.015625 C 215.914062 506.902344 212.980469 502.117188 208.453125 498.867188 C 203.925781 495.617188 198.445312 494.382812 193.421875 495.488281 C 191.441406 495.925781 190.183594 497.890625 190.621094 499.871094 C 191.058594 501.851562 192.996094 503.132812 195.003906 502.675781 C 197.988281 502.015625 201.332031 502.8125 204.171875 504.847656 C 207 506.875 208.828125 509.789062 209.164062 512.828125 C 209.851562 518.957031 205.496094 524.671875 200.875 527.632812 C 190.929688 533.988281 175.910156 531.640625 167.390625 522.410156 C 159.148438 513.476562 156.890625 499.257812 161.769531 487.023438 C 166.222656 475.835938 176.367188 466.511719 188.941406 461.925781 C 188.683594 460.011719 188.648438 458.054688 188.65625 456.054688 C 188.65625 455.542969 188.695312 455.042969 188.757812 454.558594 C 188.21875 454.496094 187.671875 454.539062 187.125 454.730469 C 172.269531 459.917969 160.234375 470.96875 154.917969 484.292969 C 149.019531 499.113281 151.851562 516.4375 161.976562 527.402344 C 168.726562 534.71875 178.414062 538.609375 187.910156 538.609375 C 193.898438 538.609375 199.804688 537.054688 204.835938 533.832031 C 212.828125 528.726562 217.402344 520.164062 216.488281 512.007812 Z M 216.480469 512.015625 " fill-opacity="1" fill-rule="nonzero"/><path fill="#220086" d="M 381.851562 556.28125 C 371.753906 556.28125 361.65625 554.351562 352.351562 550.535156 C 343.769531 547.011719 337.878906 542.515625 334.335938 536.820312 C 330.164062 530.105469 329.25 519.804688 335.558594 513.09375 C 341.707031 506.566406 350.78125 506.828125 358.816406 507.066406 C 360.917969 507.132812 362.90625 507.1875 364.816406 507.140625 C 380.320312 506.71875 394.898438 496.265625 400.277344 481.714844 C 400.980469 479.808594 403.101562 478.832031 405.007812 479.542969 C 406.917969 480.246094 407.894531 482.363281 407.179688 484.273438 C 400.78125 501.570312 383.441406 514.007812 365.007812 514.507812 C 362.886719 514.574219 360.707031 514.507812 358.585938 514.445312 C 351.492188 514.226562 344.792969 514.035156 340.910156 518.152344 C 337.1875 522.117188 337.960938 528.726562 340.582031 532.9375 C 343.277344 537.277344 348.042969 540.800781 355.144531 543.722656 C 370.722656 550.132812 388.78125 550.636719 404.699219 545.128906 C 420.613281 539.613281 434.492188 528.042969 442.773438 513.378906 C 443.777344 511.605469 446.023438 510.984375 447.792969 511.980469 C 449.566406 512.984375 450.195312 515.230469 449.191406 517.003906 C 440.042969 533.210938 424.703125 545.996094 407.109375 552.085938 C 399.027344 554.890625 390.433594 556.28125 381.84375 556.28125 Z M 381.851562 556.28125 " fill-opacity="1" fill-rule="nonzero"/><g clip-path="url(#3455f04967)"><path fill="#220086" d="M 550.347656 554.378906 C 550.03125 548.015625 546.058594 543.191406 542.550781 538.9375 C 540.542969 536.507812 538.652344 534.207031 537.429688 531.75 C 535.742188 528.363281 535.210938 524.398438 534.644531 520.207031 C 534.261719 517.378906 533.867188 514.445312 533.09375 511.542969 C 528.234375 493.40625 508.019531 481.597656 489.859375 486.300781 C 487.886719 486.804688 486.699219 488.8125 487.210938 490.785156 C 487.714844 492.757812 489.730469 493.953125 491.695312 493.433594 C 505.855469 489.78125 522.199219 499.324219 525.980469 513.449219 C 526.636719 515.886719 526.976562 518.464844 527.347656 521.183594 C 527.96875 525.796875 528.609375 530.554688 530.847656 535.039062 C 532.445312 538.242188 534.699219 540.972656 536.871094 543.621094 C 540.050781 547.476562 542.796875 550.808594 543 554.753906 C 543.253906 559.742188 538.9375 564.023438 534.816406 565.894531 C 529.878906 568.132812 524.089844 568.386719 517.578125 568.480469 C 499.828125 568.726562 479.347656 568.480469 460.777344 562.515625 C 446.359375 557.886719 434.355469 549.960938 426.265625 540.023438 C 424.527344 541.292969 422.628906 542.308594 420.765625 542.972656 C 420.339844 543.128906 419.898438 543.230469 419.472656 543.3125 C 428.464844 555 442.105469 564.261719 458.511719 569.53125 C 475.414062 574.953125 493.464844 575.902344 509.855469 575.902344 C 512.503906 575.902344 515.113281 575.875 517.671875 575.839844 C 525.019531 575.738281 531.613281 575.429688 537.851562 572.589844 C 544.378906 569.621094 550.769531 562.835938 550.339844 554.371094 Z M 550.347656 554.378906 " fill-opacity="1" fill-rule="nonzero"/></g><path fill="#220086" d="M 608.292969 516.8125 C 607.480469 510.566406 602.265625 505.214844 594.351562 502.511719 C 592.175781 501.769531 589.984375 501.230469 587.867188 500.710938 C 584.554688 499.898438 581.421875 499.132812 578.710938 497.6875 C 573.578125 494.957031 569.367188 489.441406 566.210938 481.296875 C 565.09375 478.429688 564.136719 475.386719 563.214844 472.449219 C 561.78125 467.910156 560.300781 463.214844 558.164062 458.742188 C 552.402344 446.703125 542.011719 436.933594 529.640625 431.949219 C 522.328125 428.996094 514.355469 427.773438 506.476562 428.195312 C 506.375 428.667969 506.230469 429.132812 506.019531 429.582031 C 504.980469 431.835938 503.71875 433.964844 502.3125 435.992188 C 510.558594 434.742188 519.148438 435.65625 526.882812 438.777344 C 537.566406 443.089844 546.550781 451.515625 551.519531 461.917969 C 553.4375 465.925781 554.777344 470.171875 556.191406 474.667969 C 557.160156 477.71875 558.15625 480.875 559.351562 483.964844 C 563.167969 493.808594 568.519531 500.621094 575.257812 504.199219 C 578.78125 506.070312 582.507812 506.992188 586.113281 507.878906 C 588.167969 508.382812 590.105469 508.867188 591.96875 509.496094 C 595.984375 510.875 600.46875 513.769531 600.988281 517.789062 C 601.316406 520.34375 599.875 523.402344 597.300781 525.570312 C 594.550781 527.878906 590.84375 529.210938 587.253906 530.308594 C 570.316406 535.46875 552.15625 536.699219 534.625 534.078125 C 535.09375 535.292969 535.621094 535.871094 536.910156 536.753906 C 538.855469 538.097656 539.695312 540.089844 539.710938 542.125 C 543.976562 542.554688 548.257812 542.792969 552.539062 542.792969 C 565.023438 542.792969 577.496094 540.984375 589.402344 537.359375 C 593.738281 536.035156 598.277344 534.378906 602.039062 531.222656 C 606.558594 527.421875 608.960938 521.914062 608.292969 516.847656 Z M 608.292969 516.8125 " fill-opacity="1" fill-rule="nonzero"/><path fill="#220086" d="M 441.335938 383.902344 C 442.011719 384.132812 442.648438 384.453125 443.246094 384.867188 C 443.84375 385.285156 444.394531 385.785156 444.890625 386.371094 C 445.386719 386.960938 445.824219 387.621094 446.203125 388.355469 C 446.582031 389.089844 446.890625 389.886719 447.136719 390.742188 C 447.378906 391.597656 447.550781 392.5 447.648438 393.441406 C 447.75 394.386719 447.777344 395.355469 447.726562 396.351562 C 447.679688 397.34375 447.558594 398.347656 447.367188 399.355469 C 447.171875 400.363281 446.910156 401.355469 446.578125 402.339844 C 446.246094 403.320312 445.851562 404.273438 445.394531 405.191406 C 444.9375 406.109375 444.425781 406.980469 443.863281 407.800781 C 443.296875 408.617188 442.6875 409.375 442.039062 410.0625 C 441.386719 410.753906 440.703125 411.367188 439.992188 411.898438 C 439.28125 412.429688 438.550781 412.875 437.804688 413.230469 C 437.058594 413.585938 436.308594 413.847656 435.558594 414.011719 C 434.804688 414.179688 434.066406 414.246094 433.339844 414.210938 C 432.609375 414.179688 431.910156 414.050781 431.234375 413.820312 C 430.558594 413.59375 429.921875 413.269531 429.320312 412.855469 C 428.722656 412.441406 428.175781 411.9375 427.679688 411.351562 C 427.179688 410.765625 426.742188 410.105469 426.367188 409.367188 C 425.988281 408.632812 425.675781 407.835938 425.433594 406.980469 C 425.191406 406.125 425.019531 405.226562 424.917969 404.28125 C 424.820312 403.339844 424.792969 402.371094 424.839844 401.375 C 424.886719 400.378906 425.007812 399.378906 425.203125 398.371094 C 425.394531 397.363281 425.660156 396.367188 425.988281 395.386719 C 426.320312 394.402344 426.714844 393.453125 427.171875 392.535156 C 427.628906 391.613281 428.140625 390.746094 428.707031 389.925781 C 429.273438 389.105469 429.878906 388.351562 430.53125 387.660156 C 431.183594 386.96875 431.863281 386.359375 432.578125 385.824219 C 433.289062 385.292969 434.019531 384.847656 434.765625 384.492188 C 435.511719 384.136719 436.261719 383.875 437.011719 383.710938 C 437.761719 383.546875 438.503906 383.480469 439.230469 383.511719 C 439.957031 383.542969 440.660156 383.675781 441.335938 383.902344 Z M 441.335938 383.902344 " fill-opacity="1" fill-rule="nonzero"/><path fill="#220086" d="M 338.25 332.53125 C 338.890625 332.84375 339.480469 333.242188 340.023438 333.730469 C 340.5625 334.21875 341.042969 334.789062 341.460938 335.433594 C 341.878906 336.078125 342.226562 336.789062 342.507812 337.566406 C 342.789062 338.347656 342.996094 339.175781 343.128906 340.054688 C 343.261719 340.933594 343.316406 341.847656 343.292969 342.796875 C 343.273438 343.746094 343.175781 344.710938 343 345.691406 C 342.824219 346.671875 342.578125 347.648438 342.257812 348.625 C 341.9375 349.601562 341.550781 350.554688 341.09375 351.484375 C 340.640625 352.417969 340.128906 353.308594 339.558594 354.160156 C 338.984375 355.015625 338.367188 355.8125 337.703125 356.554688 C 337.039062 357.292969 336.339844 357.964844 335.605469 358.566406 C 334.871094 359.167969 334.117188 359.6875 333.339844 360.125 C 332.566406 360.5625 331.785156 360.910156 331 361.167969 C 330.214844 361.425781 329.4375 361.585938 328.671875 361.65625 C 327.90625 361.722656 327.164062 361.695312 326.445312 361.570312 C 325.730469 361.445312 325.050781 361.226562 324.410156 360.914062 C 323.765625 360.597656 323.175781 360.199219 322.636719 359.710938 C 322.097656 359.222656 321.617188 358.65625 321.199219 358.007812 C 320.78125 357.363281 320.429688 356.652344 320.148438 355.875 C 319.867188 355.097656 319.660156 354.265625 319.53125 353.386719 C 319.398438 352.507812 319.34375 351.59375 319.363281 350.644531 C 319.386719 349.695312 319.484375 348.730469 319.65625 347.75 C 319.832031 346.769531 320.078125 345.792969 320.402344 344.816406 C 320.722656 343.84375 321.109375 342.890625 321.5625 341.957031 C 322.015625 341.027344 322.53125 340.132812 323.101562 339.28125 C 323.671875 338.425781 324.289062 337.628906 324.953125 336.890625 C 325.621094 336.148438 326.320312 335.476562 327.054688 334.875 C 327.789062 334.273438 328.542969 333.753906 329.316406 333.316406 C 330.089844 332.878906 330.871094 332.53125 331.65625 332.273438 C 332.441406 332.015625 333.21875 331.855469 333.984375 331.785156 C 334.75 331.71875 335.492188 331.75 336.210938 331.875 C 336.929688 332 337.609375 332.21875 338.25 332.53125 Z M 338.25 332.53125 " fill-opacity="1" fill-rule="nonzero"/><path fill="#220086" d="M 237.316406 414.386719 C 239.835938 415.371094 241.46875 417.59375 242.089844 419.992188 C 249.851562 413.902344 258.726562 409.089844 268.039062 405.882812 C 267.746094 405.59375 267.425781 405.328125 267.152344 405.015625 C 266.789062 404.597656 266.542969 404.078125 266.269531 403.601562 C 265.554688 402.351562 265 401.015625 264.953125 399.539062 C 264.933594 399.410156 264.960938 399.28125 264.953125 399.15625 C 255.019531 402.652344 245.570312 407.847656 237.296875 414.386719 Z M 237.316406 414.386719 " fill-opacity="1" fill-rule="nonzero"/></svg>