<svg xmlns="http://www.w3.org/2000/svg" xmlns:xlink="http://www.w3.org/1999/xlink" width="1024" zoomAndPan="magnify" viewBox="0 0 768 767.999994" height="1024" preserveAspectRatio="xMidYMid meet" version="1.0"><defs><clipPath id="25afab5a08"><path d="M 221 468 L 472 468 L 472 607.097656 L 221 607.097656 Z M 221 468 " clip-rule="nonzero"/></clipPath></defs><path fill="#ffd03c" d="M 297.472656 270.980469 L 287.457031 259.460938 C 283.347656 254.730469 282.761719 247.960938 285.988281 242.601562 L 293.859375 229.519531 C 297.835938 222.917969 297.128906 214.890625 292.082031 209.074219 C 288.253906 204.664062 280.730469 200.800781 272.078125 204.449219 L 258.019531 210.414062 C 252.265625 212.855469 245.640625 211.324219 241.535156 206.597656 L 231.519531 195.066406 C 228.125 191.167969 223.507812 189.011719 218.519531 189.011719 C 216.140625 189.011719 213.722656 189.503906 211.523438 190.433594 C 204.421875 193.441406 200.269531 200.34375 200.9375 208.027344 L 202.265625 223.234375 C 202.804688 229.464844 199.304688 235.289062 193.542969 237.734375 L 179.472656 243.6875 C 172.375 246.695312 168.230469 253.597656 168.898438 261.28125 C 169.570312 268.964844 174.847656 275.039062 182.363281 276.773438 L 197.25 280.222656 C 203.34375 281.632812 207.804688 286.761719 208.34375 292.992188 L 209.671875 308.199219 C 210.34375 315.882812 215.628906 321.957031 223.136719 323.695312 C 224.511719 324.011719 225.878906 324.167969 227.234375 324.167969 C 233.246094 324.167969 238.804688 321.085938 242.046875 315.6875 L 249.917969 302.597656 C 253.140625 297.230469 259.414062 294.574219 265.5 295.996094 L 280.375 299.429688 C 287.882812 301.167969 295.296875 298.027344 299.285156 291.425781 C 302.304688 286.40625 303.652344 278.046875 297.5 270.96875 Z M 297.472656 270.980469 " fill-opacity="1" fill-rule="nonzero"/><path fill="#c4a5ff" d="M 613.511719 435.378906 C 612.496094 440.292969 610.472656 445.113281 607.554688 449.375 C 600.734375 459.261719 589.0625 466.625 575.496094 469.609375 C 574.148438 469.886719 572.792969 470.128906 571.351562 470.34375 C 569.449219 470.621094 567.421875 470.835938 565.304688 470.984375 C 571.9375 480.410156 575.136719 491 574.148438 500.976562 C 574.148438 501.042969 574.148438 501.136719 574.121094 501.191406 C 572.523438 516.761719 559.933594 531.425781 543.382812 536.863281 C 528.980469 541.65625 511.875 540.242188 495.261719 532.933594 C 486.535156 529.066406 477.542969 523.449219 467.839844 515.804688 C 468.972656 527.285156 468.734375 538.925781 466.976562 550.273438 C 463.910156 570.441406 455.769531 584.292969 443.449219 590.339844 C 434.945312 594.480469 424.289062 594.972656 411.753906 591.75 C 381.285156 583.957031 356.410156 559.175781 347.9375 529.058594 C 343.886719 546.464844 337.863281 560.707031 329.632812 572.410156 C 318.390625 588.34375 302.398438 599.460938 285.773438 602.871094 C 282.148438 603.605469 278.5 603.976562 274.902344 603.976562 C 262.339844 603.976562 250.121094 599.675781 241.183594 592.066406 C 239.210938 590.441406 237.4375 588.601562 235.8125 586.632812 C 228.5 577.605469 224.753906 565.539062 224.910156 552.375 C 224.941406 551.027344 225.003906 549.644531 225.097656 548.257812 C 218.34375 552.003906 212.078125 554.558594 205.9375 556.023438 C 191.136719 559.527344 170.832031 556.453125 161.160156 541.386719 C 159.933594 539.453125 158.921875 537.429688 158.121094 535.246094 C 154.003906 524.164062 155.480469 510.007812 162.570312 493.796875 C 172.058594 472.089844 187.019531 452.5625 205.808594 437.308594 C 206.300781 436.910156 206.820312 436.605469 207.378906 436.390625 C 189.324219 421.222656 175.589844 400.933594 168.808594 378.183594 C 158.921875 344.964844 164.261719 307.511719 183.183594 278.011719 C 184.566406 275.828125 187.203125 274.757812 189.722656 275.335938 L 197.917969 277.238281 C 205.316406 278.929688 210.722656 285.164062 211.402344 292.714844 L 212.722656 307.941406 C 213.277344 314.359375 217.515625 319.273438 223.804688 320.710938 C 230.011719 322.152344 236.117188 319.542969 239.378906 314.109375 L 247.269531 301.027344 C 251.171875 294.515625 258.78125 291.292969 266.160156 293.011719 L 281.054688 296.449219 C 287.316406 297.890625 293.308594 295.371094 296.628906 289.84375 C 299.972656 284.316406 299.386719 277.84375 295.148438 272.996094 L 285.140625 261.449219 C 280.171875 255.707031 279.464844 247.515625 283.359375 241.003906 L 291.246094 227.921875 C 294.5625 222.398438 294.007812 215.921875 289.769531 211.074219 C 285.53125 206.1875 279.234375 204.746094 273.277344 207.265625 L 260.164062 212.820312 C 257.277344 214.046875 253.929688 212.882812 252.398438 210.117188 C 250.863281 207.386719 251.664062 203.910156 254.238281 202.136719 C 290.996094 176.441406 336.601562 164.5625 379.289062 169.53125 C 430.078125 175.457031 477.375 205.667969 502.714844 248.367188 C 525.75 287.234375 530.226562 336.328125 515.398438 377.859375 C 515.703125 377.792969 516.039062 377.792969 516.34375 377.765625 C 539.660156 377.859375 562.164062 382.375 583.265625 391.179688 C 592.789062 395.136719 604.515625 401.128906 610.507812 412.117188 C 614.253906 418.9375 615.210938 427.316406 613.519531 435.359375 Z M 613.511719 435.378906 " fill-opacity="1" fill-rule="nonzero"/><path fill="#220086" d="M 374.492188 388.253906 C 369.886719 391.105469 364.726562 392.339844 359.570312 392.339844 C 353.585938 392.339844 347.59375 390.714844 342.621094 388.199219 C 341.453125 387.613281 340.316406 386.972656 339.277344 386.292969 C 330.804688 380.886719 325.644531 372.417969 321.464844 364.890625 C 320.453125 363.050781 320.425781 360.84375 321.398438 359.03125 C 322.382812 357.191406 324.222656 355.964844 326.277344 355.777344 C 335.523438 354.980469 344.460938 351.914062 352.101562 346.878906 C 359.253906 342.21875 365.332031 335.796875 369.726562 328.300781 C 370.859375 326.332031 372.953125 325.171875 375.285156 325.265625 C 377.589844 325.386719 379.613281 326.742188 380.5625 328.792969 C 382.679688 333.308594 384.890625 338.398438 386.488281 344.019531 C 387.4375 347.363281 388.207031 350.929688 388.582031 354.644531 C 389.714844 366.285156 385.820312 381.203125 374.484375 388.261719 Z M 374.492188 388.253906 " fill-opacity="1" fill-rule="nonzero"/><path fill="#fdbbff" d="M 374.492188 388.253906 C 369.886719 391.105469 364.726562 392.339844 359.570312 392.339844 C 353.585938 392.339844 347.59375 390.714844 342.621094 388.199219 C 342.195312 383.628906 342.53125 379.019531 343.300781 375.238281 C 345.113281 366.367188 349.933594 358.109375 356.847656 352.25 C 364.894531 345.402344 375.953125 341.875 386.292969 343.964844 C 386.359375 343.964844 386.453125 343.992188 386.507812 344.027344 C 387.457031 347.371094 388.226562 350.941406 388.597656 354.65625 C 389.734375 366.292969 385.839844 381.214844 374.503906 388.273438 Z M 374.492188 388.253906 " fill-opacity="1" fill-rule="nonzero"/><path fill="#fdbbff" d="M 462.832031 302.765625 C 462.832031 303.359375 462.804688 303.953125 462.746094 304.546875 C 462.6875 305.136719 462.597656 305.722656 462.484375 306.308594 C 462.367188 306.890625 462.222656 307.464844 462.050781 308.035156 C 461.878906 308.605469 461.679688 309.164062 461.449219 309.710938 C 461.222656 310.261719 460.96875 310.796875 460.6875 311.324219 C 460.40625 311.847656 460.101562 312.355469 459.773438 312.851562 C 459.441406 313.34375 459.089844 313.820312 458.710938 314.28125 C 458.332031 314.742188 457.933594 315.179688 457.515625 315.601562 C 457.09375 316.019531 456.652344 316.417969 456.195312 316.796875 C 455.734375 317.175781 455.257812 317.527344 454.761719 317.859375 C 454.269531 318.1875 453.757812 318.492188 453.234375 318.773438 C 452.710938 319.054688 452.171875 319.308594 451.625 319.535156 C 451.074219 319.761719 450.515625 319.964844 449.945312 320.136719 C 449.378906 320.308594 448.800781 320.453125 448.21875 320.566406 C 447.636719 320.683594 447.046875 320.769531 446.457031 320.828125 C 445.863281 320.886719 445.269531 320.917969 444.675781 320.917969 C 444.082031 320.917969 443.488281 320.886719 442.894531 320.828125 C 442.304688 320.769531 441.71875 320.683594 441.132812 320.566406 C 440.550781 320.453125 439.972656 320.308594 439.40625 320.136719 C 438.835938 319.964844 438.277344 319.761719 437.726562 319.535156 C 437.179688 319.308594 436.640625 319.054688 436.117188 318.773438 C 435.59375 318.492188 435.082031 318.1875 434.589844 317.859375 C 434.09375 317.527344 433.617188 317.175781 433.15625 316.796875 C 432.699219 316.417969 432.257812 316.019531 431.835938 315.601562 C 431.417969 315.179688 431.019531 314.742188 430.640625 314.28125 C 430.261719 313.820312 429.910156 313.34375 429.578125 312.851562 C 429.25 312.355469 428.945312 311.847656 428.664062 311.324219 C 428.382812 310.796875 428.128906 310.261719 427.902344 309.710938 C 427.675781 309.164062 427.472656 308.605469 427.300781 308.035156 C 427.128906 307.464844 426.984375 306.890625 426.867188 306.308594 C 426.753906 305.722656 426.664062 305.136719 426.605469 304.546875 C 426.546875 303.953125 426.519531 303.359375 426.519531 302.765625 C 426.519531 302.171875 426.546875 301.578125 426.605469 300.988281 C 426.664062 300.394531 426.753906 299.808594 426.867188 299.226562 C 426.984375 298.640625 427.128906 298.066406 427.300781 297.496094 C 427.472656 296.929688 427.675781 296.371094 427.902344 295.820312 C 428.128906 295.269531 428.382812 294.734375 428.664062 294.210938 C 428.945312 293.6875 429.25 293.175781 429.578125 292.683594 C 429.910156 292.1875 430.261719 291.710938 430.640625 291.25 C 431.019531 290.792969 431.417969 290.351562 431.835938 289.929688 C 432.257812 289.511719 432.699219 289.113281 433.15625 288.734375 C 433.617188 288.359375 434.09375 288.003906 434.589844 287.675781 C 435.082031 287.34375 435.59375 287.039062 436.117188 286.757812 C 436.640625 286.476562 437.179688 286.222656 437.726562 285.996094 C 438.277344 285.769531 438.835938 285.570312 439.40625 285.398438 C 439.972656 285.222656 440.550781 285.078125 441.132812 284.964844 C 441.71875 284.847656 442.304688 284.761719 442.894531 284.703125 C 443.488281 284.644531 444.082031 284.613281 444.675781 284.613281 C 445.269531 284.613281 445.863281 284.644531 446.457031 284.703125 C 447.046875 284.761719 447.636719 284.847656 448.21875 284.964844 C 448.800781 285.078125 449.378906 285.222656 449.945312 285.398438 C 450.515625 285.570312 451.074219 285.769531 451.625 285.996094 C 452.171875 286.222656 452.710938 286.476562 453.234375 286.757812 C 453.757812 287.039062 454.269531 287.34375 454.761719 287.675781 C 455.257812 288.003906 455.734375 288.359375 456.195312 288.734375 C 456.652344 289.113281 457.09375 289.511719 457.515625 289.929688 C 457.933594 290.351562 458.332031 290.792969 458.710938 291.25 C 459.089844 291.710938 459.441406 292.1875 459.773438 292.683594 C 460.101562 293.175781 460.40625 293.6875 460.6875 294.210938 C 460.96875 294.734375 461.222656 295.269531 461.449219 295.820312 C 461.679688 296.371094 461.878906 296.929688 462.050781 297.496094 C 462.222656 298.066406 462.367188 298.640625 462.484375 299.226562 C 462.597656 299.808594 462.6875 300.394531 462.746094 300.988281 C 462.804688 301.578125 462.832031 302.171875 462.832031 302.765625 Z M 462.832031 302.765625 " fill-opacity="1" fill-rule="nonzero"/><path fill="#fdbbff" d="M 276.242188 408.96875 C 276.242188 409.5625 276.210938 410.15625 276.152344 410.746094 C 276.09375 411.339844 276.007812 411.925781 275.890625 412.511719 C 275.777344 413.09375 275.632812 413.667969 275.457031 414.238281 C 275.285156 414.804688 275.085938 415.367188 274.859375 415.914062 C 274.632812 416.464844 274.378906 417 274.097656 417.523438 C 273.816406 418.050781 273.511719 418.558594 273.179688 419.054688 C 272.851562 419.546875 272.496094 420.023438 272.121094 420.484375 C 271.742188 420.941406 271.34375 421.382812 270.921875 421.804688 C 270.503906 422.222656 270.0625 422.621094 269.601562 423 C 269.144531 423.375 268.664062 423.730469 268.171875 424.0625 C 267.675781 424.390625 267.167969 424.695312 266.644531 424.976562 C 266.117188 425.257812 265.582031 425.511719 265.03125 425.738281 C 264.484375 425.964844 263.921875 426.164062 263.355469 426.339844 C 262.785156 426.511719 262.210938 426.65625 261.625 426.769531 C 261.042969 426.886719 260.457031 426.972656 259.863281 427.03125 C 259.273438 427.089844 258.679688 427.121094 258.085938 427.121094 C 257.488281 427.121094 256.894531 427.089844 256.304688 427.03125 C 255.710938 426.972656 255.125 426.886719 254.542969 426.769531 C 253.957031 426.65625 253.382812 426.511719 252.8125 426.339844 C 252.246094 426.164062 251.683594 425.964844 251.136719 425.738281 C 250.585938 425.511719 250.050781 425.257812 249.523438 424.976562 C 249 424.695312 248.492188 424.390625 247.996094 424.0625 C 247.503906 423.730469 247.027344 423.375 246.566406 423 C 246.105469 422.621094 245.667969 422.222656 245.246094 421.804688 C 244.824219 421.382812 244.425781 420.941406 244.050781 420.484375 C 243.671875 420.023438 243.316406 419.546875 242.988281 419.054688 C 242.65625 418.558594 242.351562 418.050781 242.070312 417.523438 C 241.792969 417 241.539062 416.464844 241.308594 415.914062 C 241.082031 415.367188 240.882812 414.804688 240.710938 414.238281 C 240.535156 413.667969 240.390625 413.09375 240.277344 412.511719 C 240.160156 411.925781 240.074219 411.339844 240.015625 410.746094 C 239.957031 410.15625 239.925781 409.5625 239.925781 408.96875 C 239.925781 408.375 239.957031 407.78125 240.015625 407.191406 C 240.074219 406.597656 240.160156 406.011719 240.277344 405.425781 C 240.390625 404.84375 240.535156 404.269531 240.710938 403.699219 C 240.882812 403.132812 241.082031 402.570312 241.308594 402.023438 C 241.539062 401.472656 241.792969 400.9375 242.070312 400.414062 C 242.351562 399.886719 242.65625 399.378906 242.988281 398.882812 C 243.316406 398.390625 243.671875 397.914062 244.050781 397.453125 C 244.425781 396.996094 244.824219 396.554688 245.246094 396.132812 C 245.667969 395.714844 246.105469 395.316406 246.566406 394.9375 C 247.027344 394.5625 247.503906 394.207031 247.996094 393.875 C 248.492188 393.546875 249 393.242188 249.523438 392.960938 C 250.050781 392.679688 250.585938 392.425781 251.136719 392.199219 C 251.683594 391.972656 252.246094 391.773438 252.8125 391.597656 C 253.382812 391.425781 253.957031 391.28125 254.542969 391.167969 C 255.125 391.050781 255.710938 390.964844 256.304688 390.90625 C 256.894531 390.847656 257.488281 390.816406 258.085938 390.816406 C 258.679688 390.816406 259.273438 390.847656 259.863281 390.90625 C 260.457031 390.964844 261.042969 391.050781 261.625 391.167969 C 262.210938 391.28125 262.785156 391.425781 263.355469 391.597656 C 263.921875 391.773438 264.484375 391.972656 265.03125 392.199219 C 265.582031 392.425781 266.117188 392.679688 266.644531 392.960938 C 267.167969 393.242188 267.675781 393.546875 268.171875 393.875 C 268.664062 394.207031 269.144531 394.5625 269.601562 394.9375 C 270.0625 395.316406 270.503906 395.714844 270.921875 396.132812 C 271.34375 396.554688 271.742188 396.996094 272.121094 397.453125 C 272.496094 397.914062 272.851562 398.390625 273.179688 398.882812 C 273.511719 399.378906 273.816406 399.886719 274.097656 400.414062 C 274.378906 400.9375 274.632812 401.472656 274.859375 402.023438 C 275.085938 402.570312 275.285156 403.132812 275.457031 403.699219 C 275.632812 404.269531 275.777344 404.84375 275.890625 405.425781 C 276.007812 406.011719 276.09375 406.597656 276.152344 407.191406 C 276.210938 407.78125 276.242188 408.375 276.242188 408.96875 Z M 276.242188 408.96875 " fill-opacity="1" fill-rule="nonzero"/><path fill="#e5dfff" d="M 252.089844 483.578125 C 243.765625 504.515625 235.476562 525.425781 227.1875 546.328125 C 226.417969 548.296875 225.65625 550.320312 224.910156 552.375 C 224.941406 551.027344 225.003906 549.644531 225.097656 548.257812 C 218.34375 552.003906 212.078125 554.558594 205.9375 556.023438 C 191.136719 559.527344 170.832031 556.453125 161.160156 541.386719 C 159.933594 539.453125 158.921875 537.429688 158.121094 535.246094 C 165.25 535.644531 172.800781 536.65625 178.265625 535.550781 C 208.578125 529.410156 236.433594 510.40625 252.089844 483.578125 Z M 252.089844 483.578125 " fill-opacity="1" fill-rule="nonzero"/><path fill="#e5dfff" d="M 574.113281 501.199219 C 572.515625 516.769531 559.925781 531.4375 543.375 536.871094 C 528.972656 541.664062 511.867188 540.253906 495.253906 532.941406 C 486.527344 529.078125 477.53125 523.457031 467.832031 515.8125 C 468.964844 527.292969 468.722656 538.933594 466.96875 550.285156 C 463.902344 570.449219 455.761719 584.300781 443.441406 590.347656 C 434.9375 594.492188 424.28125 594.984375 411.746094 591.761719 C 381.277344 583.964844 356.402344 559.183594 347.929688 529.066406 C 343.875 546.476562 337.855469 560.714844 329.621094 572.421875 C 318.378906 588.351562 302.386719 599.46875 285.765625 602.878906 C 280.273438 604.003906 276 603.996094 274.894531 603.984375 C 269.753906 603.949219 249.359375 603.046875 235.800781 586.640625 C 226.890625 575.867188 225.441406 563.835938 225.144531 558.664062 C 227.828125 562.519531 236.859375 574.453125 253.707031 579.535156 C 255.816406 580.175781 273.070312 585.101562 291.339844 576.925781 C 296.851562 574.464844 301.710938 571.136719 319.429688 551.667969 C 326.585938 543.808594 336.015625 533.117188 346.746094 519.964844 C 359.730469 530.007812 369.765625 538.941406 376.707031 545.433594 C 391.628906 559.398438 396.609375 566.160156 408.429688 570.125 C 412.339844 571.4375 423.117188 574.902344 435.320312 571.304688 C 457.359375 564.8125 465.359375 540.800781 466.679688 536.527344 C 474.921875 509.859375 459.535156 487.101562 457.339844 483.96875 C 477.300781 501.589844 502.695312 512.980469 529.140625 516.148438 C 538.625 517.28125 548.484375 517.34375 557.488281 514.09375 C 564.1875 511.699219 570.359375 507.15625 574.101562 501.199219 Z M 574.113281 501.199219 " fill-opacity="1" fill-rule="nonzero"/><path fill="#e5dfff" d="M 612.292969 420.683594 C 613.101562 425.242188 614.636719 437.699219 607.554688 449.375 C 598.308594 464.621094 580.476562 468.585938 575.496094 469.609375 C 574.148438 469.886719 572.792969 470.128906 571.351562 470.34375 C 569.03125 467.640625 566.371094 464.878906 563.335938 462.175781 C 550.335938 450.585938 536.238281 445.105469 526.046875 442.363281 C 536.3125 444.648438 561.046875 448.597656 587.464844 436.875 C 598.273438 432.082031 606.476562 425.941406 612.292969 420.671875 Z M 612.292969 420.683594 " fill-opacity="1" fill-rule="nonzero"/><path fill="#220086" d="M 249.257812 452.851562 C 213.890625 441.339844 185.328125 412.054688 174.699219 376.429688 C 164.578125 342.503906 171.25 304.511719 192.019531 275.921875 C 191.871094 276.003906 190.300781 276.117188 189.945312 276.199219 C 187.066406 276.878906 184.390625 275.550781 182.476562 273.476562 C 161.707031 303.984375 155.289062 343.582031 165.863281 379.058594 C 177.335938 417.542969 208.195312 449.171875 246.394531 461.609375 C 246.867188 461.769531 247.351562 461.84375 247.824219 461.84375 C 249.769531 461.84375 251.570312 460.605469 252.210938 458.664062 C 253 456.25 251.671875 453.648438 249.257812 452.859375 Z M 249.257812 452.851562 " fill-opacity="1" fill-rule="nonzero"/><path fill="#220086" d="M 505.34375 246.828125 C 479.53125 203.316406 431.359375 172.53125 379.640625 166.484375 C 331.371094 160.847656 280.117188 176.398438 241.320312 208.128906 C 244.21875 209.597656 247.089844 211.128906 250 212.585938 C 250.082031 212.625 250.148438 212.679688 250.230469 212.726562 C 286.730469 184.226562 334.027344 170.441406 378.582031 175.636719 C 427.503906 181.347656 473.054688 210.433594 497.4375 251.527344 C 522.46875 293.71875 524.6875 348.476562 503.085938 391.039062 C 501.933594 393.308594 502.84375 396.085938 505.109375 397.226562 C 505.78125 397.5625 506.484375 397.730469 507.191406 397.730469 C 508.875 397.730469 510.492188 396.808594 511.300781 395.203125 C 534.289062 349.898438 531.957031 291.65625 505.351562 246.828125 Z M 505.34375 246.828125 " fill-opacity="1" fill-rule="nonzero"/><path fill="#220086" d="M 166.34375 538.085938 C 158.269531 525.484375 162.898438 508.390625 168.195312 496.277344 C 177.773438 474.375 193.207031 454.699219 212.183594 440.023438 C 210.035156 438.183594 208.214844 436.007812 206.003906 434.246094 C 205.78125 434.066406 205.601562 433.855469 205.398438 433.660156 C 185.746094 449.179688 169.753906 469.730469 159.757812 492.589844 C 153.558594 506.765625 148.316406 527.035156 158.59375 543.058594 C 166.550781 555.476562 181.042969 560.410156 194.480469 560.410156 C 198.71875 560.410156 202.863281 559.917969 206.652344 559.015625 C 213.632812 557.351562 220.125 554.519531 226.269531 551.140625 C 225.867188 549.167969 226.046875 547.070312 227.058594 545.148438 C 227.019531 543.269531 227.214844 541.433594 227.617188 539.640625 C 220.386719 544.210938 212.691406 548.121094 204.515625 550.070312 C 191.765625 553.097656 174.390625 550.65625 166.34375 538.105469 Z M 166.34375 538.085938 " fill-opacity="1" fill-rule="nonzero"/><g clip-path="url(#25afab5a08)"><path fill="#220086" d="M 274.929688 607.050781 C 258.726562 607.050781 242.964844 600.261719 233.441406 588.554688 C 222.097656 574.632812 218.835938 553.785156 224.707031 532.800781 C 229.828125 514.503906 240.347656 498.839844 250.519531 483.691406 C 251.941406 481.574219 254.804688 481.023438 256.914062 482.4375 C 259.03125 483.859375 259.589844 486.71875 258.167969 488.828125 C 248.402344 503.375 238.300781 518.402344 233.582031 535.28125 C 228.515625 553.386719 231.136719 571.128906 240.597656 582.742188 C 250.25 594.601562 267.914062 600.277344 284.539062 596.871094 C 299.65625 593.765625 314.261719 583.558594 324.605469 568.871094 C 333.367188 556.433594 339.5 540.847656 343.347656 521.210938 C 343.773438 519.046875 345.660156 517.492188 347.863281 517.492188 C 350.066406 517.492188 351.960938 519.054688 352.378906 521.21875 C 358.371094 552.050781 382.847656 578.023438 413.277344 585.832031 C 424.328125 588.667969 433.5625 588.332031 440.71875 584.832031 C 453.902344 578.367188 458.96875 561.96875 460.898438 549.355469 C 464.691406 524.527344 461.121094 498.238281 450.863281 475.3125 C 449.824219 472.988281 450.863281 470.269531 453.1875 469.226562 C 455.492188 468.1875 458.234375 469.226562 459.273438 471.550781 C 470.246094 496.0625 474.058594 524.191406 470.003906 550.738281 C 467.746094 565.527344 461.539062 584.878906 444.777344 593.089844 C 435.605469 597.585938 424.234375 598.140625 410.992188 594.742188 C 382.828125 587.515625 359.265625 566.289062 348.328125 539.609375 C 344.332031 553.042969 338.980469 564.449219 332.132812 574.175781 C 320.453125 590.765625 303.773438 602.320312 286.378906 605.890625 C 282.585938 606.667969 278.738281 607.042969 274.921875 607.042969 Z M 274.929688 607.050781 " fill-opacity="1" fill-rule="nonzero"/></g><path fill="#220086" d="M 561.449219 461.601562 C 551.347656 451.207031 538.367188 444.265625 526.992188 438.582031 C 524.714844 437.449219 521.949219 438.367188 520.8125 440.644531 C 519.679688 442.921875 520.601562 445.6875 522.878906 446.820312 C 533.582031 452.164062 545.753906 458.65625 554.851562 468.019531 C 564.292969 477.734375 569.105469 489.542969 568.046875 500.402344 C 566.753906 513.703125 555.816406 526.308594 541.453125 531.066406 C 528.5 535.347656 512.972656 534.027344 497.742188 527.320312 C 484.929688 521.683594 473.472656 512.878906 463.660156 504.386719 C 463.695312 504.535156 463.761719 504.664062 463.789062 504.8125 C 464.792969 509.003906 464.179688 513.339844 465.0625 517.53125 C 473.667969 524.414062 483.320312 531.046875 494.027344 535.757812 C 504.570312 540.402344 515.3125 542.742188 525.523438 542.742188 C 532.085938 542.742188 538.421875 541.765625 544.351562 539.816406 C 562.347656 533.859375 575.5625 518.386719 577.214844 501.304688 C 578.535156 487.742188 572.792969 473.277344 561.457031 461.609375 Z M 561.449219 461.601562 " fill-opacity="1" fill-rule="nonzero"/><path fill="#220086" d="M 613.203125 410.648438 C 606.746094 398.84375 594.433594 392.535156 584.4375 388.355469 C 562.117188 379.03125 538.03125 374.375 513.902344 374.609375 C 513.816406 377.023438 513.59375 379.410156 512.953125 381.78125 C 512.75 382.550781 512.496094 383.246094 512.210938 383.917969 C 535.691406 383.441406 559.160156 387.789062 580.878906 396.855469 C 589.492188 400.449219 600.027344 405.773438 605.109375 415.070312 C 610.027344 424.074219 608.96875 436.457031 602.472656 445.902344 C 596.542969 454.523438 586.230469 460.980469 574.179688 463.597656 C 569.046875 464.714844 563.539062 465.207031 557.574219 465.074219 C 561.390625 467.230469 564.179688 470.222656 565.769531 474.058594 C 569.355469 473.789062 572.820312 473.324219 576.148438 472.597656 C 590.457031 469.476562 602.824219 461.65625 610.074219 451.121094 C 618.492188 438.890625 619.746094 422.625 613.203125 410.660156 Z M 613.203125 410.648438 " fill-opacity="1" fill-rule="nonzero"/><path fill="#220086" d="M 359.347656 395.445312 C 352.070312 395.445312 344.460938 393.234375 337.613281 388.875 C 327.402344 382.375 321.835938 372.0625 316.445312 362.105469 L 315.128906 359.679688 C 314.328125 358.222656 314.382812 356.449219 315.265625 355.046875 C 316.140625 353.632812 317.628906 352.824219 319.375 352.882812 C 330.292969 353.328125 341.304688 350.289062 350.4375 344.308594 C 359.5625 338.335938 366.761719 329.433594 370.703125 319.261719 C 371.351562 317.5625 372.953125 316.421875 374.761719 316.328125 C 376.675781 316.21875 378.277344 317.21875 379.101562 318.835938 C 384.082031 328.636719 390.289062 340.832031 391.636719 354.339844 C 393.179688 369.683594 387.085938 384.019531 376.136719 390.847656 C 371.203125 393.921875 365.398438 395.445312 359.355469 395.445312 Z M 326.824219 361.902344 C 331.117188 369.648438 335.605469 376.679688 342.566406 381.121094 C 350.382812 386.109375 362.285156 388.625 371.242188 383.042969 C 380.339844 377.375 383.433594 365.003906 382.457031 355.269531 C 381.640625 347.074219 378.851562 339.550781 375.023438 331.414062 C 370.191406 339.652344 363.464844 346.796875 355.472656 352.027344 C 346.933594 357.617188 336.980469 361.019531 326.816406 361.910156 Z M 326.824219 361.902344 " fill-opacity="1" fill-rule="nonzero"/><path fill="#220086" d="M 227.234375 327.242188 C 225.65625 327.242188 224.039062 327.058594 222.429688 326.6875 C 213.59375 324.640625 207.386719 317.488281 206.597656 308.460938 L 205.269531 293.253906 C 204.839844 288.347656 201.328125 284.308594 196.535156 283.203125 L 181.65625 279.757812 C 172.820312 277.714844 166.613281 270.5625 165.824219 261.53125 C 165.035156 252.503906 169.921875 244.382812 178.265625 240.84375 L 192.335938 234.890625 C 196.859375 232.96875 199.617188 228.386719 199.191406 223.484375 L 197.863281 208.277344 C 197.074219 199.246094 201.960938 191.128906 210.304688 187.589844 C 218.648438 184.058594 227.875 186.1875 233.824219 193.035156 C 233.824219 193.035156 243.839844 204.5625 243.839844 204.5625 C 247.0625 208.277344 252.285156 209.476562 256.8125 207.5625 L 270.871094 201.597656 C 279.214844 198.058594 288.449219 200.195312 294.398438 207.042969 C 300.34375 213.886719 301.160156 223.324219 296.488281 231.089844 L 288.617188 244.171875 C 286.082031 248.386719 286.546875 253.710938 289.769531 257.433594 L 299.785156 268.964844 C 305.722656 275.808594 306.550781 285.246094 301.878906 293.011719 C 297.203125 300.777344 288.496094 304.484375 279.652344 302.433594 L 264.773438 298.984375 C 259.980469 297.871094 255.054688 299.960938 252.519531 304.179688 L 244.648438 317.265625 C 240.828125 323.609375 234.304688 327.242188 227.226562 327.242188 Z M 218.507812 195.132812 C 216.847656 195.132812 215.265625 195.496094 213.910156 196.070312 C 210.25 197.621094 206.523438 201.429688 207.042969 207.476562 L 208.371094 222.683594 C 209.144531 231.574219 204.144531 239.886719 195.929688 243.371094 L 181.863281 249.324219 C 176.277344 251.695312 174.660156 256.777344 175.003906 260.734375 C 175.347656 264.699219 177.820312 269.417969 183.730469 270.785156 L 198.605469 274.230469 C 207.304688 276.238281 213.667969 283.566406 214.441406 292.457031 L 215.769531 307.660156 C 216.296875 313.707031 220.628906 316.8125 224.503906 317.710938 C 228.378906 318.613281 233.636719 317.710938 236.757812 312.519531 L 244.628906 299.429688 C 249.230469 291.785156 258.167969 287.988281 266.855469 290.011719 L 281.730469 293.457031 C 287.640625 294.824219 291.933594 291.664062 293.988281 288.265625 C 296.042969 284.855469 296.8125 279.582031 292.835938 275.011719 L 282.820312 263.480469 C 276.964844 256.738281 276.128906 247.078125 280.730469 239.433594 L 288.597656 226.355469 C 291.730469 221.152344 290.058594 216.097656 287.445312 213.097656 C 284.84375 210.097656 280.058594 207.738281 274.476562 210.097656 L 260.417969 216.0625 C 252.203125 219.542969 242.742188 217.351562 236.890625 210.617188 L 226.871094 199.089844 C 224.371094 196.210938 221.324219 195.152344 218.507812 195.152344 Z M 218.507812 195.132812 " fill-opacity="1" fill-rule="nonzero"/><path fill="#220086" d="M 410.460938 278.320312 C 410.730469 278.960938 410.976562 279.609375 411.203125 280.265625 C 411.429688 280.917969 411.628906 281.578125 411.808594 282.242188 C 411.988281 282.90625 412.140625 283.574219 412.269531 284.242188 C 412.402344 284.90625 412.507812 285.570312 412.585938 286.234375 C 412.667969 286.898438 412.722656 287.554688 412.753906 288.207031 C 412.78125 288.859375 412.785156 289.503906 412.765625 290.136719 C 412.746094 290.773438 412.699219 291.398438 412.628906 292.011719 C 412.558594 292.625 412.460938 293.222656 412.339844 293.804688 C 412.21875 294.390625 412.074219 294.957031 411.902344 295.507812 C 411.734375 296.058594 411.539062 296.585938 411.324219 297.097656 C 411.105469 297.605469 410.867188 298.09375 410.605469 298.558594 C 410.34375 299.027344 410.0625 299.46875 409.757812 299.882812 C 409.453125 300.300781 409.128906 300.691406 408.785156 301.054688 C 408.441406 301.417969 408.082031 301.753906 407.699219 302.058594 C 407.320312 302.367188 406.925781 302.644531 406.511719 302.890625 C 406.101562 303.136719 405.671875 303.355469 405.230469 303.539062 C 404.792969 303.726562 404.339844 303.878906 403.871094 304 C 403.40625 304.125 402.933594 304.210938 402.449219 304.269531 C 401.960938 304.328125 401.46875 304.351562 400.96875 304.34375 C 400.46875 304.335938 399.964844 304.292969 399.453125 304.21875 C 398.941406 304.144531 398.429688 304.039062 397.914062 303.902344 C 397.398438 303.761719 396.882812 303.59375 396.363281 303.390625 C 395.847656 303.191406 395.335938 302.957031 394.824219 302.695312 C 394.3125 302.433594 393.804688 302.140625 393.300781 301.820312 C 392.796875 301.496094 392.304688 301.148438 391.816406 300.769531 C 391.328125 300.394531 390.847656 299.988281 390.378906 299.558594 C 389.910156 299.132812 389.453125 298.675781 389.007812 298.199219 C 388.5625 297.722656 388.128906 297.222656 387.710938 296.703125 C 387.292969 296.183594 386.890625 295.644531 386.503906 295.082031 C 386.117188 294.523438 385.75 293.949219 385.398438 293.359375 C 385.050781 292.765625 384.71875 292.160156 384.40625 291.539062 C 384.09375 290.921875 383.804688 290.292969 383.535156 289.652344 C 383.265625 289.011719 383.019531 288.363281 382.792969 287.707031 C 382.566406 287.050781 382.367188 286.390625 382.1875 285.726562 C 382.007812 285.0625 381.855469 284.398438 381.722656 283.730469 C 381.59375 283.066406 381.488281 282.398438 381.410156 281.738281 C 381.328125 281.074219 381.273438 280.417969 381.242188 279.765625 C 381.214844 279.113281 381.207031 278.46875 381.230469 277.832031 C 381.25 277.195312 381.296875 276.574219 381.367188 275.960938 C 381.4375 275.347656 381.535156 274.75 381.65625 274.164062 C 381.777344 273.582031 381.921875 273.015625 382.09375 272.464844 C 382.261719 271.914062 382.453125 271.382812 382.671875 270.875 C 382.886719 270.363281 383.128906 269.875 383.390625 269.410156 C 383.652344 268.945312 383.933594 268.503906 384.238281 268.089844 C 384.542969 267.671875 384.867188 267.28125 385.210938 266.917969 C 385.554688 266.554688 385.914062 266.21875 386.296875 265.914062 C 386.675781 265.605469 387.070312 265.328125 387.484375 265.082031 C 387.894531 264.832031 388.324219 264.617188 388.761719 264.429688 C 389.203125 264.246094 389.65625 264.09375 390.121094 263.96875 C 390.585938 263.847656 391.0625 263.757812 391.546875 263.703125 C 392.03125 263.644531 392.527344 263.621094 393.027344 263.628906 C 393.527344 263.636719 394.03125 263.679688 394.542969 263.75 C 395.050781 263.824219 395.566406 263.929688 396.082031 264.070312 C 396.597656 264.207031 397.113281 264.378906 397.628906 264.578125 C 398.148438 264.78125 398.660156 265.011719 399.171875 265.277344 C 399.683594 265.539062 400.191406 265.832031 400.695312 266.152344 C 401.195312 266.472656 401.691406 266.824219 402.179688 267.199219 C 402.667969 267.578125 403.148438 267.980469 403.617188 268.410156 C 404.085938 268.839844 404.542969 269.292969 404.988281 269.769531 C 405.433594 270.25 405.867188 270.746094 406.285156 271.269531 C 406.703125 271.789062 407.105469 272.328125 407.492188 272.886719 C 407.875 273.445312 408.246094 274.023438 408.59375 274.613281 C 408.945312 275.207031 409.277344 275.8125 409.589844 276.429688 C 409.898438 277.050781 410.191406 277.679688 410.460938 278.320312 Z M 410.460938 278.320312 " fill-opacity="1" fill-rule="nonzero"/><path fill="#220086" d="M 285.621094 350.390625 C 285.890625 351.03125 286.140625 351.679688 286.363281 352.332031 C 286.589844 352.988281 286.792969 353.648438 286.96875 354.3125 C 287.148438 354.976562 287.300781 355.644531 287.433594 356.308594 C 287.5625 356.976562 287.667969 357.640625 287.75 358.304688 C 287.828125 358.964844 287.882812 359.625 287.914062 360.277344 C 287.945312 360.929688 287.949219 361.574219 287.929688 362.207031 C 287.90625 362.84375 287.859375 363.46875 287.789062 364.082031 C 287.71875 364.695312 287.621094 365.292969 287.5 365.875 C 287.378906 366.460938 287.234375 367.027344 287.066406 367.578125 C 286.894531 368.125 286.703125 368.65625 286.484375 369.167969 C 286.269531 369.675781 286.03125 370.164062 285.769531 370.628906 C 285.507812 371.09375 285.222656 371.535156 284.917969 371.953125 C 284.613281 372.371094 284.289062 372.757812 283.945312 373.121094 C 283.605469 373.488281 283.242188 373.820312 282.863281 374.128906 C 282.480469 374.4375 282.085938 374.710938 281.671875 374.960938 C 281.261719 375.207031 280.835938 375.425781 280.394531 375.609375 C 279.953125 375.796875 279.5 375.949219 279.035156 376.070312 C 278.570312 376.191406 278.09375 376.28125 277.609375 376.339844 C 277.125 376.394531 276.632812 376.421875 276.132812 376.414062 C 275.632812 376.402344 275.125 376.363281 274.613281 376.289062 C 274.105469 376.214844 273.589844 376.109375 273.074219 375.972656 C 272.558594 375.832031 272.042969 375.664062 271.527344 375.460938 C 271.011719 375.261719 270.496094 375.027344 269.984375 374.765625 C 269.472656 374.503906 268.964844 374.210938 268.460938 373.886719 C 267.960938 373.566406 267.464844 373.21875 266.976562 372.839844 C 266.488281 372.460938 266.007812 372.058594 265.539062 371.628906 C 265.070312 371.199219 264.613281 370.746094 264.167969 370.269531 C 263.722656 369.792969 263.289062 369.292969 262.871094 368.773438 C 262.453125 368.253906 262.054688 367.710938 261.667969 367.152344 C 261.28125 366.59375 260.914062 366.019531 260.5625 365.425781 C 260.210938 364.835938 259.878906 364.230469 259.570312 363.609375 C 259.257812 362.992188 258.964844 362.363281 258.695312 361.722656 C 258.425781 361.082031 258.179688 360.433594 257.953125 359.777344 C 257.730469 359.121094 257.527344 358.460938 257.347656 357.796875 C 257.171875 357.132812 257.015625 356.46875 256.886719 355.800781 C 256.757812 355.132812 256.652344 354.46875 256.570312 353.808594 C 256.488281 353.144531 256.433594 352.488281 256.40625 351.835938 C 256.375 351.183594 256.371094 350.539062 256.390625 349.902344 C 256.410156 349.265625 256.457031 348.644531 256.527344 348.03125 C 256.601562 347.417969 256.695312 346.820312 256.816406 346.234375 C 256.9375 345.652344 257.082031 345.082031 257.253906 344.535156 C 257.421875 343.984375 257.617188 343.453125 257.832031 342.945312 C 258.050781 342.433594 258.289062 341.945312 258.550781 341.480469 C 258.8125 341.015625 259.09375 340.574219 259.398438 340.15625 C 259.703125 339.742188 260.027344 339.351562 260.371094 338.988281 C 260.714844 338.625 261.078125 338.289062 261.457031 337.980469 C 261.835938 337.675781 262.234375 337.398438 262.644531 337.152344 C 263.058594 336.902344 263.484375 336.6875 263.925781 336.5 C 264.367188 336.316406 264.820312 336.160156 265.285156 336.039062 C 265.75 335.917969 266.222656 335.828125 266.710938 335.773438 C 267.195312 335.714844 267.6875 335.691406 268.1875 335.699219 C 268.6875 335.707031 269.191406 335.746094 269.703125 335.820312 C 270.214844 335.894531 270.726562 336 271.242188 336.140625 C 271.757812 336.277344 272.277344 336.449219 272.792969 336.648438 C 273.308594 336.851562 273.824219 337.082031 274.335938 337.34375 C 274.847656 337.609375 275.355469 337.902344 275.855469 338.222656 C 276.359375 338.542969 276.855469 338.894531 277.34375 339.269531 C 277.832031 339.648438 278.308594 340.050781 278.777344 340.480469 C 279.246094 340.910156 279.703125 341.363281 280.152344 341.839844 C 280.597656 342.316406 281.027344 342.816406 281.445312 343.335938 C 281.863281 343.859375 282.265625 344.398438 282.652344 344.957031 C 283.039062 345.515625 283.40625 346.089844 283.757812 346.683594 C 284.105469 347.277344 284.4375 347.882812 284.75 348.5 C 285.0625 349.121094 285.351562 349.75 285.621094 350.390625 Z M 285.621094 350.390625 " fill-opacity="1" fill-rule="nonzero"/></svg>