<svg xmlns="http://www.w3.org/2000/svg" xmlns:xlink="http://www.w3.org/1999/xlink" width="1024" zoomAndPan="magnify" viewBox="0 0 768 767.999994" height="1024" preserveAspectRatio="xMidYMid meet" version="1.0"><defs><clipPath id="c3e3776fea"><path d="M 296 495 L 414 495 L 414 621.933594 L 296 621.933594 Z M 296 495 " clip-rule="nonzero"/></clipPath></defs><path fill="#c4a5ff" d="M 565.738281 533.289062 C 564.828125 544.550781 562.570312 555.65625 558.996094 566.308594 C 554.722656 579.03125 549.199219 586.605469 541.542969 590.117188 C 529.421875 595.707031 515.386719 588.988281 507.792969 579.4375 C 505.140625 576.078125 502.882812 572.171875 500.898438 567.53125 C 500.800781 568.019531 500.71875 568.511719 500.59375 569 C 497.667969 582.765625 490.894531 600.835938 475.332031 608.917969 C 463.035156 615.328125 446.5625 614.019531 433.410156 605.558594 C 419.4375 596.582031 411.589844 582.117188 407.5 571.558594 C 405.785156 567.164062 404.328125 562.433594 402.953125 556.9375 C 402.558594 558.308594 402.164062 559.710938 401.703125 561.085938 C 394.710938 583.304688 382.046875 601.070312 366.089844 611.074219 C 360.257812 614.734375 351.507812 618.855469 341.675781 618.855469 C 340.726562 618.855469 339.757812 618.828125 338.777344 618.734375 C 319.980469 617.113281 306.621094 599.808594 302.160156 584.433594 C 300.242188 577.808594 299.386719 571.003906 299.167969 564.199219 C 290.042969 573.574219 279.0625 580.59375 267.3125 584.59375 C 252.691406 589.570312 231.0625 590.484375 218.058594 576.714844 C 210.15625 568.292969 207.832031 556.785156 207.285156 548.609375 C 207.070312 545.371094 207.070312 542.171875 207.230469 538.992188 C 208.660156 514.449219 221.144531 491.167969 231.363281 472.054688 L 252.269531 433.023438 C 253.152344 431.347656 254.769531 430.21875 256.632812 429.878906 C 238.625 407.226562 218.640625 371.433594 218.640625 324.125 C 218.667969 249.257812 268.742188 203.601562 278.78125 195.207031 C 315.765625 164.304688 367.097656 149.59375 416.070312 155.910156 C 450.703125 160.371094 482.746094 174.925781 506.296875 196.863281 C 554.175781 241.484375 555.757812 301.148438 556.273438 320.777344 C 557.46875 365.796875 542.726562 402.109375 528.078125 426.773438 C 529.820312 426.800781 531.464844 427.601562 532.59375 428.9375 C 545.925781 444.8125 555.8125 463.484375 561.1875 482.992188 C 565.703125 499.222656 567.199219 516.40625 565.730469 533.289062 Z M 565.738281 533.289062 " fill-opacity="1" fill-rule="nonzero"/><path fill="#f6f6f6" d="M 221.699219 324.125 C 221.699219 301.210938 226.527344 278.890625 236.039062 257.773438 C 236.960938 255.722656 236.6875 253.34375 235.324219 251.554688 C 230.542969 245.316406 225.066406 240.460938 219.035156 237.109375 C 208.601562 231.324219 196.457031 230.25 186.566406 234.25 C 175.503906 238.699219 167.929688 249.539062 168.15625 260.597656 C 168.417969 273.679688 178.421875 283.117188 186.71875 288.707031 C 181.414062 288.792969 176.019531 290.070312 171.128906 292.921875 C 163.394531 297.421875 158.058594 304.855469 156.855469 312.816406 C 155.640625 320.777344 158.53125 329.472656 164.589844 336.058594 C 167.234375 338.949219 170.347656 341.28125 173.714844 342.945312 C 172.40625 343.40625 171.109375 344 169.859375 344.707031 C 163.253906 348.414062 158.25 355.078125 156.800781 362.097656 C 153.9375 376.003906 162.164062 389.800781 171.582031 397.300781 C 184.742188 407.792969 200.867188 410.144531 212.667969 410.144531 C 213.269531 410.144531 213.851562 410.144531 214.4375 410.125 C 220.898438 410.023438 227.722656 409.269531 235.898438 407.753906 C 237.796875 407.398438 239.414062 406.164062 240.273438 404.433594 C 241.117188 402.691406 241.089844 400.660156 240.195312 398.9375 C 227.9375 375.355469 221.71875 350.175781 221.726562 324.097656 Z M 221.699219 324.125 " fill-opacity="1" fill-rule="nonzero"/><path fill="#f6f6f6" d="M 589.167969 336.960938 C 596.910156 333.339844 603.167969 328.203125 607.164062 322.054688 C 613.441406 312.4375 613.96875 300.148438 608.492188 291.472656 C 605.453125 286.664062 600.148438 283.042969 594.292969 281.789062 C 592.1875 281.339844 590.097656 281.1875 588.09375 281.367188 C 592.535156 277.601562 596.761719 273.507812 600.082031 268.570312 C 605.660156 260.277344 607.382812 250.71875 604.691406 242.992188 C 601.644531 234.210938 592.640625 227.492188 582.28125 226.289062 C 571.308594 224.988281 561.363281 229.460938 554.957031 233.429688 C 550.667969 236.09375 546.433594 239.425781 541.25 244.222656 C 539.386719 245.945312 538.785156 248.648438 539.746094 251 C 548.015625 271.363281 552.558594 294.8125 553.246094 320.71875 C 553.886719 344.980469 549.867188 368.984375 541.304688 392.070312 C 540.648438 393.835938 540.84375 395.8125 541.84375 397.421875 C 542.839844 399.03125 544.523438 400.078125 546.40625 400.265625 C 550.875 400.726562 554.863281 400.953125 558.597656 400.953125 C 560.566406 400.953125 562.464844 400.886719 564.328125 400.761719 C 573.625 400.152344 586.863281 397.515625 597.144531 388.453125 C 606.742188 379.996094 611.351562 366.886719 608.632812 355.828125 C 606.273438 346.289062 598.113281 338.835938 589.167969 336.941406 Z M 589.167969 336.960938 " fill-opacity="1" fill-rule="nonzero"/><path fill="#e5dfff" d="M 565.738281 533.289062 C 564.828125 544.550781 562.570312 555.65625 558.996094 566.308594 C 554.722656 579.03125 549.199219 586.605469 541.542969 590.117188 C 529.421875 595.707031 515.386719 588.988281 507.792969 579.4375 C 505.140625 576.078125 502.882812 572.171875 500.898438 567.53125 C 500.800781 568.019531 500.71875 568.511719 500.59375 569 C 497.667969 582.765625 490.894531 600.835938 475.332031 608.917969 C 463.035156 615.328125 446.5625 614.019531 433.410156 605.558594 C 419.4375 596.582031 411.589844 582.117188 407.5 571.558594 C 405.785156 567.164062 404.328125 562.433594 402.953125 556.9375 C 402.558594 558.308594 402.164062 559.710938 401.703125 561.085938 C 394.710938 583.304688 382.046875 601.070312 366.089844 611.074219 C 360.257812 614.734375 351.507812 618.855469 341.675781 618.855469 C 340.726562 618.855469 339.757812 618.828125 338.777344 618.734375 C 319.980469 617.113281 306.621094 599.808594 302.160156 584.433594 C 300.242188 577.808594 299.386719 571.003906 299.167969 564.199219 C 290.042969 573.574219 279.0625 580.59375 267.3125 584.59375 C 252.691406 589.570312 231.0625 590.484375 218.058594 576.714844 C 210.15625 568.292969 207.832031 556.785156 207.285156 548.609375 C 207.070312 545.371094 207.070312 542.171875 207.230469 538.992188 C 207.652344 539.875 208.140625 540.761719 208.695312 541.710938 C 216.777344 555.535156 231.457031 565.761719 247.507812 567.316406 C 270.484375 569.546875 293.917969 553.886719 300.664062 531.820312 C 301.425781 546.078125 302.285156 560.8125 308.8125 573.546875 C 315.3125 586.238281 329.136719 596.375 343.199219 593.964844 C 354 592.101562 362.335938 583.625 369.414062 575.230469 C 384.15625 557.800781 397.027344 538.792969 407.707031 518.617188 C 409.785156 535.3125 412.003906 552.496094 420.304688 567.117188 C 428.601562 581.703125 444.625 593.308594 461.316406 591.132812 C 475.015625 589.363281 486.304688 578.738281 492.5625 566.414062 C 498.816406 554.113281 500.925781 540.140625 502.964844 526.464844 C 504.433594 535.960938 505.988281 545.730469 511.140625 553.8125 C 516.296875 561.894531 526.035156 567.878906 535.371094 565.648438 C 543.300781 563.730469 548.765625 556.644531 553.585938 550.019531 C 557.640625 544.429688 561.667969 538.878906 565.730469 533.296875 Z M 565.738281 533.289062 " fill-opacity="1" fill-rule="nonzero"/><path fill="#fdbbff" d="M 302.28125 348.566406 C 302.28125 349.113281 302.257812 349.664062 302.203125 350.210938 C 302.148438 350.757812 302.066406 351.300781 301.960938 351.839844 C 301.851562 352.378906 301.71875 352.910156 301.558594 353.4375 C 301.402344 353.964844 301.214844 354.480469 301.003906 354.988281 C 300.796875 355.496094 300.558594 355.992188 300.300781 356.480469 C 300.042969 356.964844 299.761719 357.433594 299.453125 357.890625 C 299.148438 358.347656 298.820312 358.789062 298.472656 359.214844 C 298.125 359.640625 297.753906 360.046875 297.367188 360.4375 C 296.976562 360.824219 296.570312 361.195312 296.148438 361.542969 C 295.722656 361.890625 295.28125 362.21875 294.824219 362.523438 C 294.367188 362.828125 293.894531 363.113281 293.410156 363.371094 C 292.925781 363.628906 292.429688 363.863281 291.921875 364.074219 C 291.414062 364.285156 290.898438 364.46875 290.371094 364.628906 C 289.84375 364.789062 289.3125 364.921875 288.773438 365.03125 C 288.234375 365.136719 287.691406 365.21875 287.144531 365.273438 C 286.597656 365.324219 286.046875 365.351562 285.5 365.351562 C 284.949219 365.351562 284.398438 365.324219 283.851562 365.273438 C 283.304688 365.21875 282.761719 365.136719 282.222656 365.03125 C 281.683594 364.921875 281.152344 364.789062 280.625 364.628906 C 280.101562 364.46875 279.582031 364.285156 279.074219 364.074219 C 278.566406 363.863281 278.070312 363.628906 277.585938 363.371094 C 277.101562 363.113281 276.628906 362.828125 276.171875 362.523438 C 275.714844 362.21875 275.273438 361.890625 274.851562 361.542969 C 274.425781 361.195312 274.019531 360.824219 273.628906 360.4375 C 273.242188 360.046875 272.871094 359.640625 272.523438 359.214844 C 272.175781 358.789062 271.847656 358.347656 271.542969 357.890625 C 271.238281 357.433594 270.953125 356.964844 270.695312 356.480469 C 270.4375 355.992188 270.203125 355.496094 269.992188 354.988281 C 269.78125 354.480469 269.597656 353.964844 269.4375 353.4375 C 269.277344 352.910156 269.144531 352.378906 269.035156 351.839844 C 268.929688 351.300781 268.847656 350.757812 268.792969 350.210938 C 268.742188 349.664062 268.714844 349.113281 268.714844 348.566406 C 268.714844 348.015625 268.742188 347.464844 268.792969 346.917969 C 268.847656 346.371094 268.929688 345.828125 269.035156 345.289062 C 269.144531 344.75 269.277344 344.21875 269.4375 343.691406 C 269.597656 343.164062 269.78125 342.648438 269.992188 342.140625 C 270.203125 341.632812 270.4375 341.136719 270.695312 340.652344 C 270.953125 340.167969 271.238281 339.695312 271.542969 339.238281 C 271.847656 338.78125 272.175781 338.339844 272.523438 337.914062 C 272.871094 337.488281 273.242188 337.082031 273.628906 336.695312 C 274.019531 336.304688 274.425781 335.9375 274.851562 335.585938 C 275.273438 335.238281 275.714844 334.910156 276.171875 334.605469 C 276.628906 334.300781 277.101562 334.019531 277.585938 333.757812 C 278.070312 333.5 278.566406 333.265625 279.074219 333.054688 C 279.582031 332.84375 280.101562 332.660156 280.625 332.5 C 281.152344 332.339844 281.683594 332.207031 282.222656 332.101562 C 282.761719 331.992188 283.304688 331.910156 283.851562 331.859375 C 284.398438 331.804688 284.949219 331.777344 285.5 331.777344 C 286.046875 331.777344 286.597656 331.804688 287.144531 331.859375 C 287.691406 331.910156 288.234375 331.992188 288.773438 332.101562 C 289.3125 332.207031 289.84375 332.339844 290.371094 332.5 C 290.898438 332.660156 291.414062 332.84375 291.921875 333.054688 C 292.429688 333.265625 292.925781 333.5 293.410156 333.757812 C 293.894531 334.019531 294.367188 334.300781 294.824219 334.605469 C 295.28125 334.910156 295.722656 335.238281 296.148438 335.585938 C 296.570312 335.9375 296.976562 336.304688 297.367188 336.695312 C 297.753906 337.082031 298.125 337.488281 298.472656 337.914062 C 298.820312 338.339844 299.148438 338.78125 299.453125 339.238281 C 299.761719 339.695312 300.042969 340.167969 300.300781 340.652344 C 300.558594 341.136719 300.796875 341.632812 301.003906 342.140625 C 301.214844 342.648438 301.402344 343.164062 301.558594 343.691406 C 301.71875 344.21875 301.851562 344.75 301.960938 345.289062 C 302.066406 345.828125 302.148438 346.371094 302.203125 346.917969 C 302.257812 347.464844 302.28125 348.015625 302.28125 348.566406 Z M 302.28125 348.566406 " fill-opacity="1" fill-rule="nonzero"/><path fill="#fdbbff" d="M 529.714844 325 C 529.714844 325.550781 529.6875 326.101562 529.632812 326.648438 C 529.582031 327.195312 529.5 327.738281 529.390625 328.277344 C 529.285156 328.816406 529.152344 329.347656 528.992188 329.875 C 528.832031 330.402344 528.648438 330.917969 528.4375 331.425781 C 528.226562 331.933594 527.992188 332.429688 527.734375 332.914062 C 527.472656 333.402344 527.191406 333.871094 526.886719 334.328125 C 526.582031 334.785156 526.253906 335.226562 525.90625 335.652344 C 525.554688 336.078125 525.1875 336.484375 524.796875 336.871094 C 524.410156 337.261719 524.003906 337.628906 523.578125 337.980469 C 523.152344 338.328125 522.710938 338.65625 522.253906 338.960938 C 521.796875 339.265625 521.328125 339.546875 520.84375 339.808594 C 520.359375 340.066406 519.859375 340.300781 519.351562 340.511719 C 518.84375 340.722656 518.328125 340.90625 517.800781 341.066406 C 517.277344 341.226562 516.742188 341.359375 516.203125 341.46875 C 515.664062 341.574219 515.121094 341.65625 514.574219 341.707031 C 514.027344 341.761719 513.480469 341.789062 512.929688 341.789062 C 512.378906 341.789062 511.832031 341.761719 511.285156 341.707031 C 510.738281 341.65625 510.195312 341.574219 509.65625 341.46875 C 509.117188 341.359375 508.582031 341.226562 508.058594 341.066406 C 507.53125 340.90625 507.015625 340.722656 506.507812 340.511719 C 506 340.300781 505.503906 340.066406 505.019531 339.808594 C 504.53125 339.546875 504.0625 339.265625 503.605469 338.960938 C 503.148438 338.65625 502.707031 338.328125 502.28125 337.980469 C 501.855469 337.628906 501.449219 337.261719 501.0625 336.871094 C 500.671875 336.484375 500.304688 336.078125 499.957031 335.652344 C 499.605469 335.226562 499.28125 334.785156 498.972656 334.328125 C 498.667969 333.871094 498.386719 333.402344 498.128906 332.914062 C 497.867188 332.429688 497.632812 331.933594 497.421875 331.425781 C 497.210938 330.917969 497.027344 330.402344 496.867188 329.875 C 496.707031 329.347656 496.574219 328.816406 496.46875 328.277344 C 496.359375 327.738281 496.28125 327.195312 496.226562 326.648438 C 496.171875 326.101562 496.144531 325.550781 496.144531 325 C 496.144531 324.453125 496.171875 323.902344 496.226562 323.355469 C 496.28125 322.808594 496.359375 322.265625 496.46875 321.726562 C 496.574219 321.1875 496.707031 320.65625 496.867188 320.128906 C 497.027344 319.601562 497.210938 319.085938 497.421875 318.578125 C 497.632812 318.070312 497.867188 317.574219 498.128906 317.089844 C 498.386719 316.601562 498.667969 316.132812 498.972656 315.675781 C 499.28125 315.21875 499.605469 314.777344 499.957031 314.351562 C 500.304688 313.925781 500.671875 313.519531 501.0625 313.132812 C 501.449219 312.742188 501.855469 312.375 502.28125 312.023438 C 502.707031 311.675781 503.148438 311.347656 503.605469 311.042969 C 504.0625 310.738281 504.53125 310.457031 505.019531 310.195312 C 505.503906 309.9375 506 309.703125 506.507812 309.492188 C 507.015625 309.28125 507.53125 309.097656 508.058594 308.9375 C 508.582031 308.777344 509.117188 308.644531 509.65625 308.535156 C 510.195312 308.429688 510.738281 308.347656 511.285156 308.292969 C 511.832031 308.242188 512.378906 308.214844 512.929688 308.214844 C 513.480469 308.214844 514.027344 308.242188 514.574219 308.292969 C 515.121094 308.347656 515.664062 308.429688 516.203125 308.535156 C 516.742188 308.644531 517.277344 308.777344 517.800781 308.9375 C 518.328125 309.097656 518.84375 309.28125 519.351562 309.492188 C 519.859375 309.703125 520.359375 309.9375 520.84375 310.195312 C 521.328125 310.457031 521.796875 310.738281 522.253906 311.042969 C 522.710938 311.347656 523.152344 311.675781 523.578125 312.023438 C 524.003906 312.375 524.410156 312.742188 524.796875 313.132812 C 525.1875 313.519531 525.554688 313.925781 525.90625 314.351562 C 526.253906 314.777344 526.582031 315.21875 526.886719 315.675781 C 527.191406 316.132812 527.472656 316.601562 527.734375 317.089844 C 527.992188 317.574219 528.226562 318.070312 528.4375 318.578125 C 528.648438 319.085938 528.832031 319.601562 528.992188 320.128906 C 529.152344 320.65625 529.285156 321.1875 529.390625 321.726562 C 529.5 322.265625 529.582031 322.808594 529.632812 323.355469 C 529.6875 323.902344 529.714844 324.453125 529.714844 325 Z M 529.714844 325 " fill-opacity="1" fill-rule="nonzero"/><path fill="#220086" d="M 283.945312 460.160156 C 282.949219 460.160156 281.941406 459.832031 281.105469 459.164062 C 270.164062 450.460938 215.582031 403.023438 215.601562 324.125 C 215.621094 247.902344 266.617188 201.417969 276.84375 192.871094 C 314.476562 161.414062 366.675781 146.453125 416.464844 152.886719 C 451.71875 157.433594 484.355469 172.265625 508.375 194.640625 C 540.769531 224.828125 557.921875 267.203125 559.332031 320.570312 C 561 383.15625 532.414062 429.105469 515.234375 450.9375 C 513.671875 452.925781 510.785156 453.273438 508.808594 451.703125 C 506.824219 450.140625 506.476562 447.257812 508.046875 445.273438 C 524.464844 424.410156 551.777344 380.523438 550.1875 320.9375 C 549.679688 301.871094 548.144531 244.214844 502.128906 201.339844 C 479.5 180.253906 448.660156 166.269531 415.289062 161.96875 C 367.953125 155.878906 318.410156 170.050781 282.703125 199.902344 C 273.03125 207.984375 224.765625 251.976562 224.746094 324.125 C 224.730469 398.816406 276.429688 443.75 286.796875 452.003906 C 288.773438 453.574219 289.101562 456.464844 287.53125 458.429688 C 286.628906 459.566406 285.292969 460.160156 283.945312 460.160156 Z M 283.945312 460.160156 " fill-opacity="1" fill-rule="nonzero"/><path fill="#220086" d="M 239.085938 403.171875 C 238.859375 402.46875 238.738281 401.75 238.652344 401.046875 C 230.589844 402.703125 222.453125 403.933594 214.304688 404.058594 C 203.332031 404.273438 187.6875 402.371094 175.371094 392.558594 C 167.414062 386.214844 160.429688 374.726562 162.765625 363.347656 C 163.867188 358.011719 167.722656 352.914062 172.832031 350.050781 C 174.683594 349.007812 176.59375 348.320312 178.476562 348 C 181.355469 348.726562 184.308594 349.007812 187.265625 348.820312 C 189.429688 348.679688 191.195312 347.039062 191.5 344.894531 C 191.800781 342.75 190.558594 340.679688 188.515625 339.945312 C 185.550781 338.882812 182.445312 338.457031 179.296875 338.683594 C 175.558594 337.441406 171.996094 335.128906 169.078125 331.957031 C 164.269531 326.714844 161.957031 319.910156 162.886719 313.757812 C 163.816406 307.601562 168.042969 301.796875 174.195312 298.21875 C 180.347656 294.636719 187.488281 293.835938 193.296875 296.054688 C 195.554688 296.921875 198.132812 295.867188 199.117188 293.636719 C 200.105469 291.40625 199.175781 288.800781 197.003906 287.699219 C 190.257812 284.285156 174.542969 274.789062 174.261719 260.496094 C 174.09375 252.042969 180.226562 243.394531 188.84375 239.921875 C 197.066406 236.601562 207.257812 237.5625 216.074219 242.453125 C 222.941406 246.265625 229.066406 252.402344 233.976562 260.324219 C 235.5 257.238281 237.0625 254.171875 238.890625 251.234375 C 233.667969 244.015625 227.429688 238.285156 220.515625 234.445312 C 209.300781 228.21875 196.183594 227.097656 185.421875 231.425781 C 173.207031 236.347656 164.851562 248.375 165.105469 260.671875 C 165.296875 270.007812 170.140625 278.984375 178.804688 286.550781 C 175.664062 287.324219 172.558594 288.574219 169.59375 290.304688 C 160.949219 295.339844 155.210938 303.386719 153.835938 312.390625 C 152.460938 321.398438 155.566406 330.78125 162.332031 338.148438 C 163.882812 339.839844 165.566406 341.355469 167.335938 342.664062 C 160.394531 346.925781 155.359375 353.890625 153.796875 361.503906 C 151.050781 374.847656 157.28125 389.847656 169.660156 399.71875 C 183.519531 410.777344 200.578125 413.222656 212.949219 413.222656 C 213.457031 413.222656 213.957031 413.222656 214.445312 413.214844 C 224.144531 413.0625 233.640625 411.527344 242.933594 409.515625 C 241.222656 407.691406 239.847656 405.582031 239.085938 403.171875 Z M 239.085938 403.171875 " fill-opacity="1" fill-rule="nonzero"/><path fill="#220086" d="M 596.628906 336.351562 C 602.066406 332.886719 606.535156 328.605469 609.714844 323.730469 C 616.628906 313.136719 617.167969 299.519531 611.0625 289.855469 C 607.617188 284.398438 601.898438 280.425781 595.320312 278.902344 C 597.972656 276.285156 600.46875 273.433594 602.59375 270.28125 C 608.699219 261.199219 610.554688 250.632812 607.550781 241.992188 C 604.117188 232.132812 594.097656 224.613281 582.609375 223.257812 C 570.734375 221.875 560.132812 226.617188 553.320312 230.84375 C 546.726562 234.9375 541.042969 240.054688 535.652344 245.277344 C 535.71875 245.371094 535.820312 245.449219 535.878906 245.542969 C 537.476562 248.296875 538.917969 251.019531 539.902344 253.917969 C 545.585938 248.335938 551.484375 242.757812 558.136719 238.625 C 563.707031 235.171875 572.308594 231.277344 581.535156 232.359375 C 589.617188 233.300781 596.589844 238.378906 598.894531 245.003906 C 600.957031 250.925781 599.496094 258.472656 594.992188 265.171875 C 590.589844 271.710938 584.058594 276.886719 577.734375 281.894531 C 575.816406 283.417969 575.429688 286.175781 576.871094 288.160156 C 578.308594 290.144531 581.058594 290.65625 583.097656 289.300781 C 585.800781 287.519531 589.308594 286.964844 592.976562 287.765625 C 597.269531 288.6875 601.136719 291.292969 603.308594 294.746094 C 607.464844 301.335938 606.949219 311.195312 602.027344 318.734375 C 597.585938 325.546875 589.730469 330.96875 579.910156 333.996094 C 577.585938 334.714844 576.222656 337.132812 576.824219 339.492188 C 577.414062 341.855469 579.738281 343.34375 582.148438 342.863281 C 590.625 341.179688 600.390625 348.074219 602.679688 357.316406 C 604.871094 366.21875 601.011719 376.898438 593.082031 383.890625 C 584.085938 391.816406 572.242188 394.140625 563.894531 394.683594 C 556.132812 395.203125 548.304688 394.496094 540.574219 393.453125 C 540 396.480469 538.90625 399.34375 537.535156 402.261719 C 544.308594 403.21875 551.410156 404.011719 558.582031 404.011719 C 560.554688 404.011719 562.53125 403.953125 564.5 403.820312 C 574.273438 403.171875 588.207031 400.378906 599.128906 390.75 C 609.726562 381.417969 614.597656 367.433594 611.558594 355.113281 C 609.507812 346.785156 603.730469 339.992188 596.601562 336.351562 Z M 596.628906 336.351562 " fill-opacity="1" fill-rule="nonzero"/><path fill="#220086" d="M 379.261719 322.554688 C 378.097656 322.554688 376.921875 322.453125 375.761719 322.226562 C 366.042969 320.363281 358.835938 310.828125 359.703125 300.957031 C 359.917969 298.4375 362.140625 296.5625 364.660156 296.800781 C 367.183594 297.015625 369.046875 299.238281 368.820312 301.757812 C 368.367188 306.894531 372.421875 312.261719 377.484375 313.230469 C 382.566406 314.199219 388.304688 310.71875 389.78125 305.777344 C 390.328125 303.96875 391.925781 302.679688 393.808594 302.53125 C 395.632812 302.40625 397.476562 303.394531 398.289062 305.109375 C 400.648438 310.011719 407.574219 312.53125 412.511719 310.3125 C 417.472656 308.082031 420.179688 301.242188 418.082031 296.226562 C 417.113281 293.890625 418.214844 291.210938 420.546875 290.230469 C 422.890625 289.261719 425.5625 290.363281 426.542969 292.695312 C 430.539062 302.277344 425.730469 314.414062 416.265625 318.667969 C 409.21875 321.839844 400.621094 320.15625 394.824219 315.234375 C 391.003906 319.75 385.21875 322.566406 379.261719 322.566406 Z M 379.261719 322.554688 " fill-opacity="1" fill-rule="nonzero"/><path fill="#220086" d="M 299.019531 312.789062 C 298.839844 312.789062 298.660156 312.789062 298.480469 312.757812 C 295.96875 312.46875 294.171875 310.191406 294.464844 307.675781 C 295.707031 297.082031 305.386719 288.179688 316.046875 287.832031 C 316.265625 287.832031 316.480469 287.820312 316.695312 287.820312 C 327.121094 287.820312 336.992188 295.953125 338.882812 306.226562 C 339.332031 308.710938 337.695312 311.101562 335.203125 311.5625 C 332.710938 312.015625 330.328125 310.378906 329.867188 307.882812 C 328.769531 301.890625 322.785156 296.976562 316.707031 296.976562 C 316.585938 296.976562 316.460938 296.976562 316.339844 296.976562 C 310.128906 297.183594 304.269531 302.566406 303.554688 308.742188 C 303.28125 311.074219 301.304688 312.789062 299.007812 312.789062 Z M 299.019531 312.789062 " fill-opacity="1" fill-rule="nonzero"/><path fill="#220086" d="M 459 296.976562 C 458.820312 296.976562 458.644531 296.976562 458.464844 296.949219 C 455.953125 296.65625 454.15625 294.378906 454.445312 291.867188 C 455.6875 281.273438 465.371094 272.371094 476.03125 272.023438 C 486.679688 271.578125 496.9375 279.925781 498.863281 290.417969 C 499.316406 292.902344 497.679688 295.292969 495.1875 295.753906 C 492.691406 296.195312 490.3125 294.570312 489.851562 292.074219 C 488.730469 285.96875 482.523438 281 476.320312 281.167969 C 470.113281 281.375 464.25 286.757812 463.535156 292.929688 C 463.261719 295.265625 461.285156 296.976562 458.992188 296.976562 Z M 459 296.976562 " fill-opacity="1" fill-rule="nonzero"/><path fill="#220086" d="M 301.097656 564.917969 C 301.183594 560.191406 301.585938 555.554688 302.394531 551 C 293.175781 563.703125 280.285156 573.734375 265.34375 578.816406 C 252.457031 583.199219 233.496094 584.1875 222.519531 572.519531 C 215.847656 565.433594 213.871094 555.382812 213.390625 548.203125 C 211.613281 521.910156 225.558594 495.863281 236.761719 474.933594 L 259.023438 433.359375 C 257.167969 430.792969 255.589844 428.035156 253.839844 425.371094 C 253.660156 425.089844 253.527344 424.808594 253.367188 424.515625 L 228.691406 470.617188 C 216.9375 492.578125 202.300781 519.917969 204.257812 548.832031 C 204.839844 557.5 207.332031 569.742188 215.855469 578.796875 C 224.277344 587.746094 235.992188 590.972656 247.355469 590.972656 C 254.835938 590.972656 262.164062 589.570312 268.308594 587.480469 C 280.804688 583.226562 292.019531 575.871094 301.203125 566.507812 C 301.144531 565.988281 301.089844 565.472656 301.097656 564.917969 Z M 301.097656 564.917969 " fill-opacity="1" fill-rule="nonzero"/><g clip-path="url(#c3e3776fea)"><path fill="#220086" d="M 341.667969 621.933594 C 340.605469 621.933594 339.539062 621.886719 338.496094 621.792969 C 318.175781 620.042969 304.128906 602.199219 299.226562 585.28125 C 294.097656 567.625 296.328125 548.871094 298.285156 532.308594 C 298.585938 529.796875 300.890625 528 303.363281 528.300781 C 305.878906 528.601562 307.664062 530.878906 307.375 533.382812 C 305.511719 549.070312 303.402344 566.855469 308.011719 582.710938 C 311.917969 596.167969 323.367188 611.28125 339.277344 612.652344 C 348.554688 613.445312 357.230469 609.417969 362.835938 605.898438 C 377.570312 596.636719 389.300781 580.066406 395.878906 559.222656 C 401.929688 540.035156 403.394531 519.417969 404.808594 499.488281 C 404.988281 496.964844 407.234375 495.054688 409.699219 495.242188 C 412.222656 495.421875 414.121094 497.613281 413.941406 500.136719 C 412.496094 520.601562 410.988281 541.765625 404.609375 561.980469 C 397.382812 584.882812 384.277344 603.234375 367.699219 613.652344 C 359.042969 619.082031 350.105469 621.914062 341.648438 621.914062 Z M 341.667969 621.933594 " fill-opacity="1" fill-rule="nonzero"/></g><path fill="#220086" d="M 497.472656 490.441406 C 496.570312 488.082031 493.925781 486.894531 491.5625 487.800781 C 489.203125 488.703125 488.015625 491.347656 488.917969 493.707031 C 497.839844 517.027344 499.871094 543.308594 494.628906 567.71875 C 491.957031 580.179688 485.957031 596.496094 472.519531 603.488281 C 462.105469 608.898438 448.039062 607.703125 436.683594 600.410156 C 424.09375 592.335938 416.964844 579.058594 413.191406 569.347656 C 409.4375 559.683594 407.226562 549.34375 405.429688 539.046875 C 405.015625 542.273438 404.488281 545.472656 403.613281 548.597656 C 402.746094 551.683594 401.335938 554.46875 399.832031 557.21875 C 401.128906 562.433594 402.679688 567.597656 404.648438 572.660156 C 410.761719 588.414062 420.125 600.675781 431.734375 608.117188 C 439.835938 613.324219 449.132812 615.976562 458.097656 615.976562 C 464.691406 615.976562 471.109375 614.535156 476.734375 611.609375 C 493.332031 602.972656 500.492188 584.019531 503.570312 569.640625 C 509.167969 543.515625 507.003906 515.390625 497.453125 490.441406 Z M 497.472656 490.441406 " fill-opacity="1" fill-rule="nonzero"/><path fill="#220086" d="M 564.148438 482.171875 C 557.976562 459.832031 546.21875 438.882812 530.457031 421.804688 C 529.601562 425.03125 528.152344 428.070312 526.0625 430.621094 C 539.667969 446.140625 549.847656 464.78125 555.324219 484.609375 C 562.484375 510.542969 561.730469 538.867188 553.199219 564.378906 C 549.519531 575.390625 545.011719 581.796875 539 584.566406 C 529.808594 588.800781 518.519531 583.125 512.574219 575.632812 C 507.59375 569.367188 504.753906 561.460938 502.636719 553.59375 C 501.613281 558.949219 500.171875 564.230469 498.355469 569.375 C 500.199219 573.574219 502.457031 577.628906 505.402344 581.335938 C 511.605469 589.136719 521.792969 595.199219 532.207031 595.199219 C 535.765625 595.199219 539.359375 594.492188 542.820312 592.894531 C 553.941406 587.78125 559.023438 575.832031 561.875 567.296875 C 570.972656 540.074219 571.769531 509.847656 564.140625 482.179688 Z M 564.148438 482.171875 " fill-opacity="1" fill-rule="nonzero"/></svg>